<mxfile host="65bd71144e">
    <diagram id="GIZeqjLPOdP5dMKTnjq3" name="Page-1">
        <mxGraphModel dx="1255" dy="702" grid="1" gridSize="10" guides="1" tooltips="1" connect="1" arrows="1" fold="1" page="1" pageScale="1" pageWidth="1920" pageHeight="1200" math="0" shadow="0">
            <root>
                <mxCell id="0"/>
                <mxCell id="1" parent="0"/>
                <mxCell id="oP2a7q_iQrm_6OJs4VRY-6" style="edgeStyle=orthogonalEdgeStyle;rounded=0;orthogonalLoop=1;jettySize=auto;html=1;exitX=1;exitY=0.5;exitDx=0;exitDy=0;entryX=0;entryY=0.5;entryDx=0;entryDy=0;fontFamily=Verdana;fontSize=19;" parent="1" source="oP2a7q_iQrm_6OJs4VRY-7" target="oP2a7q_iQrm_6OJs4VRY-20" edge="1">
                    <mxGeometry relative="1" as="geometry"/>
                </mxCell>
                <mxCell id="oP2a7q_iQrm_6OJs4VRY-20" value="Sistema Gestión Acádemica" style="swimlane;fontFamily=Verdana;fontSize=19;" parent="1" vertex="1">
                    <mxGeometry x="300" y="20" width="870" height="680" as="geometry"/>
                </mxCell>
                <mxCell id="oP2a7q_iQrm_6OJs4VRY-14" value="Programa Académico" style="ellipse;whiteSpace=wrap;html=1;fontFamily=Verdana;fontSize=19;" parent="oP2a7q_iQrm_6OJs4VRY-20" vertex="1">
                    <mxGeometry x="660" y="120" width="170" height="80" as="geometry"/>
                </mxCell>
                <mxCell id="oP2a7q_iQrm_6OJs4VRY-15" value="Horario" style="ellipse;whiteSpace=wrap;html=1;fontFamily=Verdana;fontSize=19;" parent="oP2a7q_iQrm_6OJs4VRY-20" vertex="1">
                    <mxGeometry x="380" y="562" width="170" height="80" as="geometry"/>
                </mxCell>
                <mxCell id="oP2a7q_iQrm_6OJs4VRY-16" value="Grupos" style="ellipse;whiteSpace=wrap;html=1;fontFamily=Verdana;fontSize=19;" parent="oP2a7q_iQrm_6OJs4VRY-20" vertex="1">
                    <mxGeometry x="380" y="390" width="170" height="80" as="geometry"/>
                </mxCell>
                <mxCell id="oP2a7q_iQrm_6OJs4VRY-17" value="Asignaturas" style="ellipse;whiteSpace=wrap;html=1;fontFamily=Verdana;fontSize=19;" parent="oP2a7q_iQrm_6OJs4VRY-20" vertex="1">
                    <mxGeometry x="660" y="390" width="170" height="80" as="geometry"/>
                </mxCell>
                <mxCell id="oP2a7q_iQrm_6OJs4VRY-18" value="Calificación" style="ellipse;whiteSpace=wrap;html=1;fontFamily=Verdana;fontSize=19;" parent="oP2a7q_iQrm_6OJs4VRY-20" vertex="1">
                    <mxGeometry x="391" y="90" width="170" height="80" as="geometry"/>
                </mxCell>
                <mxCell id="oP2a7q_iQrm_6OJs4VRY-19" value="Notificación" style="ellipse;whiteSpace=wrap;html=1;fontFamily=Verdana;fontSize=19;" parent="oP2a7q_iQrm_6OJs4VRY-20" vertex="1">
                    <mxGeometry x="391" y="250" width="170" height="80" as="geometry"/>
                </mxCell>
                <mxCell id="oP2a7q_iQrm_6OJs4VRY-23" value="" style="group" parent="oP2a7q_iQrm_6OJs4VRY-20" vertex="1" connectable="0">
                    <mxGeometry y="390" width="168" height="172" as="geometry"/>
                </mxCell>
                <mxCell id="oP2a7q_iQrm_6OJs4VRY-5" value="" style="shape=image;verticalLabelPosition=bottom;labelBackgroundColor=#ffffff;verticalAlign=top;aspect=fixed;imageAspect=0;image=data:image/png,iVBORw0KGgoAAAANSUhEUgAAAgAAAAIACAYAAAD0eNT6AAAABHNCSVQICAgIfAhkiAAAAAlwSFlzAAAOxAAADsQBlSsOGwAAABl0RVh0U29mdHdhcmUAd3d3Lmlua3NjYXBlLm9yZ5vuPBoAACAASURBVHic7J13eFRV2sB/d0rKpPce0gmEDtIRELsUXRv2rqurrusqup9lLWvbtSvWtbAWFBEFRERAkN5BCIFAEkIghIQkpPeZ+f64gAhJSO6908/vee4Tcmfue14mc+95z3veAgKBQCAQCAQCgUAgEAgEAoFAIBAIBAKBQCAQCAQCgUAgEAgEAoFAIBAIXAPJ0QoIHI4PEAZ4A8HI3wkDEHDsdRNgBpoBC1B97HzDsXPNQPmxnwKBQBlGIAIIR77n/I+dDwRqAStQg3wv1gJtQD1Qd+ynQNBthAHgvvgBSUDysSMJiEGe7COO/Qw79j4tqAVKkY2B40cZUATkAwVAIdCi0XgCgasRAPQH+gBpQOqxIw4IVSG3HjiIfP8Vn/TzMLAH2IV8fwoEf0AYAK5PNNAX+cHSF8hEnvAjHKlUB5iRH1THDYJdwFZgG3DUgXoJBFqjA7KAscAoYBDypK9zkD6FyPdb9kk/dyJ78gQeijAAXItY5IfJcKAf8qTvjBO9EvYhGwLHDYKNyCsYgcBViAYuBi4BxqFuVW8P2oDNwCpgBbAaqHCoRgK7IgwA5+X4CmI0MBJ54k92qEb2Zzfyg2kFsBzZrSkQOBM9gKuBK4DBOG6FrwVWIIff77lFCM+cQGA3IoEbgC+R99Ct4vjDkQd8DFwLhCj8jAUCtQQB9yCvnC04/r6w1dEKLAXuRzZ0BAKBhuiQ3fnPILu8zTj+pneVoxX4BfgbciCVQGBrRgCfIAfdOfr774hjK/AUMFDl5ygQeCwS8qT/GnAAx9/U7nJkAy8gB1sJBFqhAy4D1uL477gzHbuAR5AziwQCwRnIQrae9+L4m9fdj5xjn7XwDAiU4gXciBwp7+jvszMfZmAxcOWxz0wgEBwjHHgQ2Vp29I3qiYcZOXjwNuR9W4HgTAQCDyEHnDr6++tqRxnwKtC725+6QOAmSMA5wEygCcfflOKQj0bkAEKxRSBoDyNysJsIvlV/WIAfgQnd+gsIBC5MEPAwwsXvCsdq4BqEy1IgcymQi+O/l+54bAGuQzawBAK3owey26sGx99s4ujeUQI8jQhk8lSGIG8ROfp76AlHEfLWSmBX/jACgbMzGDlfvxXH31ziUHc0AtMRuc6eQhTwP0TarSOOauQAXWEICFySkcASHH8jiUP7owX4CLlmu8A9uQm53K2jv2uefpQD05A7HwochCgF3HXOQnYXX+RoRbQm2ORDoMmLIF9vJECv1+HvLW+P+3oZMFsstLRZAKhpasZqsdJmsVLX1MLR+iZqm9yuwZ8Z+Ap4HjmlUOD6JAHvA+c7WI8O8TIYCPH3x8doxMtgwGgw4G000tzaCkBjczMWq5Wm1lYsFguNLS3UNTU5WGvVlCDfZx8gOoXaHWEAnJn+yBP/ZFzs8wrw8SIhLJCEsADiQwNJDAsgLjSAUD9fQvx8Thx6nbr/VpvZwtH6phPHkdoGDlbWcrCylqKKGg5WyD+bWts0+p/ZDQswA3gC0YfAVdEB9wHPoV3ra8VIkkR0cDBxYWEkhIURGxpKVHAwwSYTfj4+3ZbXZjZT09DA0fp6qhsaqDr2s7SqiuLKSkqrqjBbLDb4n2jOfuTn7GfITYoEdsClJjQ7kwC8BEzFyT8nk1FPz0h/ekUF0Cs+it7JifSMDSXY1P0Hii0pra4nt6SSnOJydh+qYPehSnJLKmk1mx2t2ploQK7c+BKir7orkYa81z/CUQpIkkRSRAQZsbH0jIsjPSYGk7e33cY3WywcrqriUGUlxRUVHKioIK+kxJk9B1uR+6HsdLQinoBTT2wOwoS8N/UwTrg/pZMk0iP8GBIfwpCEYAbFB9MjxBedJCH5hyOZgh2tYrdoM1vIKz3Kpn2H2VhQwsaCEorKaxytVkeUIa9SPkCsUpyda4F3cUCwmZfBQK/4eAYkJzMgKYlAk3M9RqxASWUluYcOsbekhD3FxRytr3e0WidTjVxDYLOjFXF3hAHwOxJybvhLQLyDdTmBBGTFBDI2JZyzEoMZEh9CoI/h9Pf5hSL5OXv78a5RVtPApoIS1uUdYvmuIgrKqhyt0qnkAvciB4MKnAs/4C3gFnsOKgHpsbGMysxkcGoqvl6uVWLiSE0N2UVFbCkoILe42Bm2DYqAPgiPm00RBoDMAOAdHOgqPJlgXyNjUsIYnxrBuLRwwv06f5hIpmAk/3A7aWd/9pdXsyyniGU5+1mzt5jGFqdZfH+JXOq51NGKCAD5Pp4JZNprQH8fH8b07s3YrCwiAt0js62huZkd+/ezZd8+svfvp+lYEKIDeBJ41lGDewKebgD4AP9ELlBx+rLajkT4e3NJrygu6R3NkIRg9FIX/zTefuiCPKeOTXOrmZW5B5i/NY+ft+9zhgyEKuAfyNsCDl82eTD3AK8g39M2JzY0lPP692d4RgZeBoc+OmxKm9nMzgMHWLVrF78VFtrbM7APSLHngJ6GJxsAY5Ef2hmOUiDM5MWFmVFMyopmWI+Qrk/6xzF4owuJA0lnGwWdnOZWM8t27eeHLXkszi6kvtlhKxWAdcCfgd8cqYQH4o3svbvVHoMlRkQwacgQBqakeNzDs6axkXW5uazctYtDlZX2GjYKOfZGYAM87TsMcs3+fwN34ID/v16SGJcWznWDEhiXFo5BaQqeTo8UkoCkd9/VR3dobGljwbZ8vlyzkw35JY5SoxX4F3Jes9PsU7gxMcC32GHrLiE8nMuGDaNfUpJHPjRPpeDwYVbt3s26PXtO1CmwEX0QGQE2w9O+y+cg53XbPcgvLsiXqwfEMXVgHNEB6r2UUnAskpdzRRc7C3sPH+XLNTv5dmMulXUOSXfagJzKtMcRg3sIQ4E5QJwtBwkNCOCyYcMYkZGB1F0PnQdQ39TEsuxsftmxg+qGBlsMkYK8FSCwAZ7yjfZCDiZ5CLkwiN0YlRzGHcN7MC41HJ1GDxDJFILkH6aJLHempc3Mgm35vL90G9kHj9h7+AbkVNJ3kTOvBNpxI3JVP5vt93sbjUwcMoTz+vfHqNfbahi3oc1sZm1uLj//9puW2wOVQDji/rEZnmAAZAJfYMc+8AadxOSsGO4YnkRWdIC2wo0+8r6/R/zptGP1noO8/8s2luXsx2rfx8ki5P3pQ3Yd1T2RkBvJPGnLQQanpjJ19GhC/f1tOYxbYgV27N/Pwi1b2HNI9Vf+XeTgToGNcPdZ5M/IkcF28ZX7exm4fnACtwxNJCbQBosTSUIXmgh60VpbKXtKKvngl23M3phLm9luEc3lyD3Rf7bXgG6IAXnVb7NgvxB/f24eP54+iYm2GsKj2HngAN+tW8e+su7H8Hkbjda/XHTRM4GDBv3rqaeeEvE0NsJdDQA/4L/IZXxtjq9Rz41DErh7ZDKhJtsVAHHFSn/OSlF5Da/9tJE5G3MxW+ziErAgVxH8FyJdsLv4AbOAi201wMiePblmzBi7lun1BKzAtoICvlu/nuIubg1IksRtEyYwomdPgO06q/X2W955Z6Mt9fRU3NEASEMODupr64G89DquG5zAvaOSifC38YPD6I0uOME9/2IOJL+sild/3MD8LXlY7LM3sBA5QLDCHoO5ARHAD8hBf5oT6OvLjePGMTBFpJvbEqvVyro9e5i3cSNl1dUdvs/Xy4sbxo1jWHr6yafbgHearNbH/vLOO3W21tWTcLfpZBJy8w+bLpN1ksQV/WN5cGwasbZw9Z+GhBSagGRwrfKirsTuQxU8N3cty3L222O4/cAVwCZ7DObCJCKXW04/0xuVMCglhRvHjSPA19cW4gXtYLZY2LB3LytycthXWnqiEVhEYCBD0tI4t18/gv3ab9pohXzgrtunT19qR5XdGncxAHTIFf2ewMb/p7MSQnjqgkz6xtiv7KeI+rcfy3L28/Sc1eSVHrX1UM3AXchpqYLTSQWWAj20FuxjNHL92LHHXcwCB2G2WGhubUWv0+Ft7HpckwTftLa23nPXBx+U21A9j8AdDAAT8DlwmS0HiQvy4R8TMpiUFWPfD02nRwrrgeSh1f4cQZvZwqcrdvDqwo3UNDbberjnkA1Xker0O5nIK3/Nc/xjQkL4y0UXERMSorVogX0pxWqddts77/yvg9djgJuRa7/EIxfp2gXMB74+9rvH4+oGQCQwDxhmqwEMOol7RqVw7+hkfAz2zweWAqOQfDROJRR0icq6Jp6bu4ZZ63fZOnXwK+TudU7bpN2O9AUWI5eA1ZQhaWnccs45+HRjtSlweubprNa7bnnnncPHfpeQ6288BXS0t7MXuA85RdejcWUDIBP4EUi21QAD44J4aWIWmZEOmoCNPuiC4137r+QGrMo9yCNfLWd/ecfBSxqwFrgUz657PhB58td0v0un03HFiBGcP2CAuJXckypJkh659e23P0BOFb2zC9dYkTPFHgJqbKmcM+OqJa7GIedU26QNnsmo5//O7ckLE7OItHV0fyfogqJEzr8TkBgeyLUje9NqtrBtf5mtsgUSgMuRJ0BP3Nvsg7znr2lf60CTifsvvphhGRli8ndffIBJOkmauLu4eFIXr5GAwcC1QDZQYCvlnBlXvCeuRN7zt0lI/MikUF6e1If4YMdGBkvefkge1ObXVdh+4Ah/+2wJuSU264ZWDlwIbLbVAE5IBvArEK2l0PiwMB6YOJEQUdHP7WlubeXRzz6jprFRyeVWZM/Bw4BHpRm6mgfgWuTJX/NlsUEn8dcxqfxnUh+CfB2/6tYFxYDO1f487k9UkB9Th/emzWJh877DtojcMyF/z9fjGU1QEoFf0LhBV6/4eB6cPFmk+HkI2woLWb17t9LLJWAIv3sDPOG+A1zLALgbec9Gc53Twv347NrBTO4T4xQdvyRvfyRTkKPVEHSAQa9jTM8EBvSIZFXuQRpaNA8o9kL2dG1Czn12V+KB5WgcxzOyZ0/+fMEF3UotE7g2K3NyyC8tVSsmGLlIVxSwCjlV161xFQPgIeB1bNDJ74bBCbx/5QBig5xkpSCBLjAKdAZHayI4A8kRwVwxNJO80qMUlFVpLd4IXIXcC13x0saJCUVe+WdoKXTikCFcc/bZ6HUibdaTWJObS3GFJsU1JeAs4CagCMjRQqiz4goGwD+B59E4XsHPS8/rU/px96hkjHrneVjIq39R799VMHkbmTI4A1+jgTV7i7VOFzQgBwYWADs0lexYfIGf0LBDp06n48Zx47hw4ECXDGwSqGPXwYMUKmg61AkByF64s4A1gOYWvjPg7AbAE8gNVDQlKdTEF9cNYVSy81XX0wVGgl6s/l0JSYKzUmMYkR7HspwirbcEdMAUYA/y/qSrowdmAudrJdCg13PX+eeLyn4ezNH6en4rLLSF6Azkip1GZEPAbItBHIUzGwB/A17UWuh5GZF8du1g4pzF5X8SkpcJyU9UKHNV4kMDmDQojQ35JZRW12spWgdMBrYiFzFxVSTgA+TWyJpg1Ou558ILRTMfDyfE35+lO3bYKkXXiJx6Phk5JsdtUgad1QC4E3gLDd3+EvDg2DSev6Q33gbncfmfjOQfLhr+uDiBvt5cMTSTw1V17CzWNJ1fD/wJuWCQq0YpPwH8XSthXgYD919yCX17aN4uQOBi+BiNNDQ1aREI2BnRyEGCI5G9cYc7f7smDABuBa4HLgJ6A5VoVCvEGbfLrkdukKLZLO2l1/HK5D5M6ePEefV6L3RhiY7WQqAhbyzaxMsL1msdF1AHXIDsjnQlrkZ2/WvyzPExGvnrxIlkxMZqIU7gBrSazbw4Z47WsQAdYQG+BB5H7u6pNf2A6cDoDl5fiFzOWFWWkLN5AC4DvkBDvUJ8jcy4ZjAT0iO0EmkTJL9QJKM9WgsL7MXwtFiSI4JZunM/ZotmVoAXcivhUuR0pWQgBTmqPga5Klozcg91Z2E48D0a1e/w9fLi75MnkxbjxAa9wO7odTqGpqdTVF5OWbVNy3aDbMj2Q05PjwJyAS1aiBqQjYrP6Tw9Nh15sbwcKFY6mDN5AIYjpwVptjmfFGri06mDSAlrv7+006DToQtLAtHxzy1Zn3eI2z5cSFWDXXv9VAMlyL0FipAfUCcf9spxTgLWoVFzHy+DgQcnTyZdTP6CDrACv2zfzuy1a2lps5sdbAa+Az5E7mRpUSDjYuAFZMOiq5Qjl9FWtPfhLAZACvLeZqRWAvvFBDLj2sGEmZx/T10yBSH5O7eHQqCOvNKjXDd9PsVHax2tCsgPp0LkQkMbjx2b0b4Mqi+wGrnJj2oMej1/veQSeickaCFO4OaUVlXx8dKl5B22x1b9HzgIzEJOdV1J510+w5HTDW9BTjlUwhfI3oBu4wwGQCjyfqZmOTxnJYQw45pB+Hu7RjqdLjQBDI5rOiSwDwcra5n69lwKj9jcPakEM3K/9F+R3YrLUR9o9AlyT3bV6HQ6Odo/2WbNPwVuiMVqZdHWrXy/YQNtZodk8LUgF/LaCVQA9cjlviOA/shdbdXOw2bk4MA93b3Q0QaAN3JXv7O1Ejg6OYz/Xj0Qk9HZwhvaRzL6IoXEOVoNgZ0oq2lg6ltz2XPYZs2EtMKKHOm8BFiAvJJp6cb1fwbe1UIRSZK449xzGZahadFAgQdxqLKS/y5Zwv4jRxytiq34GLituxc52gD4DIWui/aYkB7Be1cMcNo0v/aQAqOQfAIcrYbAjlTWNXHdO/PYccClHkY1yMb6fGAenVdGG47sSdBk/+36sWMZ36ePFqIEHozFYmHRtm3M27jRnrEB9qIFOTCwqDsXOXKZ/AAwTSthF2VG8d6VA/ByorK+Z0TSyZX/nKABkcB++HoZmDwojdV7ijmsbcEgW+KN7Ga8DLlI12BkL0EBf8w4iET2GmhS0eriQYO4ePBgLUQJPBxJkkiPiWFoejoHKyqoqHWKeByt0COnzv/UnYscNfOMBJah0Qrh7JQwPp46yLUmf0DyCUQK1CzuUeBi1DQ2c/Vbc13NE3AqjcAPyN68pcjbBeO0EDw0PZ07zz/f4W5KgfthBdbm5vL1qlXUNdk1O8eW1CJ32Kzp6gWOuLfikCOONUkLGpkUyqfXDMLH4Bp7/icjBccheTlfSWKB/ThS28AVr39HvvbdBB1BIxql8faKj+eBiRMx6F3vvha4DtUNDXyxYgWb892m6/Z9wNtdfbO97y4v4EfkyEfVDI4PZsY1g10m4O8P6PXo/CMcH4UhcCh+3kYu7J/Cou37qG50+fbjmhT6iQ0N5e+TJ+Nt1EScQNAhPkYjZ6WlkR4Tw/4jR6htbHS0SmpJAd7p6pvtPXO+iVzPXDVZ0YF8ef0Ql0n1OxXJNxjJ2+RoNQROQICPF+f1SeaHbfnUN2vaSdDl8Pfx4eFLLyXIJO4Ngf2ICApiXFYWQX5+FJSWunKQYDhy7Y0uNSyypwFwKfCKFoKiA3z46oYhhPk5f5GfjpACIpB0rmm8CLQnyOTNqIw4vtu0h1azkiJiro9ep+P+Sy6hR4QoiiWwP5IkkRwZydisLAAKy8ps1V3Q1vgA33TljfYyAGKRmxeoNuv9vQ18dcMQkkOdvLxvJ0h6I5JfmHD/C/5AZKAfvePCmb9lr9YNhFyCG8aOZUhqqqPVEHg4RoOB3gkJDElNpbqhgcNHtSjxb1fSkGtwnHE/wx4GgA74FrlesSoMOomPrh7E4Phg9Vo5EMkUhOQlXJyC00mJDCbU35dfdtqiwZjzMq5PHyafpbQSqkCgPQG+vpyVlsag1FRqGxtdyRAwIJcj3nCmN9rDAHgQuSqYap69qDeTsqK1EOVQhPtf0BkDekRS39zK5n12r2HuEBLCw7n7ggvQ61wrjVfgGQSaTJyVlsbwnj2RgOLKSswWp9+miwbeP9ObbG0ADEDuAa56trtjeBL3jU5Rr5GDkfQGJP9wR6shcHLGZCawvaiMfc7ZN0AzTN7eTLv0UgJ8RTqswLnx8/Ghb48ejO/Th0CTiZqGBmoaGhytVkfEAHOBTlcRtjQAjMhViWLVChrRI5TXLu2Lzg0q5kk+AUjerhu/ILAPkiRxTu8eLNiWT3WD+vRAvU5HRGAgDS3dKedvWyTg7gsvJCVKk5IgAoFdMBoMpEZHM65PHwanpuLr5UVDc7NmKYSSJJEWE0NCeDilVarqgzRzhsqAtpxRHweeVSskJtCHBbePINyFI/5PRgqOFfv/gi6zq7iCya/OprFFfVrS9WefTWZcHMWVlRysqKC4spKC0lKq6h1TjviiQYO4YsQIh4wtEGhNeU0NO4qKKCgtpbCsjJKjR7F2MZo31N+f5KgoMmJjGZySQoi/P5V1dUz73/+6LKMdioFE5Pbf7WIrAyAT2IZcP1wxXnods246i0Fxrh30dwJJhy48WdT+F3SL7zbt4b4Zi1XLCfD15aHJkzF5//G2rKitJb+0lPzDh9lbUmKXYig9Y2N5aMoUdGLfX+CmNLe2UlFbS3ltLUfr6mho/t2T52UwEOTnR5DJRGRQUId1L16ZN4+cAwfUqDEKWNPRi7bYAtABc5ArEqni2Yt6cUFPN3IPevuJzn+CbtMrNoyjDc1s21+qSk5LWxv1zc1kJST84bzJ25u40FD6JiZydlYWveLiCDSZaGlrs4kx4O/jw0NTpuDrrWp9IBA4NQa9ngBfX6KCg0mKjCQ9JubEkRIVRWxoKGEBAfh0UvFSArYUdKmmT0fUAIs6etEWBsDdxw5VXJQZxWPn9tRAHedB8gtGMoiHnqD7jM6IZ3F2IUdq1QUdlVRWkhQZSVhA+4aoBASZTKRGRzM8I4Oh6ekEmUw0t7ZqFvB024QJpES7fjaPQGBrooKD+WXHDtrMZqUi4oA3OnpRawMgHnn1r2qWiw7wYca1g/F1xRr/nSD5hyPp3Ov/JLAPep2OYWmxfL1uN20qU5CKyssZnpHRpaBaH6ORHhERDE1PZ0haGn4+Phytr6dRYTDh6F69uES09xUIuoRep6O0upqi8nKlIoKQ++8UtytfqdQOeBcYokaATpJ4/8oB9Izw10gl50DSG+TqfwKBQsL8fQn09eaXHHVFghqam/EyGEiO7F4ral8vL1KiohjVqxdp0dFYgfLaWixdNEgy4+K46/zzxb6/QNAN/Ly9Wb17txoRVUC7QURaGgAjgNdQGVh4x/Akrh+ccOY3uhiSt79I/xOopn9iFDsOHKFAZfvgoiNHGJya2un+Y0dIQIi/P30SExmVmUmInx8VdXXUN7efrigB5/fvzy0TJmAU7X0Fgm4RGhDAipwcmloVNwqLRm7Edxpa3Y0SMBt5C0AxvaICmH55f/Q694uS1/kFg9j/F6hEkmB0zwS+Wb9bVWqg2WKhpqGBfj16qNLHoNeTEB7OyMxM+vXoga+XFwa9Hh8vrxNbB7eccw7DMjJEpT+BQAESUFZdTWFZmVIRocgF+SpOfUGrerQ3AEPVCNBLEv+emIWX3k0fEkZR6UygDeEBvjx9+WjuVZka+FthIaN69SJJg+57ekmid0ICvRPcz3snEDiaAUlJLM/OViPiPGDPqSe1mG39gRfUCrltWA/6xwZpoI7zIRm8QNT+F2jIpUMyOK9PkioZVmD+xo1o0XjQyyC+3wKBregVH69ou+4kzm3vpBYGwDRUlvtNDPHl7+PSNFDFSfESq3+B9jx75dn4eat6KFBUXs7OoiLVuhjVPZwEAkEnGPR6+qjbrjuHdjz+ag2AMOCvKmXw/MVZbpfydzKScP8LbEB8aADTJg5TLefHLVtUdTeTJAmD2N8XCGzKgKQkNZcH0s42vdq7dtoxwYr5U79Yzk5x8/Q4o6j9L7ANt4ztR/8e3UvnO5UjNTVszMtTfL1ep0MS5a0FApvSr0cPtSm05596Qo20COAeFdfj56XnH+dkqBHh/Bi8QayOBDZCJ0k8e8UY1e0llu7YodgLIFL7BALb4+fjQ0ZMjBoR5516Qs3M9BhyAKBi/jIqhagA906Nk7x8HK2CwM0ZlBTNpYPVGdJV9fWKvQB6YQAIBHahv7ptgKHIlQFPoNQAiAXuVKNJQrAvdwxPUiPCNTAIA0Bgex6bMhKTl7pAPKVeAGEACAT2ITMuTs3lBuSCfSdQagA8CqiKbHvs3J54G9zfNS4Z3dvDIXAOooP9uOe8QapkKPECSMg1AAQCge1JCA/Hz0fVolK1ARAK3KpGg2GJIVzcy43a/HaEJIFepEcJ7MOfJwwgNkRdD43lO3disXa9MoBY/QsE9kOSJHrGqsq6V20A3AOoKmr/0Ph0NZe7DPLqX6yOBPbBx2jgrxeo6sVFRW0t2d2oCyBW/wKBfempbhtgOCe1AOiuAeAN/EXN6GNTwxmWGKJGhOsg9v8Fdubq4b1IDFeVmcuvO3d2+b2is59AYF9UZgIEAJnHf+nu3Xs9cmchxTw41o0r/p2CJJr/COyMQa/jgQvPUiWjqLycfV1sPCLy/wUC+xIfHo63usqbA4//ozsGgAT8Tc2o52VEMjDOPev9t4tReAAE9ufys3qSGhmsSsaKnJwuvU8SHgCBwK7oJIke6hp4KTIAzgeylI4o4VmrfxEAKHAUep3E3y5W1ZyTnAMHqG5oOOP7xPpfILA/yVGqgugVGQB3qBlxXFo4WdEBakS4FmL/X+BAJg1MUxULYLFaWbfntO6hpyEMAIHA/qSoMwAGcOzW7aoBEAVMVjPinZ5Q9OckRP6/wJHodRJ3jB+gSsaGvXtVNQkSCAS2IUndFkAIxzr4dtUAuBlQ7M/Oig5kVLKbN/w5BWEACBzN1cMzCTYp90TVNDaeMSWw6xUDBAKBVoQFBqoNBMyErhkAEnCbmpE8bfUPYNV7OVoFgYdj8jJy45g+qmSo6RIoEAhsgwTEhqhKp++yATAeUFy5JzrAh0lZqjIHXQ8JJBEAKHACbh3bD2+j8mp9e0pKOg0GlLpRNVAgEGhHXJgqr3qXDQBVq/+bzkrAoPOwUCHJAJJIjxI4nvAAXyYNVJ59Y7Va2VpQ0OHrIkJAIHAMcaGhai7v8PFpgAAAIABJREFUkgFgAqYoHcGgk7iqv6qyhS6JZBDuf4HzcO1Ixdm7AGzqzAAQHgCBwCHEqjMAkuHMBsBEVNT9Pzcjkgh/DwyGE+5/gRMxNDWG9Gjl+4WlVVUcrKho9zWrMAAEAocQEaiq5Hc8cMYyXlerGeHaQfFqLnddhAdA4GRMHdFb1fXb9+9v97xIExQIHENoQICaOhzeQFRnBkAAcJFS6bGBPoxJ8azUvxMID4DAybhqWCZeBuXBgL8VFrab8icMAIHAMRj1egJNJjUienRmAEwCfJVKnjow3mNbhYoYAIGzEeLnwwX9khVfX1lXx6HKytPOWywWUQtAIHAQKrcBOjUArlIj+dI+qloWui6STs4CEAicjMuGZKi6vqNtgLa2NlVyBQKBMsLUGQCRHRkAvsjNfxTRNyaQpFBVrgmXRdIbRYF0gVMyrlciAb7KvVMdVQVsE9sAAoFDCPX3V3N5WEcGwDhUuP89rvDPSYgKgAJnxcug58J+KYqvL6uupqK29rTzbWazGrUEAoFC/LxVZdmFd2QAKA7+k4CJvTzXAJAMwv0vcF7UFAUCyD106LRzbW1tIg5AIHAA/j6qus526AFQbAAMjAsmPlix88DlESWABc7M2ZkJhPgpf2jsLi4+7ZwVaBVxAAKB3VFpALTrAUg7dijiol6q+hS7PiIAUODEGPQ6zu+rPBsgr6SE1nZc/sIAEAjsj58NPACKV/8A49PC1Vzu+uiFASBwbsb3TlR8bavZzL6ystPOt7S1iaqAAoGdUekBMLVnACiO/o8L8iEjQlVUouujV15sRSCwB2dnJmA4YxHQjsk/fPi0c1artV3PgEAgsB0+RlVbzj6nPgUkYKRSaeNSI9Qo4/pIEkjCABA4N4G+3gxKVr5Vt6+0tN3zzS0timUKBILuo1e34PQ+1V/dG1DcYsjj3f864f53Jppa29h5sJy9pUfx8zISG+LPgB5R6D2tPXU7jO/dgw35JYquLSovp7WtDeMpGS+tZjNmiwW9Cu9Cexytq2NfWRm1jY2YvL3pERFBZFCQpmMIBK6IUWMDYJRyRXSMTFbVntD1EQaAU1Df3MpbP2/mfyuzqWls/sNrof4+3HXOQO4Y319VbXxXZ3zvRF6av07RtWaLhcIjR0iPOb3aZ1Nrq9rc5BMUlJYyZ906dh88eFqaYXJUFJcPH06veA9tOCYQgFpj2/vUqxUbAAPjgvD38uwJUBIBgA5n35EqJr08m7d/3nza5A9QWdfEC/PWMvmVbymvbXSAhs5BVlwEof7KA4gK2wkEBHkbwKJBMOCS337jhTlz2NXO5A/yNsQrc+cyZ906UYNA4LEYVHoANDMAhiQEq1HEPRAGgEPZceAIl746hz2HT29acyrZB49wzfS5tLR5ZuCaJMGQZOX9Og5UVHT4WmPz6YZXd1ibm8vMVauwnKHEsBVYsHkz7/30Ey0iDVHggeh1OjWV5y0nGwDRQKpSSWclhChXw10QNQAcxvq8Q1z11vdU1HV9Vb+ruII3ftpkQ62cmyEpyit2Higv7/C15rY2xW2Caxsb+WLFim5dsyk/n39//z1V9fWKxhQIXBWzum6cLScbAEOUSpGAQfHCAyA8AI7hp98KuO6d+dQ2dj8K/b1ftlJSVWcDrZyfs1KUewDqmpo4WtfB52a1Uq/QC7AiJ4dGBdkE+0pLeWbWrHZLFQsE7orKPhx/MAD6KZWSGu5HiK8ogSvpPDeozBFYrfDmok3c+dFPNLUqcwE3t5p5beFGjTVzDfonRuJtVP6dLerEC9DW1qbILb+jg5bDXaG6oYGX585l0bZtIi5A4BGorL2hjQEwNFG4/wEQBoDdaGkz88DnS/j3D+tVB519tXYX2w8c0Ugz18HLoKd/YqTi6w8dPdrp6w3Nzd2eiEurqhTrA2CxWJi1ejWvzptHdUODKlkCgbOjpQHQV6mUfjEiJxcAjfOfBe2TX1bFxJdn8+2GXE3kWaxW/vXdak1kuRpqDIDDZzAALBYL9U1N3ZLZ1NqqWJ+TyTlwgKe//pqcAwc0kScQOCNabQH4ABlKpWRGeXj5X5ADIRAeAFsze0MuF/97FjnFHbuflbBmbzELfyvQVKYr0CtOefGu0urqM76npbW1y1sBWncVrG5o4NV585i1Zo3aB6VA4JQoiZc5iarjBkBvQFEEm06S6BkRoEYJt0BCh5p8DEHn1Da28NfPlvDAZ0uob9ZmlXgqz36/muZWz5ooMmPDFF9bWVdHcxcm7IampjOm9IE8+Wu9d28FFm3dytOzZlHQQQljgcBVqWtUVcuk4rgBoNj9nxjii5+XWPkK97/t+HVXEec8P1Mzl39HFJXX8NbPnpUW2DM6VHFpZKvVSlkX9uwtVit1jY1nnNxr1T3MOuVQZSUvfPst36xZI5oWCdyGGnX3TOXxWStdqYRekWL1D2CVhAGgNbVNLUybuYzr351vt1S96Yu3svtQx0Vu3A1vo56USOUpvGU1NV16X5vFQsMZ4gFsHbRnsVr5aetWnvrqK/La6WgoELgaKo3mEx6AJKUSMqOEAQCIDACNmb8lj/HPfcmXa3KwZ5v5VrOZh2cuw2zxnEQytdsAXaW5tZWmTvYsK2trFevRHQ5XVfHinDl8/uuvNKisWigQOBKVBsAJD0CyUglpYX5qFHAbJNEGWBP2Hani2unzuPuTRRyuckxlt62FpXzy63aHjO0I0qKUp/F2d9JuaG6mpYNI/zOlFWqJ1WplWXY2//fFF6zatUvUDRC4JCq9ZkdUewDig33VKOA+iC0AVdQ2tfDCvLVMeP4rVux2fOrWv39Yz4FK+6xIHU1CWKDiaysUrNrrmprajfYvsaMBcJzaxkY++eUXXvz2204LGwkEzkhZFzJxOqFQh5wCqLgmaIIwAGREEKAi2iwWPl+9kzHPfM70xVucpjlPQ0srj3613NFq2IWEUOXbeN3ZAjiZ2qam01LzHBmln3f4MM/OmsXMlSvFtoDAZVBrABiAHihMYPM16gnz81KjgPsgPADdwmqFJTsLeWHeWvaUnLl7nyP4dVcRM9fmcM2I3o5Wxaao8QDUNDZisVrRSd18hFit1DY0EGAyYdDrqW5ooLyLAYW2wmK1smT7dtbt2cPEIUMY36eP2narAoHNaG5tpVpdA6x9BlS6/0Xqu4wkDIAucXzif+3HDS5Rfvepb1cxIi2OpAj3rXYZE+yPQa+jzdz9Dn7WYyl+gSZT968Fahsa8Pf1Jbe4uNvX24q6pia+WrWKJdu386fhwxmani6ecwKno7S6Wk3syhGgTgcorgWaECTc/8exiiyATrFa4ecd+7j4P7O45f0Fdpn8fX28kbq7Mj2F+uZW7vvfYtoUtrd1BfQ6idgQ5dU81eQiW5H34bfu26dYhq0or6nhg59/5tlZs9h18KCj1REI/kBXanB0QiGADlCcAxQd6K1GAfdC5UTjrlitsGi7PPHf+sGP7LDTqr93WgobvvuMu665XLWsrYWlvO7mHQNjgpUbAGoL+JgtFrKLilTJsCX7jxzh5blzeW3+fA6IQEGBk7Bf3XdxD8jlfxUbAKEmsf8vaJ/jK/7XFm4k+6B9Xf23XjmFt/75CCZfH16cdj/zl66guLRMlcy3ft7MsLRYxvRM0EhL5yLUz0fxtSqrkZF76JBLBN5lFxWx88ABBiYnM3HIEHpERDhaJYEHU1im6pn2G8geAMXdQEJ8jWoUcDOEBwBkl/mMldmM+9cX3Pbhj3ad/IMDA/jy9ef56MV/YvKVJ7SgAH+mP/Ooatlmi5X7Zix2WG0CWxOiwgDobse/U9mcn6/q+s9e+RepifGqZHQVq9XKloICnp01izd++IF8UVFQ4ACsyJ4pFWwHlQaA8AD8jqfvABSV1/D8vLUMe/J/PDbrV/LL1PV17y4XnD2CHQtncc2kC097bcq547jy4vNUj1Fe28idHy10y1ryof7K43nUtPCtaWhgp4qWvX0y0rj+0ovZsfAbHrnrZnR2Sse1Atv37+f5b7/lhTlz+K2w0C7jCgQAR6qr1Rre20A2AEKVSggWHoATWPHMLIBVuQe57cMfGf3M57yzeAtVDepWg90lwM/EB889zsKP3yY+OqrD97355DRCg9VH8m8pLOX5uWtVy3E21HgA1BgAa3JzMasIsLxk/GhADvh8cdr9LP7fuyQnxCmWp4S8khLeXLCAF+fMcepYBoH7oNL9XwaUgsogwBCTMACO40kOgMaWNr5YvZMJz89k6ttzWbR9HxZ7Fuw/xpRzx7Fz0bfcMfVPZ4z2j44I4/1/PabJuB8u+42v1+3SRJazoMYAaFZoADS1tLB2zx7F4wL86YJz/vD7OSPOInvhNzx0x412z+HfW1LCa/Pn89TXX7MyJ4eWLrRKFgiUkHvokJrLfzv+j+OVABUR5C0MgBN4wB7A1sJSHv1qOYMe/4RHvlpOroMK+CTGRvP9+6/y/fuvkhDT8ar/VK646FxuvnyyJjo8+tWvrM9XdRM6FUG+yjN6Gjtp8NMZK3fvVhX8l5Hcg6H9+5x23uTrw38efYCN33/OWf2yFMtXyoHycj5dtoyHZ8xg9tq1dmtyJPAcclRsmwFrjv/DACjeyPc2eKbbuz2skuSWXoAjNQ18uzGXWet2s+ewYyv2eRmN3H/zNfzz/jvxV1B4BuDNfz7Myo1byC9Sl9fdajZz539/Yv5DV5CoopKes+BtUL5aVrLSrW1qYkVOjuIxAa6dfHq8x8kM6N2TtbNnMP3zr3nytXeprrVPS+nj1DU1sXDLFhZt3crAlBQm9O1Lzzj7bk8I3I/ymhq1JYBXHv+HAVBs+hv1wgA4jjtN/21mC0uyC/l63S6W5RQ5RRGcieeM4ZX/e5CM5B6q5AT4+fHZq//i7KtvO60WfXepqGvk5vcXMOeBywg2KXehOwNeRuUGgFnB57hg8+ZOWwOfCYNezy1XTDnj+/R6HfffdA1XX3I+//jPW8yY8wMWO3+fLVYrm/Pz2ZyfT3xYGBP69WN4RgZeBoNd9RC4B2qCZoFWYN3xX3So8AAY9e4z6anF6gYfRfbBIzw1ZxWDH/+U2/+7kMXZhQ6f/HunpfDTJ9OZ/+Ebqif/44wY2I/H771dE1l7Siq56b0FNLa49n6vGmPe3M34j/zDh9miMvVv8rljSYyN7vL7o8LD+Pilp1g7+1OGDTh928BeHKyoYMayZTz4ySfMWLaMvSUlohWxoFuodP9vBk7kMqvyAHiJLYATuKoHIKe4nB+25jN/Sx77jtg3da8zUhLiePL+O7l+yiXobeBpeuwvt/PL2o2s2LBFtazN+w5z50c/8cmdF2NwUa+Ymi2A7kTxN7W28vWaNaonvftumqrouqH9+7B29gxmzJnP/738NiVljqns19jSwoqcHFbk5BAZFMTIzExG9uxJWIDyzowC96elrU1tpsnKk39RFQPg5aIPO9vgOgbA7kMVzN+Sxw9b8+yer38m4qOjePze27n1yikYbegiNej1fP3mSwyZcp3qKoEAy3L288DnS3nzxnO73xnPCfCykwHw/fr1HFXYQvg4wwb0YdywIYqvlySJmy+fzJUXncdrn3zBfz6YQU2d4wo8lVVX8/369czdsIGesbGMysxkcGoq3kYRZC34I9lFRarSboGlJ/+iygAQMQAn4eQP/T0llczfKk/6ew8fdbQ6pxEVHsY/7r6Fu665Ah9v+xSYio4IY/b0/zD2mttpUXdTAfD9pj2YvAy8OHWcyxkBRhUGQFf31Nfm5rK5oEDxOMd54t47VMsA8DP58vhfbueuay7nmbc+4P0vv6XVgal7VquV3cXF7C4u5vMVKxicmsqozEwyYmNd7vsksA0b8/LUXF4HLD/5hAEVS1fxlXRezBYrm/aVsDR7P4uz9znlpA8QGhzEw3fcyH03TsXPZP/uksMH9uWNJx/m7iee10Tel2tyaGkz88p1E9DrXOcOsbWm+YcPM3ej+oZKQ7IyuXjcaA00+p2I0BDe+ucj/PXma3nslbf55sclWB1Q1+JkmltbWbN7N2t27ybIZGJQSgqDU1PpGRcnjAEPpaWtTW3FyZ+BP+TdijBUN6K2sYXlu4pYnF3Ispz9HK23b1W+7hATGc59N07lnuuvIihAeSc6LfjztVewcftOPv5mribyZm/IpaXNwps3nYvBTqVpnZnS6mpmLF+uquLfcV556F7VLZ47Iq1HAl+/+RKP3bOXp998n+9+XuZwQwCguqGBZdnZLMvOJtDXl4EpKQxJTSUjNtbuxY4EjmPH/v2Ki24d44dTTwgDwMUpPFLN4uxClmQXsj7/EG1mx6fsdUZWeip/v/0Grp18Id5eztNLYvrT/2D77r1s2qEuN/0487bspcVs5p2bz1e1v+7qlNfU8OHixYqLBZ3MFRPGcvbg/hpo1Tn9MtP59p2X2b7buQwBkDsv/rpzJ7/u3Imvlxd9EhPpn5REvx498PNx7VRUQeeorJthAX489aQEygNyi564QI1CboUuPBl0tn/Q1zW3sm5vMStzD/LrriLySp3TtX8q54w4i7/ffgMXjR1lsxWcWg6UlDLi8ps0CQo8zrDUWD68/SJC/Z374VxQVsXZz36h6NqIwECmXXrpaeeP1NTw/s8/U93QoFY9/Hx9yP76Y5KSEsDPT7W87uCMhsCp6CSJ9JgY+iclkZWYSHyY4grvAiekrLqa//viCzXfvzXAqFNPCg+Ak9NmtrC58DCrcg+yKvcgWwtLHZ6b31UMej1XXnweD91xI4OyMh2tzhlJiInip0/fZszVt1FVo0351vX5h5j0ymxm/PkS0qJCNJHpCuw/coRPfvmFehWlfk/m2T/fSlJM1/P+teS4RyB7Tx4vf/gZM+f/pEnQqJZYrFZyDx2Sa8SvWUOQyURWYiJZCQn0Tkgg0Nf+8TUC7ViRk6PW+GzXuhceAI3QygNgtcppeqv2HGRl7gHW5x2ivtm5HjZnIjoijFuumMJd11xOj7gYR6vTbVZu3Mr5N91NU7N6t/VxgkzevH/rhYzuaZ++9d1FSw/AtsJCZq1erVnb5KFZmaz5+G30Oh14G+3uATiV4tIy3vhkJh989a3dywsrQQISwsPpFR9Pz7g40mNiMHkr7/0gsC9tZjN///RT6pS3/20BYoGKU18QBoBGKDUA2iwWdh4oZ0NBCevzD7GpoITy2kYbaGhbJEliwsih3Dn1T1x6/nib5vDbg+9+XsaV9z6MWcOYCoNexz8mj+DO8QOcLmtUCwPAbLEwf9MmVu/erZle/iZftnz+PukJxwwnJzAAjlNTV88HM7/ljU9ncvBwqaPV6TKSJJEQFkZGXByZsbGkx8biL+IHnJY1u3fz0dKlZ35jx3wPXNbeC8IA0IiuGgANLa1s2VfKhoISNuQfYsu+UhpaXGuFfzIRoSHcfPlk7rzmT6T1SHC0Opry3pezNUsPPJmxmQm8fsO5RAQqa2hkC9QaADeMHctXq1dzqFLbhlEznnqUGy85//cTTmQAHKeltZVZCxYz/fOvWbd1h6PV6TYSEB0SQkpUlHxERxMfGopOZLA4HKvVyhMzZ1JyVFWs1+XAnPZeEAaARnRkAByorGVbYSlbCg+zseAw2QeOuMwefkdIksTYoYO569rLuez88U4Vza81/3z9PZ556wPN5YYH+PLKdROYkKVNfwO1qDEAjHo9VlDdXOlUbpl0IR8/Oe2PJ53QADiZLTt38+4X3/DlvIU0NDpvGu6Z8DYa6RERQUpUFMmRkSSEhxMZFOS0Abzuyqa8PN5dtEiNiEpk93+7wTjCANAIXXgyR+qb+W1/GduLythWVMZv+8uoqHM9d35H9ExJ4ropF3H9lItJTvCctqb3Pf0Sb//va83lShJcNzKLRycPd3g3QTUGgC0Y3rc3y997DW+vU8rhOrkBcJyqmlo+/XY+7305m9yCQkerowneRiMJYWEkhIeTGBFBYng4cWFhGEUtAptgBZ75+muKylX1q/gPMK2jF4UBoJCKhhZ2ldayo6SG3w5V89vheoqPOn9AUHeJCA1h6sQLuG7KxQ7touZIrFYr9z/zb5sYAQAhfj5MmziMa0dmOax6oDMZAPGREWyY8Q4x4e2ksrmIAXAcq9XK0jUb+OCrOcxb8ivNGtRDcCZ0kkR4YCAxISHEhoYSHRxMbGgoMSEh+LqxZ9Ae/FZYyJsLFqgRYQbSgMKO3iAMgDPQZrGy90gdu8pqyS2rY+fhGnaX1VFWp016kzPi4+3F5HPHcv2US7hw7EiXD+jTAqvVygPPvsybM2babIw+8RE8e+UYzkqxf+aEsxgAYUGBrPjwDXp31PrZxQyAkzlaXcNXPyxixpz5rN+W7Wh1bE6QyURMSAgRQUFEBAYSHhh44qdIS+wci9XKM7NmcUDd6r/D4L/jCAPgGG0WK/srG8irqKegop7cI3XsLq1lb3k9rU5eXU8LfLy9uGDMSK646FwmTTjb4eV5nRGr1cqj/36Tf38ww2ZjSBJMyErirxcMYWBSlM3GORVnMAD8Tb4sfecVhnZWM8KFDYCT2Z1fyIw58/n8+x9dKoNAK7yNxhPGQKi/P0EmEyGn/PTkzISVOTl8umyZWjETgF86e4PHGQDl9S0UVNSTX1HPvooG8irqKKhooOhoA20W56zyZStMvj5cPG40l184gYnnjMHf5DxR6c7Mqx99zkMvvGbzqnAj0uO4aUwfLuyXgsHGnTcdbQAE+plY8PoLjB7Qt/M3uokBcByz2cLSNev533cLmLdkObX16qsmugsGvZ4gk+mEMeDn43Pip5+39x/Omby98TYYMBoMLr/10Nzayj8+/1xtBc0dQL8zvcntDIDy+haKqxs5WNXIgepGDlY1cbC6kQNV8rnGVm0jlV2NAD8Tl4wfw+UXTuDicaMx+Xqula2Gz75bwG2PPm2X9rGRgSYmD05n0sA0BiVF26SGgCMNgOAAf3568yWG9el15je7mQFwMk3NLSxauYbZC5cwf+kKlygy5Kx4HTMGTF5eGA0GjHr9H3olGHQ6vIx/DDA1eXkhSRLeBgORwcH0TUwkPDDQ3qrz3fr1/LBpk1ox1wJn3K90agOgzWKlrrmNmqY26lraqG9po7KhlcO1TVTWt1BW10JZXTOVDS2U1jVTXtdCU5tnT/Dt0SMuhonnjGHSOWMZN3ywW6ft2ZPFq9Zx1X2PaFY2uCtEBpo4OzOBszMTOCerh2bZA44yABKiIlnw+vP0TUvp2gVubACcTHNLC4tXrWf2wiXMW/orR6trHK2SxyEBg9PSmDpqFCH+9tkSLa+p4YmZM2lRt7DYBfRFDgLsFKcwAA7XNjFnewmrCys4VNNEVUMrdS1tNLe5/967LdDpdJzVrzeTJ4zlkvFj6N8rw9EquS25BYVMvvNv7Nm33+5jG/Q6Lj+rJ49OHk5EgLrtG0cYAIMy05n/6vPERnSjcY2HGAAn09LaytI1G/j2p6UsWLaSw0dOq+gqsCFBJhMPTJpEYni4TcexAq/Om0fOgQNqRV0HfNmVNzrUALAC767exxsr8z3eNa+W8JBgzh01jPPHjODicaOIai+FSmATjlbXcNV9j7Bk9XqHjB8V5Mfnd0+iV5zyv7m9DYBrL5zAB//3d/y6uwXlgQbAyVitVrbm5LJw+Wp+XL6K9b/t0LRctaB9Qvz9+edVVxFgw+yFVbt28ckvncbsdYVcIIsurP7BwQbAIz/sZObWg6pkeCreXl6MGtyf80YP57zRwxnYu6co3elAzGYLT7/5Ps+98xEWB1R6jAg0sfjRqYQHKHtA2csA8DIaePVv9/CXK09vH9wlPNwAOJWKqmp+XrmWhb+u5qdf13Ck0jXag7si4/v04fqxY20iu7qhgce//JIG9d0zu7z6BwcaAJ9tPsBjP+Yovt7TkCSJrPRUzhs9jPNGD2fs0MEigM8JWbJ6Pdc/+Dil5fZ3014xtCev33CuomvtYQD0S09hxlOPMiAjTbkQYQB0iMViYdOOHBatXMvydZtYt22HS5cjdja8DAbeuO02vGxQF2X6woVsKShQK2YTMAzo8grEIQZAfYuZUW+toLLBvapiaYlOp6NPRipjhw5m7LDBnD10EBGhntNP3pUpKSvn1kee4qcVa+w6rkGvY+OzNymKB7ClAWA0GHjo+qt46s6b8TKqfHgKA6DLtLS2snH7Tn5dv5kVG7ewetNv1KlLLfN4Hpw8mawEbZuercjJYYb6nH8rcDawqjsXOaTE27K8I2LyPwW9Xkf/zAzOHjqIccOHMGbIQEKDgxytlkABMZHh/PjxW3wyex4PPveK3dK52swWVuce5NIhzhP0OW7wAN6edj9ZKUmOVsXj8DIaGTV4AKMGD+D/uI02s5nNO3bx64bNrNiwhZUbt1BTV+9oNV2KilptM36KKyuZuXKlFqK+oZuTPzjIANh4oMoRwzoVQQH+DBvQl+ED+jJ8YF9GDuovqu+5EZIkceuVUzh/zHDueuw5flze7XtTEUUVzpEulpYQx7N/voWrzxsvOsg5CQa9nmED+jBsQB+m3XkTZrOF3QX72LQj58SxLSeXpmaxOOuIllbtWre3tLXx3qJFalP+AJqAR5Rc6BADoKLefevot4dOp6NXajLDB/ZlxMB+DB/Yl16pySJozwOIj45iwUdvMm/Jr/z9+VfJ2686xadTGlpsX5ioMxKiInn8tuu5ZdKFooeEk6PX68hKTyUrPZWb/jQJgNa2NrL35LFpew4bd+SwaXsO2Xvy7FLwytP4YsUKDlVWaiHqZTpp+NMZDrlD3b3kbkpCHIP79mZQViaD+/RiaP8+YnXv4Uw+dywXjh3J6598yXPT/+t2rtd+6Sk8dP3VTD1/vJj4XRijwcDA3pkM7J3JHVP/BMgVCn/btYcduXvZXVDIzj357MrfR9GhwzYvh+2uLMvOZtWuXVqI2g08p/RicaeqQKeTSIuPY1BmBoN7ZTCoZzqD+va6to8QAAAgAElEQVQiODba0aoJnBAvo5Fpd97ELVdM5tWPPmf6Z1+7Re331PhYtn3xoXD1uyk+3l4ntg5Opq6hgd35heTkFZCzt4Bd+fvI2VvAvoPFojZBJ+QcOMCX2uz7W4DbkbcAFCEMgC4SHhxEv/QUslKS6JOafOII9Dsl4lptlLPA7YkIDeGFh+/j4Ttu5I1PZ/LmjJl2LSesNXqdTkz+Hoi/ycSQvr0Z0rf3H843NbewZ99+9heXsO9gMfuLS/5weHKtgtKqKt5dtEirWiHvAKvVCBCz1SlEhASTkRhP7+QeZKX+PtlHiRQ8gcaEBgfx9AN/5uE7b+Sr+Yt4f+a3bNohamMIXBsfby/6ZabTLzO93dcbGpsoLD5E4cFDJ4yCokOHKSkrp/xoFeVHj3Kk8qjbeREampt5Y8ECLYr9AOwH/k+tEI80AAL9TKQnxpOeEE9GYjwZPeLJSEwgPSGOYLFXL7Az/iYTt199GbdffRlbdu5m2ouvs3TNBker5TLU1tdj0Bvw9fF2tCoeRXVtHT7eXt1uLmby9aF3Wgq9z9AAqvxoFeWVVSeMgrKKo5RVVP7hXFVNLc0trdTU1tHQ1ERzSytVNbVOF5vQ0tbGGwsWUFqlSQacBbgVUO02dEsDIDI0mMSoKBKjI0mMjiQpNprE6CgSo+TfI0KCHa2iQNAug7IymTByqDAAzsDR6hpe+egzPv5mLiVl5QD0Skvm/puu4dYrp5zW6lWgDYdKj/DcOx/x9Q+LqKiqRqfTMbB3Tx6640auuvg8TTObwkOCCVf4rG5pbaW+oZHa+gaaW1qoqaunobGJ5pYWXvv4C7ul5QK0mc1MX7iQvJISrUS+CKhuGgAuaAD0S0+hd3ISkaHBRAQHExMeSmRoCBHBQUSHhxIVGoKvt1gJCATuyq/rN/Onex6isqr6D+d35e3j7iee580ZM/nxo7dIio91kIbuyawFi7l52pM0Nv3uwrZYLGzO3sU1f/0H0z/7mrnvv+YUBcy8jEa8goyEBAWe9toPv2gSgNclLFYrHy5eTHZRkVYi1wL/1EqYyxkAT95+I5efc7aj1RAIBA5gwYq1XPH3xzstVrMrbx+jrrqFZV98QEZyDztq5758+NUc/vzE850Gr63atI3RV9/K8i8/JDIs1I7aOSdWYMayZWzKz9dKZBVwLaBZUQZRiUYgELgEB0rLuPGxf3WpUt2h0iNcfs/Df1itCpSxOXsX9z71Upci13fl7ePGh55wuj14e2OxWvn0l1+0yvUH2Z64A4UFfzpCGAACgcAluO6J56is7nqp4+w9eTz+6nQbauT+NLe0MPX+R7tVAnfRirW8/dnXNtTKubFYrXyydKmWkz/I+/6ztRQIwgAQCAQuwA8r17Jy645uXzf9s1kcPFxqA408g/9+/b2i8tXPvPmBR3YebDObefenn1iTm6ul2EXAE1oKPI4wAAQCgdPz9If/U3Rdc0sLL773icbaeAZqPrvyo1W894XmC1anpLqhgcKyMnYeOMAbCxawpaBAS/G7gKsAs5ZCj+NyQYDOSHVd/e/7Y0YDtLNXVtfQCMipLSJf2XY0t7RQcbSa5pYWggMDzvh+L6MRP5OvHTQTKGXbnjw27VK+ovrsuwW8/I8H8fHuXr66p/PTijWqvCf/nfU9D91xo4YaOR4LkHf4MNsLC9lbUkJxZSX1TYor8Z6Jo8AUwGYtPoUB0E0qa2r5z2dfMXvpCvYVl2DuZklHvV4n9+e++zYuOHuEjbT0PNZvy+aZtz5gyer1ilp2ehmN9EzpwQ2XXcK9N0wVRpoT8e0vK1RdX1NXz5LV65l4zhiNNPIMvv1pqarrcwsKyd6TR5+MNI00cjzfrF6NxT4Bjs3An4C9thxEbAF0g+z8ffS/5nZe/HQmeQeKuz35A5jNFlZs2MKFt/yFK++dJnpvq8RisfDXZ/7D8Mtv5MflqxT3625pbWVHbh7TXnyDkVfezOEjFRprKlDKvBVrVMuYu2S5ekU8CIvFokm+/NzFv2qgjfNgp8nfAtwALLf1QMIA6CJ1DY1M+ttjHCw7opnM2QuXcMHN94hUJYVYLBaueeAfvDljpqZyt+XkcuW9D3t8KpMz0NjczM78QtVyRI+F7pG3/wBHu5Fx0RHic1fEA8A39hhIGABd5J3ZcyksOay53BUbtvDgc69oLtcT+PcHM5i1YLFNZK/atI35S9W5ngXq2b63QJGn7VRy9hYo9g55Itty9mgjR0XshofyJPCWvQYTBkAXmb9yrc1kv/flbDHZdJMtO3fz5Gvv2nSM+Sr3ngXqydm3XxM5La2t7C3UrByr25OTp00k+/7iEo9MB1TIEew4+YMwALrMwVLtXP/t8X8vv61Vj2iP4PFXptPapllFzHYpOqS9x0fQPcpPqfevhoqj2slydyq06VqH1WoVn3vXiQAWAnZrSSsMgC5i6zbB2XvyVEfdegrrtu5g4a+rbT5OaDuNRAT2pbquXjNZVTWqu6d6DFp+VuJz7xbDge8Bu6QhCQOgi4wb3N/mY/x31vc2H8Md+O+s7+wyzrjhQ+wyjqBjjtfP0IIaDY0Jd6euXnzuDmQC8Jw9BhIGQBf56zWX27zN8C9rNlChocvTHWkzm5m7eLnNx4mPjuKGSy+x+TiCzvH10a54jyj41HW0rIMhPndF/A0Yb+tBhAHQRZJiovnkn9Mw6PU2G6PNbGb+UvfKm9WalRu3UH5Um/3JjgjwMzHr7Zcw+frYdBzBmQny027rLTjQblurLk9Xqmg6QpYHoQM+xsbxAMIA6AZXnzeeZe+9ytCsTJuNsXG7yJvtDFt+PjqdjgvPHsn6OZ8xYmA/m40j6DohGk7aQQFiIuoqmhoANo6fcmOSgHtsOYAoBdxNRg/oy/pP32F/SSn7DpXQZpZ7NDz53ies1aDoxbYckTfbGVt37tZETlJ8LB8+/3uDLW8vLzKSE4kKD9NEvkAb0hPiNZGj0+lIT0rQRJYnkJ6UqImciNAQQoODNJHloTyInBqoXVDGSQgDQCE9YqLoERN14veH33hfE7k7cm1a+tnlyd6Tr4mco9U1nDtqmCayBLZjYM80JElSXZUxNTGeAD8/jbRyfwb0ztBITk9N5HgwUcBtwNu2EC62ADRiv0Y9x2vrG0R/gE4oP3pUEznVtXVU19ZpIktgO0ICA0iMjlQtR0xE3SMrPRVvL/UBmAN6ecbnHmAyMXpAX84dOphR/fsQom3cwx1aCvt/9s47uopqi8Pf7ek91NB7710pooAUBQtgR+yoYMcuKvbeOyqgokiV6gMBQZDeQk9CSUgIIaQnt8/7YwARSZs5tyXzrZVXyMw+e93cmbPPOXv/9vloOwCCKCgSp3aVm19ArXhtK/piiKwpLiwuJlI7n/R7hvbpwWe/LlRlY9iASwR5Uz0wm0wM7N2dJavXqbJTlT93nU7H6Mv78+CYUfRq1wa9Xnfudy63m792JvL6dz+ydP0mtUO1BxoBh9UauhBtB0AAdofzXC6ACPIKNOGMi+FwOoXujhQJrDHX8BzXXtZX1f0mo5ERKm1UR64dMlDV/TXjYrmkaydB3vgXMRHhrPjkbWa9+hx9OrT91+QPYNDr6dupPUs+eJ0vnn5ERPXYVWoNXAwtABCAyWgQWh4Y5GG9gUDFaDBgMIj7ygYHaWV+gUC/zh1IqBGv+P5hAy7VEtEUMPKK/qpq+G8YMVjo8+ovBFssrPr8PS7rVrHg5u5Rw3n7oXvVDusRUZKq99fxATqdjojQEGH2tLrZi6PT6YgI0+rCqxtGg4Enx92g+P6nJ4wX6E31ISYqkvtvHq3oXovZzKN33iLYI//g5Xtvp32zxpW658HR19CnQ1s1w3pkK0ULAAQhqtZVr9cTLjCYqGqICo6MBgNhIdrnHCjcefUwRcmAIwb2pVv7Nh7wqHrw2F23Knof3T32GhJq1Sz/wgAj2GLhjquHVvo+vV7HA6NHqhk6DlCfDXsBWgAgiMZ164ixU68uer32ZymNxvXqirFTPwGdTlf+hRp+gcVsYsZLT2OoxLMRExXJx1Oe9KBXVZ/4mGi+fu2FSt3TtEE9pj56v4c88i2DenZVvNgbcWlvQtWpiwqPZLWZRhAdmzcRY0crVyoTUZ+PqDpnDe/Rt1N7Xrz/jgpdazIamfHOy9SvU8vDXlV9Rg+7gjvHjKrQtWEhsox2RFjV1FxopOL7FBocROeWzdQMrwUA/krHFk2F2OnQSpuYykJUXXGHltrnHIg8c9etvP/cY2XukoWGBDP/i3cZ2r/qlqB5my9feZbH7rq1zGtioyL5ffqndGrtOal0X1MnPk7V/a0bNVRzu/BoVgsABHF59y6V2p4sjSF9ewvwpupyxSU9hGQWD+nXR4A3Gr5g0rgb+WPmF1zSteO//l2v1zN2+GC2LfxRm/wFo9PpeOvJh5j3+Tu0u2CxYzaZuPfG69i55Ocq30PDbFInndOigSo56ghVg18ETQhIEDVjormkYzvWbNup2EbDhDp0adtKoFdVj5pxsfTp0pE/N21TbKNRvbp00o5aApp+Pbqw9udpHDpyjP3JRzAaDXRq3VIT0PIwI68YwNWX9yfxYDIpqWmEBAXRtV1roiOFz01VEpXNrbQAwJ8ZO+gyVQHA2OGDtcS0CjB2+GBVAYD2OVcdmjWsL6xxjUbF0Ol0tGvR9D87ARrlE6GuH4XwAEA7AhDIuBGDqatQsCTIYubBW8cK9qhqcvt1V1OnpvLP+YFbxgj2SENDQ6N8zEZVa271zRkuQAsABBJkNvOEQsGSe2+8TvGkVt0Isph54u7bFN17303Xa5+zhoaGTyi22dTcLlwjXgsABDNhzCh6d+5QqXsa16vLlEmqpSKrFfffMqbSn3OT+gm8MPEeD3mkoaGhUTbZuflqbhfevlQLAARjNBj44b1XKpwUYzGbmfXh61pXukpiNBiY+e5U7XPW0NAIGFS2jRceAGhJgB6gYUId/pz1NVfe/iBpZfzBw0JC+PWTtzSpUoU0qle3wp/znE/fomu71l70TgPA7XLjdDjO/DiR3G7cbjeSW0KnA51ej06nx2DUYzSZMJpMGEwmtBzNqonb5cJZXILTasNlteF2nvlOuFzo0KEz6NEZDOiNRozBQfJPkAVdFVFH3ZtyRM3taYLcOIcWAHiIts2b8tfsb3n89ff4delK3G73v34/6NJevPP0w7RtrmXSqqFt86as+2UaT7zxvvY5+wlulwtriRV7cQkOu6PS9+t0eszBZizBwViCgkALBgIat8OFLS8PW14BjuISkKRK3a/T6zGHh2KJjMAcEY5OH7hfiM17D6i5PUmUH2fRAgAPUr9OLX7+8A32JqWw/M8NZJ7KJioinIG9u2urfoE0qFv73Oe8bM16TmafJjoygoG9u2urfi/idrkoLizCWlhU2Xf8v5AkN7ZiK7ZiK3qDgZDwUIJCQ7VdgQDD7XRRkpVNSfZpJLfyL4TkdmPLK8CWV4DeaCQ4Pobg2JiACwT2Hj7KiezTakwcEuXLWbQAwAu0btqY1k0r1z5So/Jon7PvKCkspigvH0nNzH8R3C4Xhbn5WItKCI+NwmgxCbWv4RmsObkUHs9EumBHTi1up5OijJNYs3OIaJCAUV1zHa+yeN3fam53ACmCXDlH1ThY0dDQ8Blul5vC3Dzhk//5OB0OcjNPYSss9tgYGgKQoCA1g4LUDOGT//m47A5yko5gPZ3rsTFE88PSFWpu3wpYBblyDi0A0NDQUIUnJ/4Lx8k/mY29oMgr42lUnsKME1hzvDQpSxIFx09gU1da5xU2Ju5j56FkNSbWivLlfLQAQENDI3CQJPKPpuF2VD65UMOzWLNzKDmV491BJYmCtHRcVrt3x60kb06fpdbEnyL8uBAtB6AsJHA6z5Qw2Z1y+ZLkPpfQotPp0et16PV6DGYTRpMRo8puURqeR5IkXFYbzhIrzrOlSC73uS1LncGA3qD/pxQpKAiDxaxlo/sJkttNUeYpwhNq+9oVjTNIkkRR5infjO2WKMrMIqJBXZ+MXx6b9uxn/pp1akwUA6sEufMvtNnqAiRJwl5iw1ZixW6zVjp7VafXY4kMxxIZjik8TGs64ydIbhf2/EJsuQXYCwsr/XfVGwyYI8PlUqRwVQ09NARgy8snvG5tLSjzExyFRbidTp+Nb8svQHK7/U4vwOlyce9r7+FWUQUB/AZ45NxLCwDOIElgKy6mKL8Qt8ul3I7bjTUnD2tOHnqTkZD4WIJiogOuZKWqILndlGTnUJyVjeRU/nd1u1xYT+diPZ2LwWwipEYcQTFRAj3VqAySy43L4cBg1qoC/AGnVZXGvXokCZfN7ndVAe/9+CvbD6iu3vtZhC8XQwsAAIfNTv7pXFUT/8VwO5wUpmdSkp1DRP26fvflrOrYCwopSM0QvjJx2R0UpGVQcuo0EQ3qYrBYhNrXqCBeSj7UqACeS/ivMGq0BjzBrkMpvPjV92rNnAKWCnDnovjXfokPKC4oJDcrW/jkfz4umz3gSlYCnaKMk+QdTvXotqTTaiPn0JGAyEKuauj0OvQmbfXvLxgswjvVVt6HIN/7cJb0rGyGP/w0RSWqK/c+xQPlf2fxSQCgV3Eu7hJYWyqLlwjvsHhxJImCtAzvlchUY4oyT1Gcle2VsSS3m/zU49jyxX2PnCqCUWM1OWoyh4Vpx2p+hDk8xKfn76awEPQGQ4WudbqULwqMFRijoLiYYQ89RWrmScXjnMEGfKbWSFn45C9mNigf1i6o/Mdus1GYlyfEVmUoSDuBU31UqFEKtrwCijOzvDuoBAXH0nHZxJQi2RXo55+lIi+ogEcHIbXifO2FxnnoDAaC46N9Nn5ozYp/H2wqni9zObtOmadzGPTAE+w4KES2/3vghAhDpeGTAMBkUB652x1itnSLcgvAF0dGkkRRhurIUONiSPjss5VL08SMreoFZaz6p3phtWtiDNLyafyN0BrxmH3Qbju0Zjym0IpX5tjsygN1SxkBwO6kFHqOu5+/d+9VbP88CoEpIgyVhY8CAOXDltjUZ5uebU/qK+yFRbgFBTIa/+AoLsal4uFWiy2vUIj8aYlN+Q6R2Rc7AF7ciQ+JiiA4LsZ7A2pUHJ2OiAZ1MYYEe23I4NhoQiqx+gcoUVGxEFRKrsMPy1bQ546JHMkQtmB/C8gQZaw0fFIFEGpW/pLKzlOfcOX0g8nXabViNnk/Wq7K+PxoRZJwltgwhap7AWbnKD+aCg3yfmKcwWAgODyUEg9K9Op0OsJjIrH4YIWpUXF0ej3RTRpQdCLLo3k4Or2OsDq1FJXiqnm+osL+/f3bd/go97/5Aau27FBs8yIcA94WabA0fBIARAcrz9Y8lSvg3N4Pyof8rWSlKuAtTfqyUb8DkK3iOx4d6put8bDICMwWC0X5BThVHGFciE4HQaEhhESEodcbQHtu/B+djtDaNTCHh1GUmYWjSGwDp6DoKEJqxinWgMjOVZ6IHR0RDkBq5kne/WE2n8xegENspZEEjEdW//M4PgkAooKVr1JEBAAGg+/lD/yhbKaqYTD7/jMV4UNWtnI9dV8FAADmIAvmIAt2qw1rcQn2EqvioMxgMmIJDiI49ILsbskPCs41KoQpLISosAY4ioqwns6X1foUVrgYzCYskREExUarFn/KOq38+Vq/K5E3p89iwZq/RE/8Z/kIWOkJwxfDNzsAIcr/gKkCMryNFhN6vR63B9tVloXBbMKoBQDCMYfJpUiebENaFsbgICG16akqzhF9GQCc5WwgIEkSDpsdp92B0+HE6XQgudz/eu50Oh06vQ6DwYDBZMJoMmEKMmM0lvJqks7+h1YCGCiYQkMxhYYSLtXCXlSMs9iK01qCs8SO5HLidrnP7crq9Dq5F8d5fThMYcHCkj5tdjuZp04rvv+hdz4R4kcp7Aae8uQAF+KTAKBmuHLltKMZmarH1+l0BIeHek8D4AJCasTJe5saQtEZDATHRntNA+BCKpuMdDEKioo4pUIronak/5yR63S6c8HAhUhuSe6ToeQxcLmhOpQ7VjV0OsxhoZjD/puxL7ndoNN5vHfKsfQTPlv4lcNp4Bq8tPV/Fp9UASREKk+SOp6VJaQUMCQs9KIvJk9jiYrUNOQ9SEjNeNVJeEoIjovGcuZ8UA2HU9MV3xsebCZcRX6NN9HpFU7+AP75AtdQgU6v90rjtMOpxz0+hgIcwLWAEPGAyuCTACA+zIJFYb2y2y1x8Fiqeid0OiJiojF5sZmIOTyUiHpaC1NPotPriGxQD6MXgztLZARhtWsJsXUg5Yjie+vFRAjxwe9xaQGAhjL2q3i+PIQLuB1Y7YvBfRIA6IC6KnYBdh1KEeOHXkdUfCwhXigtCo6LIbJhPW3r3wvojAaimjbySr14SM14IurXEXYkvWu/8s5hCTHqdyACAi0A0FDI7gNeX2SXhRs54/8HXzngs3T4JrGhpGQrqxvelZTCjQwU44hOR2hkOKYgM8V5BTgEljCBnAkbWqsGJi+KY2icrROuiTkslKITWTitYjUCzBFhhNaKF65Ip+YF1bSm76RYvYoHG3cpwWqzk3T0GDl5BcTHRNOsYX0MKsTOyqKgqIjko2kUFBVTp2Y8TeoneGScqspu9a15ReEE7gCm+9IJnwUALWqE8b+DyqRTt+0/KNgbMFssmGucKWEqKsZutSkuYdLpdVgiIgiKjcIUGiLY08rhdLmYu+wPFq5cQ/KxVIpLrNSvU4sBPbtxy6hhxMeImTRSUo/zw4Il/LlpGyezTxMeGkqbZo25dshABl3aS8gYSjBHhGGOCMOeX4D1dB72wkLFGgx6gwFzZDjBMVEeUzvbtmef4ntb1K4mCnl+kgOwP/kIL330JQtXrqGouOTcv8dFR3HjVVfy9ITx1IyLFTLW+m07mfrx16xcv+lf/VDq1a7JnWNG8fD4mwivhBxudcThdKraYRNILnA9sMLXjuhQoYh/7LnBigdekJjBg/N2Kbo3PCSEnFULMXiw+5QkSdittjMlTHIZ00VbButkJTSD0YjRbMJkNmOyWNBFhoPRt5nKm3Ymcutjz5d6rhweGsLUR+9n4m03KB7D6XLx9Fsf8/63P5RaF9unS0dmvPMyjerVVTyOKCS3G3tB4ZlSJBtOq1VuGXzBU6DTye1mjUEWjMEWjCEhmMM9+4I9ejyDhn2HKb5/+eQxtElQVomQcjKXvi8r24lsXj+BA3O8vJCJigAfdp+bNnsB9z33apnNyWKjIpn9yZsM6NlN8TiSJPH8e5/xyqfflLkgaVI/gYVfvU/rpo0Vj1XV2bgjkZ7X3uprN5KAEcB+XzsCPtwBaFVT+XllQXExu5NS6Ni8qUCP/o1Op8MSHIQl+N9bvJJbQpLcgFy/XGrmqtPp0wDg97UbuPqeh7GW0aGuoKiYSS+9xfY9B/h86tNYKiliczo3j7GTnuJ/6/4u87q/tu6g+6hbWDPra5+/oHR6PZbICCyR/06Yk9wuJNeZWmSDwSetZv/aqlxO1KjXV58jAACnC8y+CQBmL/kfdz71Urk7hNm5eQy6dQJTH72fyfeMq/Q4hcXF3PbY88xd/ke51yYfS+Oym+5h8/yZ1Ktds9JjVQfUPF+C+B6YCKjXsxeEz0LoJnGhhJmVxx9/blO2e6AWnV6H3mBAbyinbMUzKlEV4lj6CcZMfLLMyf98vpuzkP433lWpEpmtifvoPuqWcif/s5zKyWXkPY+oasThSXR6A3qTEb3J6LM+839u2qb43tZ1Y7GYqlFtvI+er/TMLMY98UKFjwedLhdPvvkhtzz6LGknKq5hsnrjFnpec1uFJv+zZJ7K5s6nXqrw9dWNNZu2+mrobOQt/3H40eQPPgwADDodHepGKr5/2YZNAr3xAE7fJSq9+OEX5OZXTuTo7+27aXnFNTz44hulJqK53W42bN/F2IlP0m3kzSQfS6vUGIeOHOPjGbMqdU91Ytmf6xXf26VxNSsv9dHz9e60mRQraDo1c/4Smg8cycQX32T1xi04L3KcmJOXz0+/LWPI7fcz4Ma72XMoudLj/L52Axt3JFb6vqqO3eFg1YbN3h7WDcwAWgG/envwiuBTUfwuCVH8dViZatvqrTspsdkItnhfzKdCuN1nFMu8G2NZbXZmLVqu6F67w8HH03/m4+k/06Bubdq1aEqN2BhcLjeZp7LZmrhPlY42wPdzFvH4XbepslEV2ZuUwtHjyrt/dmkkRocgYHA6ZflYL5fVzv99leJ7S6w2Ppo+i4+mzyIsJIQGdWtTIzYGh9NBemYWx9JPXDQwqCwLVqymR8e2qu1UJdZt2UGB4KZEZSABS4EnkeV9/RafBwBKKbHZWLVlB0P79BDokWCcDjB4N0DZvne/ohXKhRw9nqFqQiqNPYeSycnLJzqymojWVJAlq9apur9b42oWAAA4nOBFIS+b3U6KICW5wuJi9hxKVrTKL499SYeF2wx0Fq9a641hHMBPyK18/XriP4vv0miBHg2iMatYIf+yYrU4ZzyBAMniynIyW3mjC2+hphlHVeWXJf9TfG+TGlHUja4mIkDn4+U8AKvN7ictp8umWLDmRaAjSRK/LvVoxd1W4BGgAXAbATL5g493AEJMBrrWi2L9EWUTwoI1f2GzO7B4cRVQKRxOrzcuC4Ra4CgBmvlViZTU42zZvVfx/X1b1RfoTQBhd4AXBbYiwkIJCQ4SssPmSerUiPe1C37Fhu27OJauvMPmRcgF1gKrkLf6/aKkTwk+3QEA6NdEeQe13IJClq7fKNAbwUiSfAzgRdo2b4Leh/XR5VEzLpYasdWoXK0CzPptmaqVZb+W9QR6E0C43V5NBtTpdPTv0dVr4yllQC//99GbzPpNWU7UecwDXgDGAO2BOOAq4D0CePIHPwgALmuqLlr9ZsFSQZ54CJt3A4AasTFc2q2TV8esDKMGDfDrAMXbSJLEt78uVHx/sNlI7+a+F1jyGX6ADxUAACAASURBVPaKlbqK4u4brvHqeJUlLjqKkVcM8LUbfoPVZueHharmiCPInfpeAn5B3t73Ly1qFfj8TdyiRhhN45RvWy9dv5FjJ5RJCnsFh0PeCfAiUybd45XWmpUlOMjCU/eN97UbfsWqv7eQdFR5d8vLWjcgxF+PwLyB3YEKMdNKc9XAfj6Vti6P1x5/kIgw/z8G9BZzlq3gdG6eGhM/480vmJfxeQAAcGVL5cpVLrebbxYsEeiNYCRJDgK8SP8eXXlmwh1eHbMifPnKc9SvUw2z1cvgi5/UlQdf2bGJIE8CFB8cA/z0/qu09aAKqVIm3nYDd44Z5Ws3/IovZ81Va2K2CD/8Fb8IAIa2UjcpfD53ISU2/1SYA8Dq3QAA4KWH7+OFifd4fdyLYTDo+ezlp7l55FBfu+JXHElLZ+6yiiu9XYjFZODytg3FORSoWL17DBATFcmfs77mkq4dvTpuWUy+ZxwfPP+4r93wKzbv2qNKXRNZt99n8oHewC8CgDa1wmmtojfAydO5zFBRRuVxnA6v9zDX6XRMmXQP7z37GEaD7yRiw0JCmPPp29x743U+88FfeW/aD6qEX4a0b0yYpRpv/5/F7v1jtujICH7//jOfB7UhwUF8++YUXn9iok/98Efe+kp1g6oqL1vqFwEAwPUd1CUyvTPzF1x+0ib0ovhoh+Kh229k3S/f+qQTX5tmTdgw5zuuvry/18f2d07l5DJt9gJVNkb3aCnIm0BHAh/0mAgOsjDjnal88/oLhHqxHPEsbZo1YePc6Yy79iqvj+3vHDpyjLnLV6o187MIX/wZvwkArmlfR5Uo0MFjacz0510Am93rq5Sz9OjYli3zZ3L32Gu8koEfHGTh+QfvZsuCH/zyrNQfeOOL7ygsVi5NWisqlEtaVNPyv4tRwcZXnmD89VdzYMU8bhmlvJVzZQgJDuKFifewdaH2fJXGix9+iUvdrutaoMo3VfCbACA62MSgFjVU2Xjp6+ml9qT3OZLk05dUTFQkX7zyLJvmzWBwX89kMRsNBm66eih7lv3Kiw/dS5Clcu2FqwsZJ0/x6cxfVNm4oVdrDD7qWuiXuN1eLwk8n7o1azD97ZdZ9eOXXHFJT4+MERIcxMTbbuDAinlMmXRPpdt3Vxf2JqUwa9EytWY+FuGLv+NTJcALGd+9AYv2KldsSjmewRdzF/HA6JECvRKI1QZBvm1e1KVtK5Z9+wk79h7gg+9+Yu7yleQXFqmyWSs+lrHDBzNp3I00TKgjyNOqy0sffalKTc5kMHDrJVqzl/9QYgMfT4r9e3Slf4+ubE3cx7e/LuDnRb9zKidXlc32LZtx88ihjLv2KuJjNBGt8nj6rY/Vrv7TANXlA4GADhU1jseeGyzQFZmrvvmbHenK6zajI8I5NHcGsf7abCY0BPxoZWy12Vmyeh0r129izcat7E1KKVeVzmgw0LltK/p278zgS3sxoGc3DF7uehio7DmUTMdhY1Ul/13foyXv3TxQoFeQcjKXvi//oOje5vUTODBHdcKVGMJDweQ/iZEOp5O/tu5g9d9bWbNxK3sOJZfZUdNg0NOgTm06t21F/x5dGdi7Oy2bNPSewwHOHxs2M/Bm1dVPzwCvCnDH7/GrHQCA27s3YNL8XYrvz8kv4MWvvufDxx4U6JVASkrAYsKrDQLKIMhi5prBl3HN4MsAOSBIOnqMlGPHyS8sOtdYJDw0hMjwMJo2qEejenUxGf3uqxMQPDjlTdUtX+/o316QN1WQ4hKINOIvz5fJaDy3K3CW3PwCjqSlU1hcQonVik6nIyIslPDQUJo0SMDsRwFMIOF0uZj00ltqzdiArwW4ExD43Vt8RJtavLPmEMdyShTb+HT2Am4dNoiurVoI9EwQ7jO5ABbfHgWURpDFTNvmTbXkIg8wc/4SVv29WZWNAa0b0DZBa/ZSKi63XBbox+fjURHhdGzth++mAOf9aT+QeDBJrZnpgB9Ly4rF7/ZtjXod9/dprMqGy+3mjpff8t+EwBKbzyoCNHxDdm4ej776rmo7Ewd3EeBNFafYWoXFWzUuxpG0dKZ8+IVaM3bgNQHuBAx+FwCArAmQEKWurnbXoRTenO6nOg5uN/h5S1ENsUx88U1OZitre32Wvi3r0a1xbUEeVWHcbp/pbmh4H7fbzZ1PvURRsfJd4zN8BhwW4FLA4JcBgFGv46FL1Wucv/jVdLbsOyDAIw9gtXldHVDDN3z760J+VNeRDJ0OHh/WQ5BH1YCSEvm4TaPK8/rn37Jy/Sa1ZoqoZqt/8NMAAOC6DnVoW1tdJr/D6eSGZ6ZSoEJwxaP4q18awthzKJkHpryu2s5VnZvRqaHyplnVDgko0Z6vqs7azdt54f3PRZj6AMgUYSiQ8NsAQK/T8eRlzVXbSUo9zv1vfCDAIw/gcPpEwlTDOxQVlzD6gcmqav4BzEYDk4d7RlymSmNzeL0Tp4b3yDqdww2TnlJdVQPkAG8LcCng8NsAAKBv41gua6o+43nGkv/xyez5AjzyACVW+cxSo8px/wuvszcpRbWd8f3aUz/OT3UtgKS048xfvc7XblycohIt4bYK4na7ufXR5zieKSRh/ynkIKDa4dcBAMCLQ1oSZFTfze6R9z5l7fbdAjwSjCTJLymNKsU3v8zn+7m/qbZTJzqMh6/sJsAjz+F2S9zywmvsFhDsCMft1p6vKsirn01j2Z/rRZjaAHwlwlAg4vcBQIPoEB64pJFqO3aHk6sfe5bEZD9M8nQ4tKOAKsTSNX9x33NihMRevPZSQgOg5W9hcQlXP/ocp3KVq3h6DLvdp30CNMQyfd4inn/vMxGmHMC9QLXdgvX7AADgvt6NaBoXqtpOTn4BQx6czNEMP8z1KCkB9WdZGj5m445Ern/gCSEaFJe3bciVHdRpYniTw+kZDH/4aQrVl2OJp6hEq7qpAixZvY47n3ypXLnyCvI+oFx2tgqgR4VkhrdO1kwGPe9e3Q6jgO5nx7NOMfjBJ/xvpSIBhUXaeWUAsz/5CMPvnCiiHpmokCDeGNtfvVMVRNS3bmPiPq6d/AJ2h5+JcEkSFGnPVyDz9/bdjH5wsiiBtyPAiyIMBTJ6ZO1jRdid3ouoO9aJZIJKhcCzHDiayrCHnvK/lYrLLQcBmoxZwHE88ySDx01Q3fntLFNH96VmpPpdr4piEzhh//73Fm5+/hUR2dlicbq00tsAZV/SYWHBNeACxiHX/ldr9IDiGiWbFwMAgEmXNqZNLTHZ0Jv27OeqR5/xP40Ah1OWCtYIGNJOZHLFrfdxLF15K+vzGdG5KSO7NBNiq6LYHGIn69kr1nDDM1P9T47b5gCrlg8QSOxLOsyg2yaQLW7XdiqwRpSxQEbVDoDN6d0I32TQ89m1HQiziOlhtGrLDvrcMZH0rGwh9oRRYtWSlgKEfUmH6XP97exLEpNcmhATzmtj+gmxVRmsHtiy/3XlGkY+9hxWf/sulxRr+gABwuZde+h3w52knRCWt7UWeFmUsUBHDyjeU/H2DgBAw5gQXh/WWpi93Ukp9LvnIVKOZwizKYTCYnk3QMNv2bB9F5eOGS9s5W82GvjyjiFEhQQJsVcZRO8AnGXJXxsZ/tDT5BX60W6rhPx8+dvuhMa/WLJ6HQNuupus08JK9LOBG5GPADRQeQRQaPfNA3RVm9rc3KWeMHtJqcfpc8eD7DyULMymEAqLtMoAP2XxqrVcfsu9IrcleW5UH9rXryHMXmUotHlulb5y8zb63PGgf1XfSBIUFGuVAX7K9HmLGHnPI6LO/EEO+24H0kQZrArogQKlN2cV+m5r78XBLeleP1qYvRPZp+l390P8/vcWYTZVI0mQXygnL2n4DV/8NIeR9zyiWuL3fMb2bMXtfdsJs1dZsvI9mwuzJ+UIPW+/n0179nt0nEohuaGgUAsC/AhJknjlk28Y9/gLovNHXgDUK3NVMQzAcKCFkpv7No6lVc1wsR5VEINexxUtarB0XyZ5VjHneTa7gx+WraDEZueyrp3R6dSXHQrB4QCTCfQBIdtQZSksLmb85Bd57bNpuAWWk3VtVIvP7xiCwYd/3+W7D7Mp2bPHYIUlJcxY8jvhoSH0bCvuGE8VkiQ/X2aT3HJRw2ecysll9AOT+eKnOaJNzwImiTZaFTAAA4AuSm7ulBBFt3riVuGVJdhkoHfDGOYlZmAXGMX/tTORnYeSGdSzG8EWizC7ipEAuxNMRi0I8BE79x1k0G0TWPX3ZqF268dG8NMDVxMebBZqt7LM23KQPWmnPD6Oy+Vm2YbNJKUeZ3CvbphNYhJ6VSFJYNeCAF+ydvN2Bt06ga2J+0SbXgNci3buf1H0gOIMppOFvi9Xa1kjnG/GdMJiFDsxLljzF62vH8dS9X2mxXB2u1I7DvA60+ctovf14ziQckSo3ZiwIGZMGEFceLBQu0o4kefdJL0flq2g3dg7+HO7nwixud2QX6Dl3HgZSZL44LsfGXjzPSIz/c+SDFwP+FkZiv9gAFoBw5TcXCPMwlVtaov1SAH1ooJpGhfG0n2ZQiV0ikqs/PT7SnLyC7mkYzvMJj/QZLc7wGCQfzQ8yomsbMY98QKvfjpNeD17qMXET/dfTau6sULtKuWj5Vs5XSQup6Ei5BYUMmPx75TYbfTt1AGDwce7WxJy5Y3BAL72pRqQknqcMQ9O5tOZs3GL74iaCVyGlvRXJgYgARir1MC4bvXFeaOCZvFh1AizsPJQllC7kiTLm/64fCUtG9anab26Qu0rwuGQtyqNfrB9WgWRJIlpsxcw8t5H2OaBpDWLycA3dw2lR9M6wm0rweFy8fL89ULzGiqKJEms25HI3D/+pHWjhjSqU8vrPlzgkBxk6/UgoAupxn9xuly8N+0HRj/4BAdSjnpiiLOT/wFPGK9KGAAjMEHJzQU2JxP6NMIgQKNfBO1qRxAXZmGV4CAAIK+wiB+WrmDXoWS6tm5BTIRvkh/P4XCCW5LPLTWEsXnXHq5/4Ak+nfkLVpv4Iy6LycC0u4bSr5V/BM4AyZm5fPunb1tlZ+Xm8f3i5Rw8lkqvdm0IDw3xqT/nhIJMBsA/3m9VgT82bGbUvY8wc/4ST6lEnp3893rCeFXDAOQBT6GgM6BbghGtaxMX6tsEpvPpUCfSY0EAwP4jx/hi3m/kFxXTpVUL3yYJulxnKgTMWvKSSo4ez2DSS28x8aW3SM0QI+xzIRaTgWl3D/OryR9gQ9JxFm33Dw2MxOTDfDH3N4pKrHRp2Zwgiw/fLU4nON1acqAA9icf4e5nXuaptz7iZPZpTw1zEhiINvlXGANyduTNgKLDyF4NY2geHybUKbV0qBNJ3chg/kjKwu2BXU2Xy836XXv4fM5CbHYHnVo0I8jsoxeVWzovL0A7t6ws6ZlZPPnWR9z+xBS27dkvqs3ofwgPMvPdvcO5tEWCR+yrYdGOZDYcOu5rN87hcDpZu2M3X81bBECH5k2w+Cr/xu2Wny+tAkcRycfSePjlt7nv+VfYK0guuxTOTv57PDlIVeNsWLsQGKHEwN09G/LsFYpkBDzOioNZTJizE6uHM+fDQ0K4/aohPHbzaOrV9I2SGwAWC4QGoW1Zlk/S0VQ++n4WX/08lxKrZ6tZ4sKDmXHfCNrVi/foOEq55bNFrNrrkbNYIUSEhjBuxBAev2UMCTV8+BkGB0FQkPZ4VYAdew/w7rSZ/LRwmTe6QiYhJ7If9PRAVY2zX+U3gCeUGOiSEMW823uI80gwG4/lcNcv28kt8XzzD7PJyPUD+3PXqGH07dTeN0JCRiOEBmtVAhfB6XKxZNU6vvhpDkvX/OWx1f75NIiLZOaE4TSKj/L4WEqQJGj35DfkFiuuAPgFGAp4fBvQYjYx+vL+3DlyGJd2bOe75yssRNsNuAg2u515v6/iix/nsHqj1xRV/wRGAR47V6jKnH2CbgZmKDFgNujZ88RA4XX4Ijl8upjxs7aRnO29WucWDeoxbvgQxgzqT6M6PiiVDLJAiLYbALKIz6xFy5k+bxHpmZ7JDbkYvZrV5cs7hhAd6v3mPhXl4InTXPbKT2pMdEQ+RpwPNBHiVAVo0aAe46+6ktFX9KdhbS9XDuiA4GB5x62aP16SJLFp5x5++m0ZM+cvFtobowL8CIxHRUfb6s7Zr29T4JBSI3PGdfepImBFyLc6uW/ODtameL/1b/c2Lbn2sr5c2bs77Zo29t7ABj2EhMjnl9UIl8vN5l17WLxqLb8uW8H+5CNe9+HG3q15dXQ/jH6el/Hj+r088dMqpbcXA5GAE4gBfgYuF+RahenaqgXXXtaXq/r1pnWjBt4b2GCQd9uqWTmuw+lk/dadLF61jtlL/8eRtHRvuyABrwLPnfnfGgo5P37NBBQdYD8+oBkPXuLFiU0hLknindVJfLIuxWffmoQa8Qzq2ZVLO7Wjd/u2NK/vhaQwkxFCqu6xgNvtJvFgMms3b2fdlu38b93f3l6JnMNiMvDydX25sbefaN2Xw8TpK5i7WXG59F/AJef9fyPwJvCwWr+UUjc+jst7dGFgt870atfaO7odJqMcaPt5sKcUp8vFjr0H+GvrDtZs3MrK9ZvI911752zkVf9CXzlQlTg/AJgPXK3EiL/nAVzIqqRTPDR/FzleyAsoj/joKDo2b0L7Zk1o26Qhzeol0KhObWrHxQg+49RBkFk+GgjQ80uXy03aiUwOpx3n4OFj7Np/kN0Hktix94AvX0jnaBgfyRfjh9AmIc7XrlQIl1ui0zPTOF2o+Pz/fS4+2d8EfApEKDUsiuiIcLq2ak7nls1pXj+BZvUSaN4ggZoxgncsdTqwmOVEwQAtGXQ4naRmZHI49TgHUo6wa/8h+efAIZFtedWwDrgRSPW1I1WF87+pk4HXlRgx6HRseaQ/sSH+owdQHun5Vh5ZsJv1R/wzdyTIbKZOfCxxUZHERkYQGRZGxBlxlNDgIHWyxAaDvG3ph+8pq81OiVWekHLyC8gvLCQrO4dTOblknDzlKfEQ1VzbvQVTr+vr86Y+lWFTcgbXvD9XjYlRyAuHi9EAmIYsyuJ3BFssxEdHUjsulvioKIKDzESFhaHT6QgLCcakZlvfYPDbY7fiEis2ux0JyM0vICcvn1M5uZw6nUtGVhYu/2yN7AZeA6YgHzdpCOL8KeBS5IxKRbx3dTuube8f0qYVRQK+3XSU11ce8nipoEbVJDYsmNfH9ufKDv5/BHYhry7cwKf/26b0dhcQD+SUcY0OeAB5YeFjaT+NAOUIcCew0sd+VEnO3wv+G8hXamiFh5T3PIkOGN+9AUvv6kX3+v6dxKjhf4zo3JQVT48NyMkfYMXuI2pu307Zkz/IMfZHQCdgg5rBNKodTuBtoA3a5O8xzg8AHMDvSg2tOpRFoT0wd2eaxIUy+7buvDWiLdHBmra+RtnUj4tgxn3D+ez2wcSHB+bCdn96NgdPqDr+qsxL+SDyDuNDaPXaGuWzGegGPI5caaLhIS5MCw9HYSKgwy3RKCaUNrV8nvejCB3QtlYEozvWpcDmZO+JAq2+RONfBJuNPDioCx/fNohmtWJ87Y4qPl+5gy2HVfU8eB55e7aiSMBG4GsgGOjMf98/GtWbXORctHuADB/7Ui24MA2sFpB+kX+vEL0axPDzrd1UO+UPJJ8q4u01SSze65nGMBqBg04Hwzo25dmRvUmI8XEXSAG43BLdnvuOk/mKF1fZyO8KNVt+zYGpwPUqbGhUDYqRA8NXkDX9NbzExSb6LUAXpcb+erAvCVHBqpzyJ9YfOc27a5LYdKy8406NqoZOB4PbN+bRK7vTqq6iXll+yeq9x7j5s9/UmPgWuRZbBJcjBwKBU0esIQoH8BXy319b8fuAi23BxSJ3VVJEqMVI74aBvT16PvWighndsS7d60eTmlvC8TzFNdMaAYJep2Nwh8Z8Om4Qd/TvQHxEYJ7zl8arCzdw6ISqgPYFxDVeSUFe/a1CFiJrhl8WqGoIxAbMBEYDPwCFvnWn+nKxB60BcLiU35VLbIiZDZP6EmSsmsd7O9Lz+PrvIyzZl4nTE72GNXxGiNnE9T1acEf/DjSu4Z/Ne9RyLDufS1+aiUv5dzcfqAl4KhJuCzwG3AAEjqiCRkU4AXx+5ifTx75ocPEdgDxgANBQicESh4u6kcG0qx2YyYDlUSs8iKGtajG6Y11CzEaO5ZZQaAvM6gcNmea1Yrj/is58cOvlDO3YxK+b96jlvWWb2aou+W8moEo9qBxOIosLfYd8NlwfqJrRWPVhK/AUcBdy9YjvZTs1gNJX+Xcin80ooll8GCvu7VMt9vFcksSfydn8vCONPw6d0gSFAoSIYAvDOjVhbM9WdGnk5W5yPqKgxE7357+nwGpXY6YvsFaQSxVBh9xv4BbkhEEtGAgMjiI3h5qFrBmh4YeUNkdHISdlKF4KfTe2M5c1i1d6e0BSZHexMukUS5ILWLX3KCUBqotQVYkKCWJw+0YM69iES1smYKqizZFK4/OV25k6f70aE8nIZ/S+OvsKAoYjHw9cjh/0GtD4F+nAbOSJ/2+0Tn1+T1mL9B+RHzRFtK0dweI7e1WLXYAL0cc1wuqS2JiUzup9x1i19xhJmVoVgbfR63S0rRfPgFb16d+6Pp0b1sKgr47fSCi0OegzZQbZhaqaujwPvCzIJbUYkSsHrgAGIQvH+KcAf9WlCHk3aBXwB7ANWbdfI0Ao623YE5XynZ9f15GhrWqqMRGQ6CPrgOXfmeMn84vZevgEm1My2Hr4BHuPn9J2CAQTEWyhXb14ujWuRZdG8k9EsMXXbvkF7y/bwtuLN6oxYUfOC/LXcq0o5NylXkCHMz/V7+XjWVKBROTV/R/Iwk6+b6mqoZjylkMbge5KjTeNC+V/9/bBEKDtMZWiC4tFF1J2bwG3JHH0VB77jmdzIOM0R07lkZZdQOrpfE7kFuGWtN2zi2E06KkbHU692HDqxUTQMD6SlnViaVknhrrRgS/S4wlyi630mjKDghJVZ/8zgFsFueQtavJPMNAWucKpJlAXWfVU47+cRs7Wz0Au9dyFPOknIiv1aVQhypuZb0LO+lXM2yPaMrpjXTUmAg9LKPrI2opvd7rd5BRaOV1kJafIyjerd7J0Z4oiW0N6dad/lw6KfRHB3FVr2bRnv6J7x/Vtx4jOTYkJDSYmLIiY0OBAbbfuM15dsIFPVyju+neWrsjZ3FWFEKAOsqLhiyhsW3z95f3o0rK5SL8qzXeLlrP/yDGlt78ELAWOI1dg2ET5peH/lHdmNht4C1A8m73+x0GGtKxJRFA1Op5zqHuGjHo98REh5wRoVu09qthWv84dmHyb4lQOISSnpSsOAFrXjaNHk8BqM+1PJJ/M5evVO9WaWUfVmvxBLjFMOvOjePYc2qcH44YPEeaUEtbtSFQTAGxB3tLXqIboy/m9HfhQzQCniuy8vfqQGhOBh9uJ5NbO9zV8z7O//IldfWnq6yJ80dDQ8C/KCwAAPgay1AwyY0sqiRn5akwEHDq7qmzrc+xJO0ViqqqPP6DZmJzO4Szt6FEJC7cdYu2BVLVmtgBLBLjjj+iRKwla+9oRHzIQWWxJoxpSkX35QuBN5KMARbgkiWeW7mXu7T2qTUKg5LCiC6p8npHT7WZjUjrLdx3m992HSTtd4AHvAoc5mw4wZ9MBmteKYVD7Rgxu14iODWpqeQDlUFBi58W5f4kw9RJVq57bgnzefzVwFSqON6sIk878bAMWAguAHT71SMNrVPRg/mPgYeSkGUVsP57H5+sPc3+fxkpNBBSSo6TCGggldifrDqaxIvEIy3elcKpAzO5BhdDrwejh/AwBgjsHT5zm4InTfPz7VmLDgunfuj7DOzWlX8t6mKto3wk1PP3LGjLzVCuubgcWCXDH10QjCweNQJ70I702ssEg5PtfJmK0LTqf+ZmCrOK3HPlvvxz5KFijClLRN78VeAP4QM1g765Jpl/jONpW0T4B/8JlB7dbnmAvQn6JjcU7klm6M4W/DqZhc/hIQthkhFAPd7sziQ0wsgtLzu0MhFlM9G/dgKEdGzOoXSOCBI8ViPy2LYl5W4Q063uSwF3910CWDh4F9MNXIkFmIwR7uD26+AC4AXD3mZ/TwGLgV2AZWjBQpajMQ/ElMBFoonQwh8vNpAW7WXxnzyrbLfAcEkiOYnSWsHP/ZHU4WZF4hPlbDvHH3qMikrOqPYU2B4u2J7FoexJhFhODOzRmVJfmXNIyAWMpwVdV5kRuEU/9vEaEqSXA7yIMeZFwYCRwI/KKX4sG1ROD3IfhFuRg4Fdkldi1aKp/AU9lHhAr8AjyGZFiDmUVMvV/B5l6ZSs1ZgIDWzEuUyjrDqYxf8tBlu1MUduIJSCRvCRqVGhznNsZiAsPZkSnpozs2pzODWtVi5wBl1vioZkryC1W3anXidySNxAwA0OQJ/2rAA8vtyuL5794XtQMi+GfnYFUZM3/H9ByBgKWykbIC5G3gVQVvk7fcoyOdSK5rkPVre/efjyP+XsOsGjfSbLyi33mR4mtPE0Cz789Sqze1xY5VVDCt3/u5ts/d1M/LoJRXZpzdddmNK8V43VfvMUbv/3NugNpIkx9AewTYchD6JC7Et4IXIc8MfmEEj8I6EusqgM+JdRDDhIfA/YCPyHvDChTLNPwCUq2yCYBu5Ejb8U8tWQPzWuE0b4K5QPkljiYsyudH7encSir0NfuAJBbWI4fXlg9nM7N8/wgZXDsVD4fLN/CB8u30KVRLW7s3ZoRnZsSYjb51C+R/LYtic9Wqlb7A8gEnhNhyAPUAm4H7kDFUaRIyn2+3J5/wE7n+bzEujVyk6iXkBsDfQXMQ1MV9HuUBAAHgfeAyWoGtjnd3DN7O4vu7EVsiKpYwqdIwMajp/lxWxpL92dic/rXsVhS6vGyL3B73t+ko6pr0YWx9fAJth4+wZS56xjVtTk39W5Dm4Q4X7uliv3p2Tz6wx+itoIfAvypdaUeudvfAUX34AAAIABJREFUXchZ/H4Vtfn6+ZIkiWT/eb50yCWWlwGngO+BrwFlMqAaHkfpAVUIcomQahHsLglR/HhzV4JNgZUUmF1s59ed6czankZytupyK49RKzaG9KWz0ZV2CK7XQ5TndmFy8wuI6zoAl8u/AqPz6dCgBjf1bsNVXZoRZvGr+aVcMvOKGPnuHFLF6EUsBYaKMCSAusB45NV+Ax/7Uiodmzdl+w9fln6B0QARnus7dCDlCC2vuMZj9gUgIScMfoWcQOiT8wqNi6M0TboYGAeoTmPfmpbLhDk7cXphq0wEm47lMGHOTrq/v4ZXVhzw68kf4ET2afYeLqOXgNvt0W3KPzZs9uvJH2Dn0ZM88dMquj7zLZNnreZAxmlfu1Qh8kts3PzZb6Im/yJggghDKtAhr/YXIteiv4QfT/4Au5KSycopQ6nS6caT52wr12/ymG1BnM3XmIHccOg9/OT4RgPULLvTkHcCLlHrxOHTxaTmljC4ZU0v5MxWHrcksfLQKR5dmMgHa5M5mFUYUO16Y6MiGNC1U+kXmIweEyuZ8uHn7DkUGHlBdpeb3alZTF+byNoDacSGB9M4PsovKwgcLhfjv1zCtsOZokzej9zj3ReYkTuPzgAeBVqgfHHiVSQJGtSuSfc2LUu/yGQuVQ9ELY+++i7H0k94xLYHCAZ6Ag8A3ZAl5gPj5VBFUftqsyBrhbcV4Av39GrIM5e3EGFKCIU2Jz9tT2PapmMcz/OiOp9g6sbHkTz/ByylJb0FWSBEfPVUxslTNO4/HKvN95nSSmlZJ5a7BnRgVNfmfqM46HS5uXfacpbtEvbunAf4Yh85DrgXOfio5YPxhdC+WWN2/PBV6cdsIUEQFCR83D2Hkml35Wivldl6iE3AO8Bc5PJTDS+i9o3mQm4leRsCRDe2puVSaHfRt0mcT3cCjueV8OHaFCbO382Kg1kU2AL7e1lQXEzdGvF0bV1KcOWW5CBAMM+/9ynrtgR2ifCpghJ+332YHzfsxeZ00bxWDMFm3+nL2J0u7pm2nOW7D4symQ4MQz7W8xbNganAd8BgIKzMq/2czNM5dGzelJYNS+mpI0lgEf98TXzxTRIPJgu362XqIis23oa867MHrXrAa4iaZ+9CVgoUwq1d6/Pyla28HgQczCrko3UpLN57ImByEipKXFQkB+ZMJ6a0hKSwUBBYFrc3KYWOw8bicAZ28HQhwWYjY3q2YsLlnakT7d15y+pwcufXS1m9V3Hv9wtxIU/AK0UZLIduwLPAcAJki7+iNEmoQ+LP0wgyl1LRFBEmtOfGmo1bGXDT3YG++r8Y+cg6FG+hsgutRvmI2tPcBjQEOoowtjM9jxMFNi5rFo/eCwewh7IKeWH5Pp5btp/9Jwu8UbpbaerVb4jDbsfpdCi6v9hqIzktndFX9L/4BZIEFjHlmDa7nRF3TiLtxEnFNqJj4ggLC6e42L+SLJ0uNzuOnuT7tYlkFRTTqm4s4UGeL2Mtsjm4/YslrN0vtOTrGeRzd0/TlX9e6i3whjxeJWnSrAX5ebmKJ9Sc/ALyCgsZ2qdH6RcJCrDzCgoZOv5BclTU/9eoWRuT2YzV6ndHmxagD3JCaiSwE+/uTlUrRB5q/o68lSjkLC/xRD6JGflc0bwGZoNnFgtJp4p4Yfl+nl26j/0nC/2u60nTFq244ba7eX7quzz+3KukHjvMnt3Kt9T3HT5KkNnMJR3b/feXbrf8glKZrCRJEnc/M5Ulq9W1op342LN8+u1sLul3ORGRkWRlniA/37eCQufjckvnAoFTBcW0rhtHmIcCgRO5Rdz4yUK2Hhaa7DUXWdTLk3Th3xO/X9GmfSduGT+BKa9/yKQnnmfn9s0cSTmk2N6mPftpWKcmHZs3/e8vXW75GEDlgsbpcjHmwcls3Jmoys4Lr33AO598R7delxISEkpmRjpFRf4hXnYGM3IgcB9yILADLRAQjuhIvAmwGbn9phDa1Apn2pjO1I4Ql0STfKqID9Yms3DPCb/K5tfpdLTt0JnBw0YxeNgoGjf9t8zC9i1/c93QS1WP8ckTk7jvuqv++0uTCcJDFduWJInHXnuPd7+ZqcJDMBiN/LXjMPE1/h1LJu7cxvLF8/h9yXySDvqXtojFZODG3m144IrO1IxU/hleSGJaFuO+WMyJXKE7IfuB7oCQ+sGL0Am5rewI/Gi1r9fr6dytF4OHjWLQsKtJqNfwX7//fcl87ht3vaoxjAYDP73yLNcN7PffX1pMEKr8u+F0uRg/eQoz5i1W4SGEhUewYfcxQkL+8cXtdrNj60aWL57H8kXzSD12RNUYHqAQ+Ag5YTDbx75UGTzxcPZH7hcgLOulZriFaWM6006lbHBabglvr05iQWIGLj+a+AFGXDOWJ559hToJpSQSnWFov04c2Kcu+gd4ZvzNvHjPOAwXrvgV5gIUl1i559mpzJy/RLVvQ4ZfwyfTfi7zmqSD+3l+8gNs/EtI5zthWEwGbrmkLZMGdyU6VF3Q+r/EIzzw3e8U2ZQd+5RCFtAbSBJp9AytgNeQm/L4zcQPcMv4+7j/kaf/E1Sej9PhoG+XpmSeSFc1lkGv5+2H7mPS2Gv+WxmgMBcgJy+fmx95liWr16nyDeTPYsrrH5Z5zd7dO5g86U72Ju5UPZ5gCoAPkdvTeyqArTZ4oq7pCJCMXFYk5CVQZHcxZ1c6saFm2teOrPT9hXYn765JYtL83SSeyPe7rX6AGjVqceud95d7XXRsHEsXzlE93trtu1i7Yxd9OrQlJvK8wMrprPRW5aadiYy46yFW/LVRtV86nY73PptOfM2yT5KiY2L55N1Xycv1J9Va+Whg25FMfly/F7PRQPv68f8NssrB6Xbz5qKNPDf7T9Eto0uQG3ntEmkUuZzvTeAbZF14v5r8AZo0a8Wo628q8xq9wYDJZGbNymWqxpIkieUbNrPjYDKXdmpPRGjIP790OiHITGU+opXrNzHszols3rVHlV8AJrOZD7/8kfCIst+jkdHRvPf6FGy+aTRUFhZkYaHbgTzkHAF/fKUHBJ58UCcDr4s2elWbWrw+rA1hlvKjaJck8fP247y9+hCnivy7Ft1gMLB2ewo1a5XdIdHtdjN8QBchuwAAQWYz9113FY/dPIY68bHyP5qMEF5+hvuBlCO8+uk0Zi5YgluQ5vmgoSP57LvZ5V63bfMGrh/WV8iYnqRRfBTPjOzFkPaNK3R9Rm4h93/3O5uSM0S74kbunDdPoE0z8CByZn+UQLvCCQkNY+OetH9te18Mm83KgO4tycwoR+O/goSHhPDQjdcyaey1xJ4NtM0meaetHLbv3c9LH37F/P+tEuILwE3j7uGlNz8u97rli+cx4fbRwsb1IDuRxaO8VclSpfCksslfQA3k0h9hHMgqZMm+TLrWi6ZmeOmnDH8dzubu2TuYtT2NYofQVZRHkCSJGjXr0LlbrzKv0+l0JNRvyII5PwkZ1+ly8ffuvXz08zw27dlPic1GZHAw0WGh6C44CnC53OxPOcysRct5/LX3mPzGh+zcd1BYKZLJbObjr2cRE1t+c57PPniD3Tu2ChnXk+QWW1m4LYkNSem0rhtLjYjSX/z/SzzCLZ/9RlJmGdKyynkAsRn/o4D5wFhAvMqNYBwOO81btKZF64skwJ6H0WgkMiqaFcsWChnX7nDw57ZdfDhrLjsOJmFzOIgOCSEyLEwOtM/30elk1/6DzJy/mIenvsML73/O/pQjQvwACI+I5MOvfiQsrPzeBO+8+jzJh/wrz6YUagG3IiecbkPLD6gUnt6q0wPTkEUehGLU67i7V0Me7tsUi/GfLdaU7CKmrjjAioOBV0Laum0HfvtjS4WunXjXjSxeUP5KWSmhwUE0qFOb8PBQ3G6J/MIijqSlY7N7biflgUef4eHJU8q9zmG307NdfXJzAutZ1+t0XN+jJZNH9KRGxD/bwjlFVqbMXcecTQc8NfTjwNuCbHVC1nO/SJabf9Nv4BCm/fRbuddJksRNoy5n4/o/PeZLeEgI9evUIiI8DLvDQU5ePqkZmR7VzZjy+ofcMv6+cq/Ly82hZ9t62O0Bp8fjAD4FXsS/Olr6Ld44q9MD3yJHacJpEhvKmyPa0Dkhiq/+PsI7q5N81pJXp9NjModhtymvz122difNWrQu97qTmRkMubSD352BK6Vx0+YsWrUVi6X8xeSKZb9xz63KlWvNQZHYrb4rKYwMsfDStZdybfcWLN6RzLO//ElWgccqnJ5H7tWuFvMZW5MRoPqpBL3ehMFoxmFXVhFhMBpZv/MIcfE1y702+dABRlzWFZvN787AFdGpa09+WbQGfQXyUWZN/5pnHis/UCgNS1AUNqtHdrEqSgayOJ26colqgDfEzSXgN6AR0EG08ZwSB7/uTGdBYga/7TmBywcqPmZLBM3ajqbnZS8TElaTjGPKa+DDwiPo03dgudeFhoXTtHkrFs3/RfFY/kJQUDDf/ryEWrXrVuj6916fwqEDexWPd8mgt2nV4Vbcbhf5uYeR3N49IrI5XCzblcK8LYeYsS6RYrvQLP/zmYpcjqeWNsByZMlWryv4BQXH0KLDzfS67GV0OgNZGdsU2ZHcburUrUfHLt3LvTYmNo74mrVZubz8HQN/Jyo6hu9nLyEyqmLV2VOfe5T0NOVqk5dfPY3GLa/C5bRSkHsUSfL6giwcuBGoD6xA3hnQuAjezNY1IO8E3OLFMT1KRFRDmrUdQ8PmwzAa5WY6NmsuC2cOxe1W9p2rk1CfNVsOVShSB3j7lWf57IM3FI3lL7zxwddcd0PFTokK8vPo0SZB8cosOCSOETctRqeTP1+bNZeU/fM5tOcXSooC79ioFCTgSeTMfLUMAX4G1NXgKiA6riXN246hfpNB6A2yyFJB3jGW/HytYpvtO3Vl3vINFb5+8qQ7+fWn7xWP52v0ej1fzpjHgCuGVuj6tNQj9O/aXHFeT2RMU4Zc909+UknxKZL2/krKvnlYS3zSZnszcDXyroDGBXizvZkELEBu/NHbi+MKRkfter3ocskTdOr1MDHxbdDr/0mWMxqDyMnaS0HeUUXWC/Lz6NWnPwn1G1bo+h59+nFw/55ASdj5D3dNeIS7H3yswtcv+PUnli9WnsjepOVIatf75+tnNAYRX6sjzdqOITK6MSVFJykpUi5h7Ae4kDvsfSTA1j3ATOQ2rl5Bp9OT0GgAXfs+RftuE4iKbY5O/89ryhIUSUbqesXBWuaJdEaMGkt0TGyFru972SC2bFrP8VRlz7OvefKFN7h2bMVPX2dM+4wNa5VXHbRsfxNxtf7Z6DWZQqhZpyvN2o4hLCKBosJ0bwcCZ5sNrQAC+sH2BN7ubyohSwbnAoPww3rh0tDp9NRrPJBel71Mi/Y3ExZRj9Lc1+kNpKYor0oxGA1cPmREha7V6/VcMfQqdmzZSOpRYR3ivMKYm8fz/Kvvl95G9SK88sLjql7GXS55guCQ/1YZ6HR6ImOa0LjlSGrU7kxJ0UmKCtQJwvgAG/LWpzopRpm7gc/x0jtCrzfSsNlQel3+Kk1bX0doWO1Sr3U7bWSkrlc8VkRkFL0uGVCha41GI4OHjWTdmhWczAysReT9Dz/F/Y88Xal7nnt8AqezTykaT6fT063vc5jM/y0h1usNRMe1oGnra4iJb01RQbo3A+1I4FpgIVqVwL/w5QR8LfKLyq9LiPR6I/WbDqFVx9uIiGpYoXtcLjsLZgzGYVemrR0RGcXfiakVSog7S3FRIfeNu551a1YoGtPbXH/jOF5553MMhorPLxnHU+nbpalizYGI6EZceX3FcyayTyayd/s00o+uIwC0Rk4il+Ypnxn/4QbkZ9Pj5/0Gg5lGLa6iZcdby5z0z8dacpqFPwxVnLtRr35DVm0+WKnAM+f0KcbfMIJd2ytWpeNr7p34BI8/+0ql7kncuY2rryijmVE51KjTlQHDP6vw9SfTt7B3+zQyj29WPGYlOQZceua/NfD+DsD57APWIDcQ8rt+4AaDmSatRtFr4Ks0ajEcS1DFdU70egMFeankZisr67LZrLRq26FC1QBnMZnNDB85mrRjR9m/d7eicb3FA48+w7Mvv1PhPIez/Pj9l6oCnBbtbyK+VsUbVoaE1qBB08EkNOqPw1ZAfu5h/DQQ2A0MPPPfaumJvFLyaKa/0RRC87Zj6H35a9RvcgVmc/m16f/cG0z2yUQK85R1RszPy6VPv4Hlym6fT3BwCFddewP7EndyJMUTKspi0Ov1PP/Ke0x46MlK3/vlJ2+zY6tyNc82ne8gOq7iPZ9Cw+vQsPkwatfrhbXkNAUK/56VIBK4HPgeLTEQ8H1P7nXIAg4iVi1CMZiCadzyakLDK7YquZCGza5UNf782T9W+h6T2czbn3zLI0+9hEFg73FRhISG8fbH03h48pRKrb7OMn/2DypG11G/6WBFd0bFNKNBsyHo9f73mSJX2PRBluBWSwwwCxDTt7YMzJZwGre6hqCQip3FX0jDpuqerwW/Vv75CgkJ5cvpc7njvocUfX89TVR0LJ9/P6dCkuIX4vp/e2cd3saV9eGfwLbMzKQ4DscBBx1marhJmzRpmsKWGbbbLdO23W672zbdr8wcZmiYmRxmdpw4jhkl+ftDcdYkaebcGUm2z/s8C7XnQiWfO+ceNJmwaC49o0in90JckwGksaERKYhvMtBZn2kKlImPaRC4WgEAgIsA+sPNvpSyklysWfQwrl2hXarCo1Ph4+c439gW61YvIxW60Wg0eOSpF/DrvFWybjhq0zqlA+b/uQ3jbqMlgRw6sA/HjtBroYdHd5BsYq7J+VOrsGnF8zCb3aqctAnWSP8xUK4pytcAEhWayy5FBZlYs/B+5F2nxa3EGvtC7+Hj+EEbLFkwC+WEolY6vR5/f/19fPXzfISEhpPXV5ou3Xth0eodGDh0JGn8pvWrcPUKvd10TELvOn3/Ujh5eC62r3vDmemC9wCw3xiikeAOCgAAlAF4HNYvRdG+pyKUl+Vj7eJHcTVjj+yxGo0WicnDBNYuwxKBpj+duvbA0nV7cPcDj7vUGuDj44u/vvwPzFm6qVZ7YzksINzYqmJsJi0NqiZnjy/FltUvktM6VeICrErze1DOJzEGwFiF5pJEcVEWVi98ADnXjsseq9MbyDdOAMi5no21q5aSx/cbNBzLN+7DxDumy3ZlKUlgUDBef+8T/Dx3JaJj48nzzBOUr0SixfPYgd+wc8M7rqgV8G8o2La+vuIuCkAlv8BaatRtXAKm8iKsX/oErl2R33wnUdBMKWbythYVeunND/D7gjXQe6hu1a1FQGAQlqzfiwceew4enp7kecxmMxbM+Y08XqfzRHyS4+JKNTl/aiW2rX3N6YWCHLAQQCqs7jOl8Ib1QHQ6pSXXsWbxQ8jLOSN7rCvcbFUJCQ3Hu//5Ep99P9slLoGYuAT8ufkApt79oKxg2poUFRbgzyXzyeO9DEHVUmulcuLQLOzZ/AFcFFcTDmvJ4EaNuykAAHAc1naPf4M1rcnlmEzF2Lj8GRTkXZA1LjCkKYJCm5HX3b1ji3BqX15uDt5+5TmYyp1/g83LzcE/XnmOZGqtytZNa4V6tEcn9IKHjCAzALh6eQ+2rXnVFTcTW+TC2gJ1NAClKxY9CWulTpdQVpKL9UufkJ0fHhHTGd4+dDP8mj+XIC9XrGTtlcwM/POtvyvWEEsOly6cw7/fe024E+eKpfNRVEQ3vMYnDZIdH3Px7Hrs3vQ+eU2FeAiA9KjFBog7KgCAtZjJe7AGCLpFy7eS4mysW/KY7ENKxApQUVFBClaqJDfnOqbfPgJ7dm4lzyHKiiXzcP+08SgpKSbPIXpTk3tTLMg7724+/z9hDV76ToW5vWB1v7mUwvxLWL/0SZjKpfdE0Gi05MBOwJpts3ThHPL4SxfOYfKYAThx9DB5DlF+/f5LPP3wXTALNBGaLyxf8txr2VcPY+uql9xBudYDeNrVm3Al7qoAVHIQytQyV4SCvAvYtOI5WGS8GBKTh90sO0th/myacF69chmTRvfHvt1Oy7G1yfrVy3HflDGkW0ZxcZFQ5T9PrwBEJ/SU/HxpyXWsXfwoSkvcqsnS4wDUypGaCmtLVZdzPeswtqx6UdaLQdQNMH8Wzc127swpTBo9wC1SAhfO+Q1PPngnycp39cplbFpPL1rmFxCH0Mi2kp8vzM/AhmVPwmSiXwgUZhoAerR2PcfdFQDAekC5DVmZ+7Fvm/SEBW/fcETEdCavd+rEMdnFRy5fuoA7xg4UippXmi0b1mD6bSOQnyevC9/KpQtQWEAPcreaJ6XFP1RUWLBtzavuWAFQTRmQnzOmIpfObcThvd9Jfj4otDkCQ5qS19uxdSMuXpBXWfLk8aOYNGaA7HFqsmTBLDx8z22yW/gunPM7zGZ6jIs1+E9a/IPFUo7Nq15wVU8AWxgA3OvqTbgKd1cAAmGNTiYTF5+IPgPoZsK6OHbgd1w8s1by88LBSjJuKefPncGk0f1x6sQxoTXVYNf2zbhzwlDkXJd+AMyf/avjh+wg57M/su9HZJyX3ihGCuMnTkZAQKDoNFOhjqwmwxp0S6Zl6xSkdklTaDtWDuz6AlcvS8+8EXGzWSwWLJgtPcD0yKF0TB4zAJkZF8lrqsWq5Ytw/9RxKC6W7kaRc7bUhZzPfv/2T5F9RblLiUajweSp0+Hp5SU61UQl9lMfcXcFYAIESgUbDN7477cz8fUvC/DU868JRcpWpwLb172JwgJptcHjmgyATk+veLxo7h+SfHynThzDpNH9cf7cGfJaapO+dxemjBuEa1mO64Bfy7qCDWv/JK/l6x9TrTGJPbIy9yN9p/Qypo7w9vHBJ599iy++/QUzPv9ONEo8EdYSpkozQWRwYFAw/u+7Wfh13irc/cDjikXCV1jM2LrqJck95UXdbFJfgnL+dl3FhrV/4p5JIyVZzU4cPYyD++WnOFcSGtEW/oHSUg8vnd2Ao/vFYg2qEhgYhB9+nYtPPvsW777/seh0HQDQzUj1GHdXAOiJvgAefuoFtGnXEVqtFo8+8yK+/X0xgkNqN4KhUFaaJzmQRe/hg9jEPuS1pLwIjx05iDvGDsTlS/IyFRwxrWN3DEpupeicUm9Ri+fNFMpekGqeLC8rtPqeFUr3S2raDMvXbMXkqdMBACNGjcVtk4W7YAvJgg2kdZyywfOvvIsEYxL0Hh546c0PMOPr3+Djq0xV76LCK9ix7k1Jz/r4RSI8mm7IkPIipFivpPBoWn90iTMqOuf2LRtw18ThDjMcqPFFlUjN/S8uysK2ta9BqXS/lPYdsXrjLgwfaTUOT7vnfvQfOER0WiFZqK+4uwJAti3GxCXg3oeerPaznn0G4rcFaxAZHSu8McB6azxxSFqxHmqhjErsmcIP7t+DO8YOEqrkVRf3d+2N5/sOw4cjJmJky3aKzl3pR71w/ozNZ8TNk9IKMaXv+C+KCpT57Nq264AlKzeidZuUaj9/+fV34OPrKzK1snZ2wBPWegIkWrVph4l3TK/2s2Ejx+PH2csRFBwiuDUrF8+ux/lT0no/iNbcsPcypMav2EMD4IV+w/FQt774bOwU9DImKzY3AOzZtQ1Txg/G9ey6O/tZM4zo7jWtVo+EpoOl7WXzBygrzSOvVZW0nn2wYNlaJDZJqvbzN9/9UNTC211oY/UUd1YAIiGQm3znPQ/BYKjdxjy5eUvMXLwOiU2Usfik7/gURRLaWkbHpcHgTT8Y/1wyv06zXvreXZg2cZhNQafySPd+eKKHtXiOTqvFu8PGYXL7roquYS+S+uzpk0Kd10LCW0vq3ph99RBOHJpFXqcqHTt1wZxFKxEWHlHrd1HRMRg/YZLI9N2gbPOudhBwr93z4BN1VsDrkNoVvy9Yi8ioGJG93WT35n+hvMyxOTs+aRB0erov2FYw3LpVy8gZLLbQAHix/whM7WDtvGfQe2DGqMmKW9oOpe/F7aP61VlDY/uWDUJBjFFx3eFlcFxIL+P8ZslKnCMGDRmOmfOWwd8/oNbvWrZqgwGD6ZVXASh7uNUT3FkBIPel1On1GH+7bZNrbFwifp2/WhEloLysEHs2/8vhcxqtDvESNea6KC4uwool86r9bNumdbhj3CBFzZIaAM/3GYqHu/er8XMNXuw/HHcorARkXDxfZy713Jk/CRVXkWJxqbCYsWP9W4rkI3fv0RvzlqxGSIjt5jZTpgkFGwcAaCkyQQ3It39fP38MH207fCC5RSv8Mm8VwiPEswtLiq5h3/ZPHT7n4emLmAR6mMSVzAxs3rC62s9WLJmHB+66VaiGRU10Wi3eGTa+ljLtodPhgxETMKKF9JQ6KZw8fhRTxg1CxsXqWaQLnGD+N5mKsWvDu0LrVDJ85Bj88Ns8GLxrX+oqmSomX00AKOMfrke4swJAPuxatk5BWLj91M7IqBh8/ctCBAXTupFV5cLpNbh0boPD50R6AwDVC+KsX7MC994xGkWFBUJzVkWr0eDlASMxLbVua7NVCRiBeztLz6uXwpXMDEweOxCHDuwDIF4ASaPVIaGpY5/gsQO/kerQ1yS5WQv8+Ps8+Drwf3fq0g2BgdLbSteBkgoAea7O3XrC29t+Ix5jUjK+/GkefHyE3B4AgFOH50oqxS3sZqsiXwvn/IZH75ssXMWyKh46Hf41fAJG2XCn6bU6vDtsPMa1EUrMqMXpk8etwcE3qoqWlZUKFUDy8PRFbGJfh88d3PWV5EBpe6R27oovvvkFng7KifcdMEjUDdDoqgK6swJArqHbSWJaUpOmzfD5D7OUSCPB/u2fOrxJWqNm6R36tmxcg8zLl7By2QI8cOd4Wek+jtBptHhr8Bjc3s5xzYKnew3GIzUsBKJkX7uKqeMHY+/u7dizcyvOnTlFnisqtptDd0t5WT4O7fmGvEYloWHh+G3OYgRL8HtrtVp07irkaqTXlVZwLqnyldKhEz76/EcEh7RkAAAgAElEQVTh7JuKCgv2b5/h8Lno+DR4Gugpl8uXzENRUSFm/vIdnnlkulB1vZp46fX4aOTtGNKstd3ndBot3hw8GpPadVFsbQC4cP4sbr+RHrzmzyXIzaEXuooz9nfobikqyMTxA/T+HZUkGpvg5z8WwNvHcedHPz9/tKoReyMTZQMx6gENUgFo3lK6Ga1bWm989OlX1KVukpt9EmePO+4uJnJLMZvN+PvTD+KReyfJLvjhiCd6DsSY1h0kP/9w936Y0LaTonvIzbmOaROG4V//eFloHimf8eG9PwgHJnl6euKn3+fDKMOV5EYHFF2+WrWR/OyQEaPx6lv/pC51kyuXduHyBfs1GrRaDyQk0d1sRYUFePKBqXjhqfuFiuPUxasDR6FvE2ndMDXQ4KUBI9A/SdkLaWbGRUweMwBfzvhAaJ5ECaV/D+7+UriUtp+fP36dvRjhEdIL9dUMvpWJkgp2vcCdFQBy79gmTaV/jxoNMHHS1JspWyIc2Pm5wzLBVjcAPV967cqlqjT2+W73Zhy9Kj0Sfvv501hyNF3xfRQW5GPbpnXk8Xq9t8OUy+KiLBw/8Dt5jUr+9tIb6NJNXnB+UpLQO1ypA0oHgQDbJknSRVOr0eChR5/CkOG0PvVV2bftE4dWNlE326rli1Rp7DNjyxqcz5Ueq7Ps2EFsOKN8meGsq5nYs2sbeby3TzgiYuwr/vk5Z3H62CLyGpW8+8EnaN5CXmBkE/eQr3qDuyoAfhCoTy4nuE+rtb6M3/nXx7JucnVRWJCBk0fm2X3GLyAOYZFCWqoqZBcV4u7Z3+NgpuMyuGtOHcUD835GUbnbNMu5SVyT/tB72DcXHtr9tXAt8h69+uLRJ5+TPS4pWeiMUeqAMsKaBigbrVaLeKN03UGjsVZs++jTr+rMjpBDzrXjuHB6td1nwqLawS8gTmgdNbiUl4O7Zn6HM9evOXx2zsE9eH7pHJjcqw01ACCxmeOiS/t3/Fe4psaYcRMxacpdssclNyPfGwFWANyGZiBekw0Gb1l5/pWL+Pn546vvf4OHh7S68bY4svd7WCz2fYeiwUpqkVtSjOmzvsP287ZbEC87dhBPLvoDZWbl/KNK4sg8WVKcjdNHFwitERAQiE+/+L7ONDhHJMmwTtVBNAB5fY3rhryJ6Jh4eHlJzx7U3RCw8IhIfPrF98LVAg/t/gb2C8pohK0AapFZkIdpM7/FsaxMm8/8vn8nXl25AGbXd8qrE0dnV37uOVll0usiOiYW739Eq8rJFgB5uLMCQMKYlCzrYNZWOY86pHbGvfeL9UYpKryCC6fX2H0moekQyQ1qnE1ReRkemv8LNp87Wet3i4+k46/LZrvlzQQAvH3CEBlrP3jqxMGZwr7JV954F/EJiaSx0TGxogWBlChgQZYvOe41ANVe+AMHD8M4sVoIyMk+jiuX7HcINzYfARE3m5pcKyrAXTO/Q/rl2lUwv921GW+uXgSLCi4IJQgMTkJQiP3v/2j6L8Jpte99MMNuOq09BC1sfmhknQEboAJAP6AA4PmXXkdEpFj+8tH9P9r9vadXAKLjlS7sphwlpnI8Mv9XrD555ObPZqbvwt+Wz4HZ4p43EwBIcFAT3mIuw8nD9PQnwFpwZOr0+8jjNRoNjMYkxw/aRolbipCCLQdtjffw62+/L6oA4Wi6/RRRv4B4hETYj7Z3JXmlxfjL3B+xN+N/uflf79yIf21YoVCxXHUwNr/F7u/LSvNw9tgSoTV69x2AEaPGkscHBAQiNCxcZAuNygrQABUAsQPK3z8Af3vxderyAIDsq4dxLdN+gJy7ugEqKTOb8PSSmfjzxCH8um87Xl+10G1vJpU4Mv2eOb5UuBXpex/OgF6vF5pD0A2gRCaAyxTs6JhYPP7U89TlAQCXzm5EXs4Zu8+4qxugkvzSEtw350dsPX8Kn2xZgw83KlMtTy00Gi0Smtrvqnri0Gyh2Bq9Xo+3//kf8vhKmorJFysAbgD5kEtsIm9oXT7JKXfdizYp0rrI2eKYgxzYmMQ+8PBUpnGKWpSbzXhm8Sy8tWaJW99MAKt5MjjMftrU8YN/CK0xeuwE9OzdT2gOQNhMKRTldAPyBuQE2GpgDQKsyaNPPEt2oVipcFi+2epmE1PU1Ka4vAz3z/kJn22jZ704i4joTvDxs20dr6iw4KRgSe3p9z4omsYHAGgqFgiohHzVG9xVAXBKCiA0tS0AAKDT6fDs38Ry0S+eWWu3hrlO54m4Jmo0eFMWdw1Gqokji0rOtePIuXaMPL9Go8Fzf3+VPL4qLrYAeMLaXphEk6bSRdNWvJ/B2xuPPfVX6hYAAGdPLIPFYjsd1uAdgsg4cjVxp9FQ5Cvz4jZJPVFs4enlhSeffYE8viqCgYCNqhiQOyoAgQDIThw5LgCtnYjkW0aNQ4uWdD+i2VyG86dW2X3G6OZugPqDxqF58sxxMd/k0BGj0Kq1MnXam7o2FbAJANLVWKfXIy5euu6grUu7vsGUO+9BZFQ0ZRsAgLKSXGSct18YyCjYIZCxYr2s9Lf7zBlB3//td0xDVLQyDaTcJNW2XuCOCgD5C/D185fVgMTev7xWq8UjTzxL3QoAxy+d8OhUu2Y1Rhrh0R3h62/7ZVJRYcG5E8uE1hD1W1dF0AIQCWtjICrkG05cfCI8HNRjr4q9OHwvgwH3P/Q4dSsAgLMO5CvW2NdhTQjGMY7clabyIlw8Q3dj6HQ6PEaoqWELwRiAZLhrCokKuKMCQE5zkhsA6CgleeKkqYiNi6duB1cz9qIw33YzDI1Gq1qwUvuOnfDb7MUICnLcslNtEo1NMHvhn4J+X9s4sqRkXtyG4iJ6u+S0nn3QtXsP8viaRERGOWwc5ACRVEDyWCXia6pyz/0PIyCAXrv/4tkNdss56/QG1dxsvfsOwLc/z7Lbnc5ZtGnbDr/PXYrQUHWa2Rkd1Na4cHqNUPDfyNHjRZXiaiQlNxOpN+GLRpQK6I4KALlEqVHhA8rDw0OwhWsFzp1cbveJRBXMlF26pWHOopUYNHQE5i1ZLZoWI0TT5OZYuHw9+vYfhIXL14v652qh03kiPmmg3WfOnlghtMY9f3lIaHxNNBoNmjQV+hyMAmPpJYBlHtJ2PAAArBk3t952B3U7sJjLHBadUcPNNmjoCPw6axFGjbkVv89ZIqrMCdEhtTPmLlmNgYOHYf6ytcIpzDXxMgQhykHK8rmTYvJ1t8Ly5evrJ/o5kGWkvtGgFIAEmfnVUpTESVPuIlV8q+TSuY12fx8Y0hRBocppv2k9+2Dm/OU32862bdcBi1asR3SM9OqIStG8RSvMX7oGMbHW0qxx8QlYsnKjIpG+lcQk9oaHp+3ieBUVFlw+v5k8f0BAIIbfMoY83haCtQBEDii6fCUqL1+iPTgunbXfhjsipjN8fMVKEFdl6IhR+OGXOTdv/j1798P8pWskdYNUmo6dumDm/OU3i+a0bNUGS1dtRqKMUs2OSGg62G42hclUjCuXdtLnTzSiRy/HrYXlkpgo9BmwAuBCyB9+XIK8oToJB1RCohG9+tgPgLHHtcx0lJXk2n1GSnctKQwcPAwz5y2Dn1/1F2Kz5i2xaMUGRQ8GR6S074iFK9bXCuwJj4jE/GVr0bGTMu1OHVlQsq8eEsr9nzhpqipm3gSx78IlCkBcglHW8/aCbCtJ7dwVbdq2I+4IuHxxu90GXNb89SHk+asybsIkfPfz7FrtwzukdsacRStVM8HXRY9efTF38apaikeisQnmLVmjmKXNcfT/DqHKmpOn3i10wbJFYhOXKdj1CndUAIzUgXEyfcxS/UR33Hk3ZTsArDfQDAdtTBOThzpssOEInU6HDz/5wubLKtHYBHMXrxZueCSFzl27W10PNg7E4OAQvPmOWEtS4EZFxQT7vvkMgds/IH5DtYWgMiYy2EgdGC/zViXVDXs7oelLJabyIlzJ2GP3GSWKbvn5+ePfM76w2SskpX1HzFu6RlbrWiqDhgzHH3OX1lL0K4lPSMSLr70tvI5fQDxCI+xnvojIl1arJTX8kYIL5ate4W4KgBYCOcrxMi0AUg+oW0aNE7oFZpzbZPf33j7hiIztSp4fAMxmM1554Rm7zyQkGrFw+To0a95SaC179OjVF7MWrLjpgqgLk8mEl/72tPBaUnoqZDhwwdijaXJzdEjtTB5vDxeZKEMhkEEgJwUQkK5g3zpxstAtMOO8ffkKCm3usIa9IwoK8vGP11+y+0yr1m2xcPm6my4vNbhl9Dj88Ns8u+dRUWEh3nxVPKdeSk8FEfnq2r2naoHBCewCkIS7KQCxILYp1el0iImVF7EvNU7U28cHffsPkr+pG2Rc2OKwQUbzFHowVCXz587Ewvmz7T4THROL736ZDZ1OJ7xeTQICAvH9r3Ns3kwqmfGf97F3N91vCFhNu83b2m8sU1KcjeyrR+w+Y4+hI0aRxzpC0AVgBC1VibxocEgYfB18rzWRerhERkULKVpSbqEt2onL11efz8DWLfZfeMnNWuCzr38SXqsu4uIT8OW3v8LTQSrmW6/9HWdPnxJaS6c3oGmr8Xafyb1+CkUFtjsbOmKYivLFFgBpuJsCQP7gI6NjZeUoA9J8lJUMG07/Yy0ryUXeddstdgEgOj4NkTHifvG/PvUIsrNt9xy/knkZ9027HWaz8h398vJycd+021FUWGjzmaNHDuGf74j1WgCApJZj4R9k//aQlbkf9lvH2kfNAyohwSiSquQDWqoSWb7iE42yntfc/C9pDBWQr/yccw7jPBKThyMwRMwvbrFY8PiD96Ck2HbK25nTJ/HI/eqYtS+cP4eH/zIN5eW2KyBu3bwBX30+Q3itVu2nweBtP7Axy4HrxRGqKthiFoB4EItl1TfcTQEwUgfGywxQkntADR52i1Avc+vLyD4dezwNjVbsZn71SiaeeeyBOn938cJ5jBraF4cPHRBawx7r1qzEbeOGIz+/dn52WVkZHrrvTpSVlgqt4ekVgJQujlOHsi7vI68RFBSMrt17ksc7wuDt7YpUJboCINu9Jk9WxF4GFbjmQL40Wh069hB3O506eRyvvlh30ZpjRw9j5JA+OH/urPA6tpg35w/cPXVCnTKUn5+HRx6YDotgx05fv2i0bH+nw+euZtLlq0lSsqquyJjYOJvxGhLQw6oENHjcTQFwWoSy3AMqKjpGyEyZJUFYAkOS0bztZPIalSycPxs///BNtZ+dPXMao4f1xckT9Hr4Utm6eQNuHTUYOTnXq/38nTdfxv69u4Xnb9/tMXgZbMcYVCKiAAwcMly4658jXBAHYKQuJl++5M3fNqU94uIT5A2qghQFOzKmiyKFt7758r9Yubx6FcID6fswelg/XM64JDy/I5YtXoCpt49BcVFRtZ+/8OzjwqZ/AEjt+Rx0eoPD50TkS03rGmB1CcfG0f+e0EjcAO6mAJBzN9TIUa5Jn372C87YQ6qwpHR+AL7+4jWxX3ju8Zsv+xPHj2LU0D44e8a+G0JJdu/cjlsG9ULmZWslxK2bN+C/H4tH/odGtEWTFqMdPmc2leJ6Ft3/L/JdS0WBOAC5OE2+HBUBqgtnyFeHtKfg6SVSSRmoqKjAIw9Mx5XMywCAfXt2YfwtA5F1ld4MRy6rVy7HxLHDblraFi2Yg99+/l543rgmAxCT2Nvhc8VFV1GYT1d2nCJfMt1WNRAaXF9wNwXASB0YKzOalHJApfVwLBi2KMi7ICkfXac3ILWnWA8CwBoJ/PBfpiF93x6MGtoXly5eEJ5TLkePHML4kYNw9MghPHDPFOG4A63WA136viwpZTI765DdbnGO6NGrD3msVAQDlSgvcyN1MfnyJV/AugvIV3bWEUnft8E7BO27PUZep5JrWVfxxCP3YeuWjRg7YoDduBu12Lp5AyaOGYpDB9Px5MP3Cc/n4emL1B7Szp6sy44tLrbQarXomqaee60SwVoAQoPrC+6mADjNR0k5oLp07yGUriS1HW1MQm9Fapjv2rENg/t2xdUr9EhdUY4eOYS+3dvj4oXzwnO1bD8VgcHS5DIni+7qiIyKVrxkcV04OVXJLVNsq5LWk64AWMxlyLt+RtKzSS3HICyqA3mtSv5cthhjh/evM97FWezcvhUDeqbWcrdRSOn8ELx9pZUNz8k+Tl6nddt2dtOElYKrATrGnRQATwBk27fcIEBKElVgYJBQS9jc7BOSn03t8azdErdSMZlMwnO4wx78A+PRuqP0vgy510+S1+qe1os8Vg5OTlWKBuDYsVsHWq1Wtj+VogA0SUoWCoyULl8adO79ArQ6UsZxNRqKfIVGtEVym4mSn5dzltWknsiXUaFtuDXupAAkAiCFwHt5GRAeKa+3OMUFAFi77FHJzZb+UvL2DUennsq1yKzPaLQ6dOv/OnR6L8cP3yDnGv2AUqv4T02cnKrktim2VWnXIZU0DpCn9AUGJyGl84PktRoSOr0B3fq9Jqsaac41ugWgnsgXWwCcDPkDj41PkG2ap6b0pbTvSBoHADkyFADAWsI0PolegKih0KrDdIRGyGkgVIG8HHo0tMh3LIfYuHjRVCU5JecE3GtG6lDZtBOSL3lKX4t2UxAeTVc4Ggrtuz3msKZGVUzlRXbbnDvCWfIlaAGIgrXeRoPGnRQAI3Wg3CZAAN0CIPLHa30pyStM06nX8zD4hJLXFIV6k1OK4LAWaJMqryVzYcFllJfZLkbkiLYp7clj5aDT6RATJ5RuLCdQyUhdhCRfxJNFSL6y5Sl9Go0W3fq9Cr2H6855V8tXZGxXNJNh+gdwo6gZrcCWp5cXmrdoRRorl7DwCPj4+lKHayAQM1NfcCcFQCBAySh7DFXuWrZqQxsIa2pacVGWrDFehiB06fMieU0R9Fod3h8+AU/3co0VQqvzRLd+rzus91+TwryL5DVDw8IRFq5c+1hHCAYqyXHMO1m+aAImIl9FhZmyMz98/WPQMe0p8poieHt44otxd2JaappL1vfw9EfXfq9CbkBUQT5dvpo2bSZi9ZKNoHyxAuBEyB005BYpsUI7oIKCghEUFEwaCwCFefJzZ2MSeiOppfI96e3hqdPjPyNvw7DmbXBv5174e7/hxE+MTkqXhxAYIr97oUh+slEsdUg2grnKcmRGQL5kNgECVbqsJZKpmTYVFRYUFVyWPS6p5VjEJDgnMK0SP08vfD52CtISkvB8n6F4oKv6aac16dTrr/Dxla/sisiXYGqebOSWsK6Bel2d3IQGoQBEx8gfSnUBAGIFXAoLaL6zjj2egV+Ac6pTGvQe+HT0ZPRPanHzZ1M6dMNrg0Y7zWQZFtUeLYgNkgoELACJRuceUIKd42JlPEv+44mOkTlU4E/Ey2BAZJS8gN6qUH3TXfu94rD2vVL4exnwxbg70Sn2f4rV4z0GONXSFmfsR66KKCJfRifLV6zMBnE1YAXAicg5zKoRGS1vqOg7TOSPmGqe1uu90a3fq8K9Ahzh6+mFz8ZOQY/E2jfvCW1T8c7QcdAJ1EKQgqdXALr3f1NWVHJVhG4oYoFDspHbwbIGcgY7Tb5ElUQRJYz63XsZgtG5998hpL1IIMTbF99NmI720bXfLfd27oXn+wxV3dLm4xeJLn3stza2h4h8CVa/lE10DPnPHmAFwKnQLQAyD1GtoIiJmLHkxgBUJSyqvaqpS9abyVR0iTPafGZky3b4eOTt8NSpVSdfgy59X4avP/0WWFx0lTzW2RYAwQNK6mB/AIHURaJlWilEX2AibpjiQvp3H2vsi+Yp9ltMixDm64evb52GluG2ax1MS03DqwNHqWZp02h1SBvwFjwN5D8Hoc/Y2RYAJ1rY6iXuogCEACCFa2o0GvkmQ0HZEgksKSkWKxnaqsNdiE1U3l8Y4OWNL8fdiQ7RjpWpfkkt8PGo22HQKx/M0zxlEuKM/YTmkFJy2RbOjgGIFcsCkHq6kRcJCg6Ft7e8KHnRd5dI/rbIdw8A7bs9jtBIOSmn0oj2D8QPE+9G8zDHXZwnpnTCu0PHq2JpS+n8kHAVxJIS+mfs7BgAQQWALQBOgqxphYSGw9NTeoEYQMz/D4gFlogeUJU3ZErwji08dDp8P3E6UqKkfw29jc3wwYgJiu0BAEIi2ihSp720mF4WVaQjHQXBAyoUgLeE58jyFRUtvzinSNtsQCwwUlTB1mr1SBvwtnDDoKr4exnww8S7kRgkPZ33lpYpeGXALYrtAQCiE3qiVYdpQnNUWMwoL80nj4+Pd25gvZMU7HqLuygA5A86imBC1QhqAMHB9GAhkZdTJV6GIPQY9K4ipUwBoNxsxs97t6NCRm5vqcmEX/btUGR9oPLf6R3ZKX81qaiwoKyUXps9SOC7pRAQEAg/P3LJZw2kvdwF5Mu5AbaAqHzliC0OwNc/Gt36y6uMZ4/80hLMOiCvDXZ+aQlmpou3zq7E1z8G3fu9DlHzZ2lJDioqLKSxnl5eInn5JKJlxq/UIAiAn0JbcUvcRQEgq2kxsfJvbKL/0kHB9DRAU3mR44ckEBqZgi69X1BkLgCYdWAXXv1zISwVjpWAcrMZTy3+A5vO0svtVkWj1aHHoHfg60f3+1diKi8iH1A6nQ4BAXTfKBUnmCnpGQCEvYm6AAIF5Ku8nF4AqioxCb3RttP9iswFAJ9vX48PN/4p6dmCslLcP/cnHMikR9tXRaf3Qs/B7wn5/SsR+XxFFDsqPr6+ous2aCuAuygAZDWNFEQleECJ3BJNphKxxatgbD4STVvfqth8sw/uxuurFtq1BJSbzXhy8R9Yd5reba8mHbo/iYgYZeqDi3y+AQGBQt0eqThBAaDLVx3R6o4QdQGIHNhmBeWrdeo9ipbi/nrnJvzftnV2n7G+/H/E/stKte/WoGvfVxAc1lKR2UQ+X5H6KSJwHIBt6r0CIDdFCRBPUwoICCQfckoeUACQ2uMZRVqbVjLrwG68sWoxzHXcoovLy/DYwt+w9tRRxdYzNhuB5m2Vi7w2m0rJYwMb7gFFjwEguACELQACrWKVlS8NuvZ9WXILainM2LIGn2xeXefvckuKcf/cH7EvQ6mXv7WFdkLTIYrNJyJfrlIAKFasKjToTAB3UQCcGwNAXewGer0e3j60+uEWiwkWi3ItRLVaD/Qc/B78ApT7O/0jfSeeXjwTpVXajOaUFOHeOT9gwxl6F7CahEW2u5F7rRwiLwD/AOUCv+TghFSleiVfIt+DkhY2ANB7+KDX0A8VLRL02fb1eHXlwmpKdkZ+Lqb+8Y2iL//YxD5o1/VRxeYDxD7feipfbAFwAs6rUgbxGwoAeAikwIlo0XVh8A5B3xEz4GVQTsNeeeIwHpj3E/JLS3ApL0fxw8kvIA49h7wvq8WvFEQUAGfWKK9KDOGWXQV1YwBI8iUmYEKyZVZWtgDALyAWvYf9B3q9lIQLacw6sAtPLPwdJaZynMy+iql/fINT2fT8+pqEhLdC94FvKRbIWImIfOldJF+CgYCsADgBgTQlwg1FAQVA5I9ZnUMqDr2GvA+dQpkBALDjwhlMm/ktpv7xDU5n0wsY1aRSYVGj9KrZUkYeq9OpW2XRFirfUHxgrbNBgpIGKHqo6PT0IlNmE/37t0dIeCukDXxb0RfqmlNHMX3Wd5j6+ze4nJ+r2Lx+AXGKKyyVmM31T744FdA27qAAkKuUaTQaRLogT9lisaC0hK4Ji65vi7Co9ujW/w1FD6ljWZnILKCn1dVEr/dG72H/VtRlURWNwJ90UZEyGRpyEfRROhpM/qADAoPg4ysvC0pz87/oFBfTvwe1ZAsAYhJ7I7Xnc4rOmX75IvJKixWbz8sQhD7DP1Ktr4HI2VLsIvliF4Bt3EEBIH/AQcGhMBjka7miR8ShA/tRUEAvhqHRqKcJxycNRPvuT6g2vwgajRZpA99GSHhr1dbQaum3xyOHDiAvT7mbmFQED6gIAPbMPnT/P8V0qsD7d9uWTeSxasoWACS3noBWHe5SdQ0qOr0Xeg39AP6B6hWzEpGvndu3wmw2K7gbabACYBt3UACcmgKoxP1g44a15LF6Dx94epELv0iiRcodaNluqqpryEeDzr1fQExib1VX8fGzXWfdEWazGVs3bVBwN9IIDg4hB5XCKsP2zGDOLQKkgIRtEpAvke9fKu26PgJjc2Wr9IlirWD4FsIi26m6jsjnm5eXi/R9exTcjTQUqLZpUGgrboc7KABOPaCUMBGKHFDW/vbqt9Rt3/1xRdPrxNAgtedzSGo5VvWVDD6hQsGQmzbaz9NWCxUDAckTUw5OJSzw4vKlNtbcemo7XaXRaHXoPuBNxAr20JCCf1CiULXOzS6QLz8/f5ECX1KrbdZL3EEBINurol2Qo2yxWLBt80by+IjoTmIbkIwGHXs8jWZtbnPSerZp3+1RNGsz0WnrhUd3JI91xQEFqGqmJEdARRGKAInqtoWFBdi/l14CNyI6VWwDEtFotOjW/3WXKwEajRbd+r2maMEie+h0ngiJaEMe7zIFW0y+hKII3Rl3UADkR/HdgFIESFQBOHRgP7Kz6Q1HlKp4Jw0NUns+i6atxjtxzep06P4kWrYXa0AiF5HPeP/e3cjPVy7oUSoq1gJwahEg0T4AWzdvRHl5OXl8RKzz5Kvy5RvXZIDT1qxrfWcrIZEC8rVl4/r6GAfAFgAVIReAd0UMgIgGq9V6IDyqveAO5KJB595/c4r5vSbtuz2GFu2mOH3dSIGXgNlsFrLwUBE8oOzJEFm+SBk2ghImYoHxMgQhKCRZaH25aLQ6pA182ynm92rrarTo0vdlJDYb7tR1ATEFOy8vFwf271VwN9JQUb7qNe6gADhukG2DsAj5ASmiMQAi/snQiLbQ6V0RT2INwHOWGV6j0aJj2tNOv/lXEhBkhMFHeuvVmogEeVKJiBQKXrMnQ2T5iogknHuCGraIfEXEdBLfAAGtVo8eg/6haMldR+t16/camjQf6ZT1ahIamSJUwEvkO847r28AABEJSURBVKaionzVa9xBASBrV+EEBUDERGmxWISixJ1pnqyJRqNFas+/omOPZxSvDlYVrdYD3fu/geYpk1VbwzEaoVvK5g3O91OGRwidMbYEQQOBw4uyJxH5KiwswL49u8jjneteq45W64G0gW+hTae/qLqOtTTxBy65+Vei03kiLIKebbB503oFdyMNleSr3uMOCkAEdSDpSxU4oET9/yK+M6Vo3nYSuvZ7VSif1xZ6Dx/0HvYhEpKHKj63XEQ+6/37nB8HEKnODSUYAOmqptPrERwSJnuciIVN1P8fGdOFPFYZNGjb6X7VlGyDTygGjPoM0fE9FJ9bLlZrC41NG9Y5PQ6ALQB142oFIBDEHEudTkc7oCiL3WDrFrpvWKfzRGhEW4HVlcPYbAR6D/sQeg9y7nktvH3CMXDMV4iK667YnCKEC2RbmEwmbN68RcHdOEbwgLI1mHxwhYSEOb018jYB+TL4hMI/KFHB3dBp3nYSuvd/Qyhdrib+gQkYOPprBIe1UmxOEUQUgPy8XOzfv1/B3TgmQswCwAqASpBPveCQMFJtaZEgpZ3bt5LHBoe3hlbBOv2iRMWlYcCoz+DjJ/63HRTaHAPHfo2gkGYK7EwZ/APjhcqh7ti2BWWmCgV3ZB9BE2UogLpMOk41/wNiB4qIfIVFOju41j4JyUPRd8TH8DLQWxtXEh7dEQPHfK1a+WwKIYLn2batW2EyO0++VFKw6z31VgGgfqEil5od2+m3wvCoDvSFVSI4rBWGjP8JUXFp5DmMzUZg0Jiv4evnfoGyIlXR9uzahuJyM8wW5xxSAQGBotUAw+v4OVm+wikBgAColm+LxYI9u3bQBsM95SsipjOG3PozQiNTyHM0bTUO/W75ryKKhJJodZ4ICWtJHr9n11YUlZphcZJ8CSrYYahbwa731FsFICyc9oVS7/9ZV6/g7OlTxNFAWJS6JTqpeBmC0HfER2jX9VFZfkutzhMdezyDbv1fd1Fmg2PCBFIu9+zcCovZgqJSC5x1TwkPJ4fDAHXLkoB80fZCtbAdPnRAKO5C5LtWEx/fCAwc9aXs/gF6Dx/0GPQOOvf+uyrxOkogKl8VAIrLnSNfCijY8v3N9QBXKwBOTQEUYcc2EZ+wBqER9FuA+mjQqsNd6D30Q3h6BTh82scvEgNGfe5GpYbrRuSAysvNwemTx2GpqEBJmUXBXdlGhUAlARcAbS9UBXungHzp9AYEhTYnj1cbjVaHdl0fRfcBb0pq0RsQZMSgsd86rbofFRG3y+mTx5Fz/RpM5gqUljtHvgQV7AYZB+BqBYD8jYSG1WXxlAAxSnnXzm209QAEBCW6nQmvLqITemLorb8goekQaLS14yt0ei80a3s7hk341W0CGu0RHNYSOgE/5d5d1u+8zGRxir9SBT+lgHzJHyrSClhEvkIj2rjtLbkqicnDMOTWnxCT2LtOa5uHpy9ad7wHQ8b/iMDgJBfsUB5WqybtC6+oqMC+3VaXT1m5xSmuNo4DqI2rpcb5NxTiASUUoOSm5sm68PGLRNrAt9Gh6ClczdiNgryL0Gr18A+MR3h0qiQLgbug1XogJLwNrl6mdSDbs2srbp1kLWZUXG6Bn06napkZQT9lXW9spwcBUmlIAYD28A9MQO+hH6Ko4DKuZOxGUUEmdDoP+AcZERHTSZKFwF3wMgTDPzAe+bnnSOP37NqGvgOHWV0BZRb4GuqdfNV7XK0AkP0qIaGESm8amr5qNpuFApTq0wFVibdPmNMqm6lJWFR7ugKw438vJYvFaqo0eKhnNAujWrVuDJf4M0mEEPZCDQDMybmO48eO0AajfinYlfj4RcHYbISrtyFMWFR7ugJQRb7MlgqUmSzw0tcr+ar3uNoFIKAAEA4o4lrHjh5GYWEBcTTqhbm8oSLSuez40UMoLi66+c9l5RZYKtQzVYaECp0xiioAtBobNAnbt2cXKsifqwah4fTvmBFD5LNP31f9ey8ts0BNT4AK8lXvqbcKgDMPKJH2pHoPH7cpUNIYCREonGI2m3H08IGb/1wB6yGlFqFupACEhMi3sFEVbBH58guIgaeB3OudESQ4vDV5bG7OdVy8cPbmP1fAqmSrhaB80ZuLuDGuVgDIH2ow4cuk+v/T99FMyAAQHNZC1dr7jH18/CLh7UMX/IP7q3/3ZeYKmFS6pgjeUGrKkgcAcsAGRb6oGsB+Iflyj8p4jZWg0GShgkC15MuknpWNLQC1ceWbSQNrrXISTr2hCBxQIQIaMqMMwQIFSw6l1/7u1UoLVNhHGQLin7yPrx+8vOTXdqDKl4iCHRLOCoAr0Wo9hFowH0yv3hq4AurJlwoWtnqPKxWAIBCDED09veDr5y9/IOGEqqioEOpfLfLyYZQhWOAlcWB/7ZeT2aKOFUDhG4pTzf8ArRFQYWEBTp08TloPEPtuGWUQueQcSq99tpabK1SxArAFoDauVADo/n/iF0lxAZw5fRJ5ebmk9QC2ALgDIrfEo4cPoLysrNbPy0zK31IELQDBqK5QO12+KAp2+v69sFion6VGqBwtowwi8pW+t+72z6Uq9OEQlC+OAVAYuv8/mNbkhRIEKGL+9/D0g19AHHk8owwhApHK5WVlOH7scO2fm5S/pRi8vUXKlWpgNftXQpcvQoBt5QbkImL+9w+Mh4cnwRLIKIqIFSbraiauXrlc6+dlJguUNgKEhAnH2KhZpsAlsAXAAUL+ybBWHADoBhi8Q4S6HtYMVKqkpNytbykCLoB6Il9sXXMLAoObChUwqlO+KpS3svn7B8DTy4s6XCio1l2plxYA8gFFGCOSosT+SfdBJB2wrkBAACg3K5+3rKCfUiDDhhgDQBizT0S+2PzvFmg0WgSF0luB21Kwy0zKNwqixrfcoMHFAahl0ggG0A9ATwCtASQA8AVQNWHXCwDJ3unh6QkfH1/SxuT+C+fn58FsNpPW0ukNQrXoGeUwmUpgMdf25UtB7+EBX18/m79XUogKCvJhMpnIwwGU3/j/3gBIbRq9vAwweNNudHI/i9zcHHIRIL3eG1qdB2ksoyym8mJYLOWOH6wDT08vu64vJeUrLy9XIOYEeQDkvgwsAHJv/OckgIMA1gHYDKCUuhGlUFoBGAzgIQC3AOA3H8MwDMPU5jqA3wF8DKB2kJGTUEoB6A7gIwBdFZqPYRiGYRo6FgAzATwL4IKzFxdVALwA/BPAo3B9VUGGYRiGqY8UAHgSwNfOXFREAYgEsBBAF4X2wjAMwzCNmW8APACAHAgkB6oCEAdgNQB66CfDMAzDMDVZBOBWALSoZRnoCGNCYH35cw4OwzAMwyhLc1gv13PUXkiuAqAB8CuA3irshWEYhmEYoC2AYgCb1FxErgvgEQAz1NgIwzAMwzA3McGaWUcvl+kAOQpAJICjqF7Mh2EYhmEYddgKoAegeFFEAPJS9/4KfvkzDMMwjLPoDmCUWpNLtQAEwlqkwHY9VIZhGIZhlGYzrGX1FUeqBWAi+OXPMAzDMM6mB4AWakwsVQG4VY3FGYZhGIZxyDg1JpWiAHgA6KXG4gzDMAzDOGSgGpPqJTzTDALmf61Wi2EdOyI1KQkRAQHQaNTqQMwwDMMw7oPJYsGl7GysSU/HzpMnRaZKVWpPVZHyNh4LYC51gQeHDkWX5GTqcIZhGIap9/y8fj1Wp6eLTBEOIEuh7QCQ5gIIo07eJDKSX/4MwzBMo2dCWhp0WqGmueR3sS2k7IZs/jeGh1OHMgzDMEyDwcvDA9HBwSJT+Cu1l0qkKACUhkEAAE8PD+pQhmEYhmlQeOqlhN3ZhPwutoWQPYJhGIZhmPoJKwAMwzAM0whhBYBhGIZhGiGsADAMwzBMI4QVAIZhGIZphLACwDAMwzCNEFYAGIZhGKYRwgoAwzAMwzRCWAFgGIZhmEYIKwAMwzAM0whhBYBhGIZhGiGsADAMwzBMI0SKAlBBnbzCYqEOZRiGYZgGRUUF+XUKCLyLbSFFASimTn45J4c6lGEYhmEaDBUQficWKrSVm0hRAMg7PnLxIjKuX6cOZxiGYZgGwdajR1FcViYyheI3aikKwEnq5GUmEz5ZsgSnMjOpUzAMwzBMvaUCwJajR/Hz+vUi0xQDuKTMjv6HRsIzAQCyAehEFgr29UWAj4/IFAzDMAxTr7iSmyt68weA3QA6KbCdauglPJMHYA+AziILXS8sxPVCxV0YDMMwDNPQWaPGpFLTABersTjDMAzDMA5ZosakUlwAANAUwHEZzzMMwzAMI855AEYAiufVS7UAnARbARiGYRjG2XwMFV7+gLwbfRcAW8HVAxmGYRjGGWQCSAZQoMbkciL7LwFIAJCqxkYYhmEYhqnGwwB2qjW5XJ9+MKzpCEblt8IwDMMwzA3mAxgHFUoAV0IJ6usCYC0ATupnGIZhGOU5DqAbAFVL6VL8+TsA3AZAuLIBwzAMwzDVuARgKFR++QP0gL7FAIYDyFdwLwzDMAzTmDkFoB+A085YTCSifzWArgDSFdoLwzAMwzRWFsLqYj/urAWF6vsDyALw/Y3/3w3SSgszDMMwDGMlE8AjAF6AtemP01Cysl8CgOcA3AXAX8F5GYZhGKahcQHWIj//B5Xy/B2hRmlfHwCjYQ1i6AWgCcQtDQzDMAxTnykFcAjWLLpFN/5XlQp/UnFGbX8vALGw1hCoyQ8AWlMmndSrFyIDA0X2xTAMwzDV2HvmDNYdPEgd/huAf9X4mQlANqzR/WaBrSmOM3z2pbBGNtYFuT9wREAA4kJDqcMZhmEYphanr1wRGZ4JYJdCW1EdruvPMAzDMI0QVgAYhmEYphHCCgDDMAzDNEJYAWAYhmGYRggrAAzDMAzTCGEFgGEYhmEaIawAMAzDMEwjhBUAhmEYhmmEsALAMAzDMI0QVgAYhmEYphHCCgDDMAzDNEJYAWAYhmGYRggrAAzDMAzTCGEFgGEYhmEaIawAMAzDMEwjhBUAhmEYhmmEsALAMAzDMI0Qvas3QGXpnj3w9vR09TYk46HXI9TfH61iYxEXGqraOldyc3HowgVk5uSgzGRSbR2GYZiGSFZ+vqu34DTqrQJwPCPD1VsgsWLvXjSLjsb4bt0QFhCg2Lz5JSWYt20b0s+eRYViszIMwzANFXYBuIDjGRn4eMkSnL16VZH5svLz8fHixdjPL3+GYRhGIqwAuIjisjJ8v2YN8oqLheYpN5nw7erVyCksVGhnDMMwTGOAFQAXkl9SghV79wrNsfHIEVzJzVVoRwzDMExjgRUAF7P71CmhYL2tx44puBuGYRimscAKgIspN5vJsQDX8vORXVCg8I4YhmGYxkC9zQJoSFzJzT3fLDo6W+64rIICXwDJKmyJYRiGaeBoXLz+cgBDXLwHd+A2ADMJ4zoB2KnwXhiGYRgarwB409WbkIqrXQDswLZynDjuFACzkhthGIZhyFDPcpfgagVggYvXdwfOANhHHHsdwHrltsIwDMMQKQWwzNWbkIOrFYA/AWxx8R5czduAUP2eN5TaCMMwDENmBoAcV29CDq6OAQCAlrAqAUGu3ogLWA7gFoib8T8F8LD4dhiGYRgChwCkAchz9UbkoHP1BgBkAVgHYCQAPxfvxZnMBzAJVrORKCsAhAPoosBcDMMwjHR2wHqRy3L1RuTiahdAJVsBpAD4D4BrLt6L2uwDMAXAOABKJfGbYLUADAewCYBFoXkZhmGYujkF4EkAvQBccvFeSLiDC6AmOgBtAcQB8HHxXpTkCqx/MOedsFYkgGY3/tddlDyGYZiGwHUAZ1HPIv4ZhmEYhmEYhmEYhmEYhmEYhmEYhmEYhmEYhmEYhmEYhmEYhqnP/D9ge82OafvuRQAAAABJRU5ErkJggg==;" parent="oP2a7q_iQrm_6OJs4VRY-23" vertex="1">
                    <mxGeometry x="28" y="60" width="112" height="112" as="geometry"/>
                </mxCell>
                <mxCell id="oP2a7q_iQrm_6OJs4VRY-12" style="edgeStyle=orthogonalEdgeStyle;rounded=0;orthogonalLoop=1;jettySize=auto;html=1;exitX=0.5;exitY=1;exitDx=0;exitDy=0;fontFamily=Verdana;fontSize=19;" parent="oP2a7q_iQrm_6OJs4VRY-23" source="oP2a7q_iQrm_6OJs4VRY-13" target="oP2a7q_iQrm_6OJs4VRY-5" edge="1">
                    <mxGeometry relative="1" as="geometry"/>
                </mxCell>
                <mxCell id="oP2a7q_iQrm_6OJs4VRY-13" value="&lt;font face=&quot;Verdana&quot;&gt;&lt;span style=&quot;font-size: 19px&quot;&gt;&lt;b&gt;Estudiantes&lt;/b&gt;&lt;/span&gt;&lt;/font&gt;" style="text;html=1;strokeColor=none;fillColor=none;align=center;verticalAlign=middle;whiteSpace=wrap;rounded=0;" parent="oP2a7q_iQrm_6OJs4VRY-23" vertex="1">
                    <mxGeometry width="168" height="30" as="geometry"/>
                </mxCell>
                <mxCell id="oP2a7q_iQrm_6OJs4VRY-31" value="" style="endArrow=none;html=1;rounded=0;exitX=1;exitY=0.5;exitDx=0;exitDy=0;entryX=0;entryY=0.5;entryDx=0;entryDy=0;startArrow=none;" parent="oP2a7q_iQrm_6OJs4VRY-20" source="oP2a7q_iQrm_6OJs4VRY-32" target="oP2a7q_iQrm_6OJs4VRY-16" edge="1">
                    <mxGeometry width="50" height="50" relative="1" as="geometry">
                        <mxPoint x="210" y="320" as="sourcePoint"/>
                        <mxPoint x="260" y="270" as="targetPoint"/>
                    </mxGeometry>
                </mxCell>
                <mxCell id="oP2a7q_iQrm_6OJs4VRY-32" value="Pertenece" style="text;html=1;strokeColor=none;fillColor=none;align=center;verticalAlign=middle;whiteSpace=wrap;rounded=0;" parent="oP2a7q_iQrm_6OJs4VRY-20" vertex="1">
                    <mxGeometry x="238" y="470" width="60" height="30" as="geometry"/>
                </mxCell>
                <mxCell id="oP2a7q_iQrm_6OJs4VRY-33" value="" style="endArrow=none;html=1;rounded=0;exitX=1;exitY=0.5;exitDx=0;exitDy=0;entryX=0;entryY=0.5;entryDx=0;entryDy=0;" parent="oP2a7q_iQrm_6OJs4VRY-20" source="oP2a7q_iQrm_6OJs4VRY-5" target="oP2a7q_iQrm_6OJs4VRY-32" edge="1">
                    <mxGeometry width="50" height="50" relative="1" as="geometry">
                        <mxPoint x="440.0000000000002" y="526" as="sourcePoint"/>
                        <mxPoint x="540" y="460" as="targetPoint"/>
                    </mxGeometry>
                </mxCell>
                <mxCell id="oP2a7q_iQrm_6OJs4VRY-35" value="" style="endArrow=none;html=1;rounded=0;exitX=1;exitY=0.5;exitDx=0;exitDy=0;entryX=0;entryY=0.5;entryDx=0;entryDy=0;startArrow=none;" parent="oP2a7q_iQrm_6OJs4VRY-20" source="oP2a7q_iQrm_6OJs4VRY-36" target="oP2a7q_iQrm_6OJs4VRY-17" edge="1">
                    <mxGeometry width="50" height="50" relative="1" as="geometry">
                        <mxPoint x="260" y="350" as="sourcePoint"/>
                        <mxPoint x="310" y="300" as="targetPoint"/>
                    </mxGeometry>
                </mxCell>
                <mxCell id="oP2a7q_iQrm_6OJs4VRY-36" value="Tiene" style="text;html=1;strokeColor=none;fillColor=none;align=center;verticalAlign=middle;whiteSpace=wrap;rounded=0;" parent="oP2a7q_iQrm_6OJs4VRY-20" vertex="1">
                    <mxGeometry x="580" y="415" width="60" height="30" as="geometry"/>
                </mxCell>
                <mxCell id="oP2a7q_iQrm_6OJs4VRY-37" value="" style="endArrow=none;html=1;rounded=0;exitX=1;exitY=0.5;exitDx=0;exitDy=0;entryX=0;entryY=0.5;entryDx=0;entryDy=0;" parent="oP2a7q_iQrm_6OJs4VRY-20" source="oP2a7q_iQrm_6OJs4VRY-16" target="oP2a7q_iQrm_6OJs4VRY-36" edge="1">
                    <mxGeometry width="50" height="50" relative="1" as="geometry">
                        <mxPoint x="800" y="450" as="sourcePoint"/>
                        <mxPoint x="960" y="450" as="targetPoint"/>
                    </mxGeometry>
                </mxCell>
                <mxCell id="oP2a7q_iQrm_6OJs4VRY-38" value="" style="endArrow=none;html=1;rounded=0;exitX=1;exitY=0.5;exitDx=0;exitDy=0;entryX=0;entryY=0.5;entryDx=0;entryDy=0;startArrow=none;" parent="oP2a7q_iQrm_6OJs4VRY-20" source="oP2a7q_iQrm_6OJs4VRY-39" target="oP2a7q_iQrm_6OJs4VRY-15" edge="1">
                    <mxGeometry width="50" height="50" relative="1" as="geometry">
                        <mxPoint x="200" y="430" as="sourcePoint"/>
                        <mxPoint x="250" y="380" as="targetPoint"/>
                    </mxGeometry>
                </mxCell>
                <mxCell id="oP2a7q_iQrm_6OJs4VRY-39" value="Tiene" style="text;html=1;strokeColor=none;fillColor=none;align=center;verticalAlign=middle;whiteSpace=wrap;rounded=0;" parent="oP2a7q_iQrm_6OJs4VRY-20" vertex="1">
                    <mxGeometry x="238" y="530" width="60" height="30" as="geometry"/>
                </mxCell>
                <mxCell id="oP2a7q_iQrm_6OJs4VRY-40" value="" style="endArrow=none;html=1;rounded=0;exitX=1;exitY=0.5;exitDx=0;exitDy=0;entryX=0;entryY=0.5;entryDx=0;entryDy=0;" parent="oP2a7q_iQrm_6OJs4VRY-20" source="oP2a7q_iQrm_6OJs4VRY-5" target="oP2a7q_iQrm_6OJs4VRY-39" edge="1">
                    <mxGeometry width="50" height="50" relative="1" as="geometry">
                        <mxPoint x="440.0000000000002" y="526" as="sourcePoint"/>
                        <mxPoint x="580" y="590.0000000000002" as="targetPoint"/>
                    </mxGeometry>
                </mxCell>
                <mxCell id="oP2a7q_iQrm_6OJs4VRY-41" value="" style="endArrow=none;html=1;rounded=0;entryX=0.5;entryY=0;entryDx=0;entryDy=0;exitX=0.5;exitY=1;exitDx=0;exitDy=0;startArrow=none;" parent="oP2a7q_iQrm_6OJs4VRY-20" source="oP2a7q_iQrm_6OJs4VRY-42" target="oP2a7q_iQrm_6OJs4VRY-15" edge="1">
                    <mxGeometry width="50" height="50" relative="1" as="geometry">
                        <mxPoint x="295" y="460" as="sourcePoint"/>
                        <mxPoint x="345" y="410" as="targetPoint"/>
                    </mxGeometry>
                </mxCell>
                <mxCell id="oP2a7q_iQrm_6OJs4VRY-42" value="Administra" style="text;html=1;strokeColor=none;fillColor=none;align=center;verticalAlign=middle;whiteSpace=wrap;rounded=0;" parent="oP2a7q_iQrm_6OJs4VRY-20" vertex="1">
                    <mxGeometry x="435" y="500" width="60" height="30" as="geometry"/>
                </mxCell>
                <mxCell id="oP2a7q_iQrm_6OJs4VRY-43" value="" style="endArrow=none;html=1;rounded=0;entryX=0.5;entryY=0;entryDx=0;entryDy=0;exitX=0.5;exitY=1;exitDx=0;exitDy=0;" parent="oP2a7q_iQrm_6OJs4VRY-20" source="oP2a7q_iQrm_6OJs4VRY-16" target="oP2a7q_iQrm_6OJs4VRY-42" edge="1">
                    <mxGeometry width="50" height="50" relative="1" as="geometry">
                        <mxPoint x="510" y="500" as="sourcePoint"/>
                        <mxPoint x="750" y="590.0000000000002" as="targetPoint"/>
                    </mxGeometry>
                </mxCell>
                <mxCell id="oP2a7q_iQrm_6OJs4VRY-44" value="" style="endArrow=none;html=1;rounded=0;entryX=0.5;entryY=1;entryDx=0;entryDy=0;startArrow=none;" parent="oP2a7q_iQrm_6OJs4VRY-20" source="oP2a7q_iQrm_6OJs4VRY-45" target="oP2a7q_iQrm_6OJs4VRY-14" edge="1">
                    <mxGeometry width="50" height="50" relative="1" as="geometry">
                        <mxPoint x="260" y="420" as="sourcePoint"/>
                        <mxPoint x="310" y="370" as="targetPoint"/>
                    </mxGeometry>
                </mxCell>
                <mxCell id="oP2a7q_iQrm_6OJs4VRY-45" value="Tiene" style="text;html=1;strokeColor=none;fillColor=none;align=center;verticalAlign=middle;whiteSpace=wrap;rounded=0;" parent="oP2a7q_iQrm_6OJs4VRY-20" vertex="1">
                    <mxGeometry x="715" y="250" width="60" height="30" as="geometry"/>
                </mxCell>
                <mxCell id="oP2a7q_iQrm_6OJs4VRY-46" value="" style="endArrow=none;html=1;rounded=0;entryX=0.5;entryY=1;entryDx=0;entryDy=0;exitX=0.5;exitY=0;exitDx=0;exitDy=0;" parent="oP2a7q_iQrm_6OJs4VRY-20" source="oP2a7q_iQrm_6OJs4VRY-17" target="oP2a7q_iQrm_6OJs4VRY-45" edge="1">
                    <mxGeometry width="50" height="50" relative="1" as="geometry">
                        <mxPoint x="788.1954988144753" y="380.7894972337749" as="sourcePoint"/>
                        <mxPoint x="1045" y="220" as="targetPoint"/>
                    </mxGeometry>
                </mxCell>
                <mxCell id="oP2a7q_iQrm_6OJs4VRY-48" value="" style="endArrow=none;html=1;rounded=0;entryX=0.5;entryY=1;entryDx=0;entryDy=0;exitX=0.5;exitY=0;exitDx=0;exitDy=0;startArrow=none;" parent="oP2a7q_iQrm_6OJs4VRY-20" source="oP2a7q_iQrm_6OJs4VRY-49" target="oP2a7q_iQrm_6OJs4VRY-18" edge="1">
                    <mxGeometry width="50" height="50" relative="1" as="geometry">
                        <mxPoint x="331" y="320" as="sourcePoint"/>
                        <mxPoint x="381" y="270" as="targetPoint"/>
                    </mxGeometry>
                </mxCell>
                <mxCell id="oP2a7q_iQrm_6OJs4VRY-49" value="Envia" style="text;html=1;strokeColor=none;fillColor=none;align=center;verticalAlign=middle;whiteSpace=wrap;rounded=0;" parent="oP2a7q_iQrm_6OJs4VRY-20" vertex="1">
                    <mxGeometry x="446" y="190" width="60" height="30" as="geometry"/>
                </mxCell>
                <mxCell id="oP2a7q_iQrm_6OJs4VRY-50" value="" style="endArrow=none;html=1;rounded=0;entryX=0.5;entryY=1;entryDx=0;entryDy=0;exitX=0.5;exitY=0;exitDx=0;exitDy=0;" parent="oP2a7q_iQrm_6OJs4VRY-20" source="oP2a7q_iQrm_6OJs4VRY-19" target="oP2a7q_iQrm_6OJs4VRY-49" edge="1">
                    <mxGeometry width="50" height="50" relative="1" as="geometry">
                        <mxPoint x="776" y="270" as="sourcePoint"/>
                        <mxPoint x="776" y="190" as="targetPoint"/>
                    </mxGeometry>
                </mxCell>
                <mxCell id="oP2a7q_iQrm_6OJs4VRY-55" value="" style="endArrow=none;html=1;rounded=0;entryX=0;entryY=1;entryDx=0;entryDy=0;exitX=0.5;exitY=0;exitDx=0;exitDy=0;startArrow=none;" parent="oP2a7q_iQrm_6OJs4VRY-20" source="oP2a7q_iQrm_6OJs4VRY-56" target="oP2a7q_iQrm_6OJs4VRY-18" edge="1">
                    <mxGeometry width="50" height="50" relative="1" as="geometry">
                        <mxPoint x="200" y="430" as="sourcePoint"/>
                        <mxPoint x="250" y="380" as="targetPoint"/>
                    </mxGeometry>
                </mxCell>
                <mxCell id="oP2a7q_iQrm_6OJs4VRY-56" value="Tiene" style="text;html=1;strokeColor=none;fillColor=none;align=center;verticalAlign=middle;whiteSpace=wrap;rounded=0;" parent="oP2a7q_iQrm_6OJs4VRY-20" vertex="1">
                    <mxGeometry x="168" y="330" width="60" height="30" as="geometry"/>
                </mxCell>
                <mxCell id="oP2a7q_iQrm_6OJs4VRY-57" value="" style="endArrow=none;html=1;rounded=0;entryX=0.5;entryY=1;entryDx=0;entryDy=0;exitX=1;exitY=0;exitDx=0;exitDy=0;" parent="oP2a7q_iQrm_6OJs4VRY-20" source="oP2a7q_iQrm_6OJs4VRY-5" target="oP2a7q_iQrm_6OJs4VRY-56" edge="1">
                    <mxGeometry width="50" height="50" relative="1" as="geometry">
                        <mxPoint x="800" y="450" as="sourcePoint"/>
                        <mxPoint x="811" y="150" as="targetPoint"/>
                    </mxGeometry>
                </mxCell>
                <mxCell id="oP2a7q_iQrm_6OJs4VRY-53" value="Pertenece" style="text;html=1;strokeColor=none;fillColor=none;align=center;verticalAlign=middle;whiteSpace=wrap;rounded=0;" parent="oP2a7q_iQrm_6OJs4VRY-20" vertex="1">
                    <mxGeometry x="190" y="250" width="60" height="30" as="geometry"/>
                </mxCell>
                <mxCell id="oP2a7q_iQrm_6OJs4VRY-54" value="" style="endArrow=none;html=1;rounded=0;entryX=0.5;entryY=1;entryDx=0;entryDy=0;exitX=0;exitY=0.5;exitDx=0;exitDy=0;" parent="oP2a7q_iQrm_6OJs4VRY-20" source="oP2a7q_iQrm_6OJs4VRY-16" target="oP2a7q_iQrm_6OJs4VRY-53" edge="1">
                    <mxGeometry width="50" height="50" relative="1" as="geometry">
                        <mxPoint x="415" y="390" as="sourcePoint"/>
                        <mxPoint x="140.00000000000023" y="184" as="targetPoint"/>
                    </mxGeometry>
                </mxCell>
                <mxCell id="oP2a7q_iQrm_6OJs4VRY-58" value="" style="endArrow=none;html=1;rounded=0;exitX=1;exitY=0.25;exitDx=0;exitDy=0;entryX=0.227;entryY=0.91;entryDx=0;entryDy=0;entryPerimeter=0;startArrow=none;" parent="oP2a7q_iQrm_6OJs4VRY-20" source="oP2a7q_iQrm_6OJs4VRY-59" target="oP2a7q_iQrm_6OJs4VRY-19" edge="1">
                    <mxGeometry width="50" height="50" relative="1" as="geometry">
                        <mxPoint x="200" y="430" as="sourcePoint"/>
                        <mxPoint x="250" y="380" as="targetPoint"/>
                    </mxGeometry>
                </mxCell>
                <mxCell id="oP2a7q_iQrm_6OJs4VRY-59" value="Recibe" style="text;html=1;strokeColor=none;fillColor=none;align=center;verticalAlign=middle;whiteSpace=wrap;rounded=0;" parent="oP2a7q_iQrm_6OJs4VRY-20" vertex="1">
                    <mxGeometry x="238" y="390" width="60" height="30" as="geometry"/>
                </mxCell>
                <mxCell id="oP2a7q_iQrm_6OJs4VRY-60" value="" style="endArrow=none;html=1;rounded=0;exitX=1;exitY=0.25;exitDx=0;exitDy=0;entryX=0.227;entryY=0.91;entryDx=0;entryDy=0;entryPerimeter=0;" parent="oP2a7q_iQrm_6OJs4VRY-20" source="oP2a7q_iQrm_6OJs4VRY-5" target="oP2a7q_iQrm_6OJs4VRY-59" edge="1">
                    <mxGeometry width="50" height="50" relative="1" as="geometry">
                        <mxPoint x="440.0000000000002" y="498" as="sourcePoint"/>
                        <mxPoint x="679.5900000000001" y="342.79999999999995" as="targetPoint"/>
                    </mxGeometry>
                </mxCell>
                <mxCell id="oP2a7q_iQrm_6OJs4VRY-21" value="" style="group" parent="1" vertex="1" connectable="0">
                    <mxGeometry x="20" y="250" width="168" height="167.5" as="geometry"/>
                </mxCell>
                <mxCell id="oP2a7q_iQrm_6OJs4VRY-7" value="" style="shape=image;verticalLabelPosition=bottom;labelBackgroundColor=#ffffff;verticalAlign=top;aspect=fixed;imageAspect=0;image=data:image/png,iVBORw0KGgoAAAANSUhEUgAAAgAAAAIACAYAAAD0eNT6AAAABHNCSVQICAgIfAhkiAAAAAlwSFlzAAAL0AAAC9ABdzF0jwAAABl0RVh0U29mdHdhcmUAd3d3Lmlua3NjYXBlLm9yZ5vuPBoAACAASURBVHic7N11eJ3l/cfx9zlxT5o0qaRKW6p4gdJSasBwt+HbYGPYGBs2YMhggzGGDQZDhzsMaKFO3d09bZM0SeOeY78/Dt2vo5bkuc95jnxe15WLC2i/59ukyf0593OLAxEJZynACGA40B/oB+T98N/TbOxLRKypAuqBYmADsAaYAcwHWky8gMNEEREJqhTgAuBqYDQQZ287IhJEDcAE4N8//NPV3kIKACLhIwe4BbgNyLK5FxGxXynwEvA0UNPW36wAIBL64oDbgT8CqTb3IiKhpwS4C3gb8LX2NykAiIS2I4F3gMF2NyIiIW86cA2wozW/2BnQVkTEihuBuWjwF5HWGQUsBc5qzS+OCWgrItIeDuAh4Cm0wE9E2iYZuAwoAxYd7BcqAIiEFgfwL+AOuxsRkbDlxD8L4AZmHugXKQCIhJangJvtbkJEIsIY/OcJzN/f/9QiQJHQcSvwnN1NiEhE8QLnAt/8+H8oAIiEhuOA2UC83Y2ISMSpBI4GCvb+j9oFIGK/JOB9NPiLSGBkAW/wozf9CgAi9rsX6GN3EyIS0UYDV+79H/QIQMRePYD1QILdjYhIxNsFHIb/PgHNAIjY7C40+ItIcHQCbtjzL5oBELFPLv5FOYl2NyIiUaMQ6AW4NAMgYp+r0OAvIsHVFfgJQKzNjYhEs6tNFkuMcXJZ7zzO696RwzOSyUuKx6lJPpGw4/J5KW1sYVlFHZ8XlPFlQRkeX6sv+WuNq4Gv9NNBxB49gG2mil3QoyPPntiPbimaUBCJNKsr67lx9lrmlFabKlkPdNAjABF7jDZV6K4hPfh07BEa/EUi1KCsFKaecQyX984zVTIFOF4BQMQeJ5socnnvPP4ytI8m+kUiXEKMkzdPHsiw3AxTJU9WABCxx0CrBTLiY3lh2OEa/EWiREKMk9dGDCDWaeS7foACgIg9+lktcOPhXclOiDPRi4iEiQGZKZzTLcdEqf4KACLBlwh0sFrkgh4dDbQiIuHmgh65Jsp0VgAQCb5UE0WO6GCkjIiEmSPNfO+n6RwAkeCz/N2bGhdDSmyM5UZeWV9oucZ1fTsT77T2XuKDLSXUuNyWalzYI5ecRGuPRMbvLGdnfZOlGqd26UCvtCRLNUQOplOykYtDFQBEbGB55i3OzCIgfjl7neUal/TMIz7B2h/pvsWb2VrbaKnGsdnplgPA06u2M6WowlKNj0YPUQCQgIpzGJm8txjbRUREJCwpAIiIiEQhBQAREZEopAAgIiIShRQAREREopACgIiISBRSABAREYlCwToH4HLgcYs1xgO3WKxxEvCOxRqhoho42u4mREQkPAUrAKQDvSzWMHERcrKBPkJFld0NiIhI+NIjABERkSikACAiIhKFFABERESikAKAiIhIFFIAEBERiUIKACIiIlEoWNsARSQEXdwz13KN+BiH5Rpn5mdT0thiqUZWgvUfZ6d0yiQr3lqdbikJlvsQCQYFAJEo9vGYIXa3AMALww63uwUAHjgqUo4JETk0PQIQERGJQgoAIiIiUUgBQEREJAopAIiIiEQhBQAREZEopAAgIiIShRQAREREopD1EzxaJwfoYbFGJbDFYo00oJ/FGqHCDSy3uwlpl97AZisFYhwOjspONdSOiIQTjxeWVdRarhOsACAi/89yABARsUqPAERERKKQAoCIiEgUUgAQERGJQgoAIiIiUUgBQEREJAopAIiIiEQhBQAREZEopAAgIiIShRQAREREopACgATKicDVdjchIiL7F2t3AxKRjgXGA5lAMvCyve2IiMiPKQCIaccCk4CsH/79pR/+qRAgIhJC9AhATPrx4A/+C6deAn5pS0ciIrJfCgBiyv4G/z0UAkREQowCgJhwsMF/D4UAEZEQojUAYlVrBv899oQA0JoAS2ITUxj5+9ftbkNEbOBuamDGX6+3XEcBQKxoy+C/h0KAAc6YWDoNGWl3GyJig5b6aiN19AhA2qs9g/8eehwgImIzBQBpDyuD/x4KASIiNlIAkLYyMfjvoRAgImITBQBpC5OD/x4KASIiNlAAkLa4D7OD/x4O4EXgugDUFhGR/VAAkLb4KfBNgGo7gdfRTICISFAoAEhbNAMXEbgQoMcBIiJBogAgbaUQICISARQApD0UAkREwpwCgLSXQoCISBhTABArFAJERMKUAoBYpRAgIhKGFADEBIUAEZEwowAgpigEiIiEEQUAMUkhQEQkTMQCHxuocx1Qb7HGC0CexRp3A1ss1ngAGGKxRrTz/fDhCEDtPccGNwNvBqC+SMhwN9VTU7SZ2uLN1BRtwd3cgKuhBldjPQ6ng9iEZOJTMolLTiWt82Gkd+5Nepc+OOPi7W5dwkAscLGBOjdiPQCcCfSyWOMvFn8/wEhgnIE6Ejh7jg1OAF62uRcRY1rqayhZNYuS1bMpWTWL6p0b2lzD4Ywhq9dg8gYN/+HjJGLiEwPQrYS7WLsbEGmnPTMBTcBbNvci0m4+r4eS1bPZ+v3H7Jj/De7mRsv1KjYvp2Lzctb+50XiktLIH3o63YedQ5ejx+JwxhjqXMKdAoCEMyfwGlACfGtzLyJt4m5uYPOUd1n71Us0lBcH7HVcjbVsnfEJW2d8QmpeDwaedwu9R1+GMyYuYK8p4UEBQMJdDP61AH2AOntbETk0r8fF+vGvsubLf9BcUx7U164rKWDBK79nzRfPM+SS39Fr5MXgCMRSHQkH2gUgkSAPuNXuJkQOpXTtPL696zSWvv1I0Af/vdWVbmfuP25j8kMXULV9rW19iL0UACRSXGZ3AyIH4nE1s/DVe5j80IVU7Vhndzv/Vbp2Pt/efTqrP38Wn89rdzsSZAoAEimOBDLsbkLkx+rLdjD5jxewceJb4PPZ3c4+vB4Xy9//C1MfvYymqlK725EgUgCQSNLZ7gZE9layejbjfzeW8k1L7W7lkEpWzeLbe89o19ZDCU8KABJJmu1uQGSPnQu/ZfrjV+JqrLW7lVZrKC9i0gPnUrZugd2tSBAoAEikaAECt5dKpA22zfyUmX/7BR5X+GXSlvpqpj12OSWr59jdigSYAoBEiu/xHwokYquiJZOZ9+Id+Lweu1tpN3dzIzOevI6KrSvtbkUCSAFAIsVrdjcgsnvjYmb9/Ua8HpfdrVjmaqxl+p+voq50u92tSIAoAEgkmAd8ZHcTEt1a6qqY/fdfWj7KN5Q0VZUy46/X42nR5FokUgCQcFcCXIL/9kERe/h8zP3H7dTvLrS7E+OqCtaw9J1H7W5DAkABQMJZGXAqsNPuRiS6rRv/LwoXT7S7jYDZ8O3r7Fz0nd1tiGEKABKuyoCxgFYpia0ayotZ8eGTdrcRcItf/wPu5ga72xCDYoFfGqhTb6DGfUC6xRoFBvp4BvjYQJ1o1gf4Hf4rewNBg7+EjCVvPYi7ycSPwANLSnBw/JAEBh4WT/fOsaSnOvF6obrOy7ZCFys3trB4dQtuT+CehNXvLmT1Z89y5BX3Buw1JLhigVfsbuIHH9jdwA++sbuBMNcXeBAN/hIFytYtYPu8rwNSOzbGwYXjkrn2vDTGnphEQvzBv6XqGrx8/X0Db35Ry8Q5jQE5dXjtVy/R59RrSMnpar64BJ0eAYhJfYFpQKB+Omjwl5Cy6rNnjNd0OOCac9PYML4bH/4tjzNHJh9y8AdITXZy+RmpfPtyZ5Z8nM/pw5OM9+Z1u1j7nxeN1xV7KACIKRr8JapUbFlB8bJpRmvm58Uy9fXOvPV4R3p1jW13naP6x/Pty51578lcMlLN/pjfPPU9XRoUIRQAxAQN/hJ11n1j9unpSUclsvSTrowaau6d+xVnprLoo6707RFnrKanpYmNk/5trJ7YRwFArOqDBn+JMu6menYumGCs3pgTkpj0amdysmKM1dyjT/c4Zr3dhUF94o3V3Drj05C82ljaRgFArNDgL1Fp+/xvjG2JO6p/PF88l0dyYqDWzUJuhxi+fbkTXXLNBIy6km2UrV9opJbYRwFA2mvP4J8foPoa/CVkbZ/zpZE66alOPn46j7SUwP8ozs+L5f0n84iNMRM0Cub+x0gdsY8CgLSHBn+JWj6Pm7J1C4zUevz2DvTpbu75/KGMPC6Rm6+wetyKX8mqWUbqiH0UAKStNPhLVNu9aSmuxjrLdQb1iedXl5kZjNvikVuy6JBh/Ud/9c4N2g0Q5hQApC00+EvUK10zx0ide36RSYwNP4HTU53cemWG9UI+H6Vr51mvI7ZRAJC2eI7ADv7j0OAvIa5q+3rLNTpkOLnktBQD3bTPjRenGwkfVTusfy7EPgoA0hZXAosDUHfP4L8iALVFjKot2mS5xoXjUlp1ul+gdMmNYcQxiZbr1BRa/1yIfRQApC0q8V+/azIEaPCX8OHzUVO8xXKZccPMH9PbVmNPtN5DbfFmA52IXRQApK1MhgAN/hJWXE11Rm7+Gzo4wUA31hw/xPoMQGNliYFOxC4KANIeJkKABn8JOyYG//g4Bz26BG/r34H062m9BxO7IcQ+CgDSXlZCgAZ/CUuuRusBIDPNacvq/x/LNrAV0NPShM/jNtCN2CEE/hpKGGtPCNDgL2HL09JkuUZSAI/8bYuUZDM//t0tjUbqSPApAIhVbQkBGvwlrDljrU+bNzSGxiU6dQ1eI3Vi4+1f0CjtowAgJrQmBGjwl7AXm5BsuUZljReX2/4QUFbhsVwjNiEJR0ysgW7EDgoAYsrBQoAGf4kIiRk5lmu4PT627rT/ufmGbS7LNWITUw10InZRABCT9hcCNPhLxIiJTyQ+xfoxuvNXNhvoxv4ekrM7G+hE7KIAIKbtHQI0+EvESevc23KNyXPtXzg3aY71HtK79DHQidhFAUACoRL4CTAaDf4SYTK79bdc44up9TQ02bcOoKDIzbwV1nc0pHc5zEA3YhcFAAmU3cBqu5sQMa1D7yMs16ip8/LOV7UGummfFz+owWcgf2R0H2C9iNhGAUBEpA06DjzRSJ0nXqumxRX8WYCySg8vfVhjuY7D4SR3gJnPhdhDAUBEpA0y8w8nMaOj5Tpbdrr425vVBjpqm3uerqC23voZAJk9BpCQlmWgI7GLAoCISFs4HOQfd5qRUo/8s5Ll61uM1GqNr79v4I0vzDx66DRkpJE6Yh8FABGRNup24tlG6jQ1+7jktyXsrrR+KM+hbNjm4tr7So08+wfoMfx8M4XENgoAIiJt1GnIySRndzFSa2OBizNv2kVljZmjefenoMjN6b8spqLazGtk5PczshhS7KUAICLSRg5nDIeN+amxegtXNXPKtUVsLzZ/QuDStc2cdFUh2wrN1e51yiXGaol9FABERNqh72nXEptg7iKclRtbOPrinXw6yfqVwwBeLzz/bjUnXVVEUam5RwxxSan0GXuVsXpiHwUAEZF2SMzI4bAxVxqtWVHt5eI7Sjjzpl0sXdv+o3qnzGvkxJ8Wctufy2lqNrvVsO9p1xGfmmm0pthDAUBEpJ0GXXg7cUlpxutOmNnAsZcWMu4Xxfz7P7WtWiS4s8TNC+/VMPQy/+9buMr8fQOxCcn0P/tG43XFHrrHUUSknRIzcugz7irWfvWS8do+n/+d/JR5jTidMPCweAb2jqNHlzjSUx14vVBd52XrTjcrN7awabv12/0OZdCFtxs5A0FCgwKAiEg77d6wiE2T3wn463i9sGpjC6s2Bu/MgB9L69ybAWf/yrbXF/P0CEBEpB12b1jEtMd+iqvRvjP9g8XhcHL8jU/ijIu3uxUxSAFARKSNomnwBxh04W3kDRpudxtimAKAiEgbRNvgnzvgRIZcfKfdbUgAKACIiLRStA3+qbndGXHHyzhitFwsEikAiIi0QrQN/glpHRh133skZuba3YoEiAKAiMghRNvgH5+Swej73iO9y2F2tyIBpHkdEZGDiLbBPykrj1H3vktWz0F2tyIBpgAgInIA0Tb4p3fty+j73iOlY77drUgQKACIiOxHtA3+3U44kxNv+jtxyel2tyJBogAgIvIj0TT4xyYkc8y1D9NnnG74izYKACIiewn04J+QlkVzXZX/sH+bdTv+DI657lFScrra3YrYQAFAROQHgR78U/N6Mu6hz2isKmHp249QumZuQF7nULJ6DebIy++ly9FjbHl9CQ0KACIiBG/wT87uTHJ2Z8Y99Bmla+ay+ovnKV4+PSgzAjmHD2XwBbfR5eix4HAE/PUktCkAiEjUC+bgv7fcgcPIHTiMupJtbJ72AQWzv6SuZJvR107u0IkeIy6k1ymXkNmtv9HaEt4UAUWCrzew2UqB+JQMLn5jnaF2optdg/+BVBaspnjZdErXzqN842Kaayvb9HpxSWnk9DuWvMEjyBs8nA69j8Dh0JlvkaSlvppPrrce5jQDICJRK9QGf4CsHoPI6jGIgefdDEBDxS5qdq6noWIXDeVFuJsacDXU4IiNIy4xhbjkNOJTMknr1JP0rn1IyuoUkD+LRB4FABGJSoEe/FM6dmPsgx+1afDfn+QOnUjuoEFdzNO8kIhEnWAM/uMe+pSUjt0CUl/EBAUAEYkqGvxF/BQARCRqaPAX+X8KACISFTT4i/wvBQARiXga/EX2pQAgIhFNg7/I/ikAiEjE0uAvcmAKACISkTT4ixycAoCIRBwN/iKHpgAgIhFFg79I6ygAiEjE0OAv0noKACISETT4i7SNAoCIhD0N/iJtpwAgImFNg79I+ygAiEjY0uAv0n6xdjdgQBegD5AOJNncS7iqA1xAC1D+w8duwG1nUxGsHvj4YL+g4+FDj03q0Kn3gf5/bEKy8abCjQZ/EWvCMQAkAucDFwGnAB3tbSei7QK2/fCxBVjxw8dGFA6sKAEuPdgvOPXRr14G341B6ifsaPAXsS6cAkAqcAdwG5Bjcy/RotMPHyf+6L83AouB2T98zAIqg9uaRCsN/iJmhEsAOBf4B5BvdyMC+B+1jPjhA/yzAfOACcDX+GcJRIwL/OCfr8FfokaoLwJ0An8DvkCDfyiLxR8GHgOWA2uBh4EBdjYlkSU4g/9nGvwlaoRyAIgF3gd+Czhs7kXapj/wILAG/+OBa9ECTbFAg7+IeaEaABzAaxxioZSEheHAm0Ah8Gegs63dSNjR4C8SGKEaAO4ArrG7CTEqC7gH/46C14EDbnET2UODv0jghGIAGIT/naJEpnjgemAd8ArQ3d52JFRp8BcJrFDcBfA8/kFCIlsccANwFfA0/tBXb2tHUcjT0kT1zg1UbV9Lw+5CmmrKaazchauhDo+rCU9LEwCxiSkkZnQkMbMjienZpOb2IKP74WR07YczNs54X4Ee/FPzejLuoU9Jzu4SkPoi4SDUAsApwGi7m5CgSgL+gH9W4PfAe/a2E9maayvYtXImu5Z/T9n6BdTu2obP62l3PWdMHOld+5A74EQ6HTGSvMHDiUtKs9SjBn+R4Ai1AHCb3Q2IbboA7+KfEbgJKLC3ncjRVL2bgtmfs23W51RsXo7P5zVW2+txUbV9LVXb17LhuzdwxMTS8fCh9Bp5Md2HndPmMKDBXyR4QikAZAFn292E2O4MYBX+2YB/2txL+PL5KFo2lY0T36J42XS8HldwXtbjpnTNXErXzGXR63+g2wln0u+068g5fOghf68Gf5HgCqUAMAY9+xe/VOAl/Hc+XIf/TgJpBZ/PS9GSyaz65O+Ub15may+elia2zfyMbTM/o+PhQxl4/i10Pfa0/f7aYCz4G/vgRxr8RfYSSgHgJLsbkJBzOrAEuAyYaXMvIa942TQWv/UgNYWb7G5lH2XrF/L9E9eS0/dYjr3+UbL7HP3f/6d3/iL2CKVtgP3tbkBCUmdgKnC33Y2EqrqSbcz6+41Me/ynITn47233xsV894ezmPvCrTRV79Y7fxEbhdIMgE6IkwOJBf4CDMS/dbDF3nZChM/H+m9fY9k7f8Ljara7m9bz+dg64xMKl0zG5/Honb+ITUIpAKRaLdChQzZxcVpG0BZerwe3242rpQW3243b48btdtvd1oFcg//goAuJ8uuHm6p3M+/F31C0dIrdrbRbS11VwGpr8A8cd3MjDeVFuJvqcTc34HW34IxNIDG9Awlp/g8cur4lHIRSAIixWuC4Y08gK6uDiV6imtvtpra25r8fNbU1VFdVUV0TuB/YbTAKmI1/fcAOe1uxR9n6hcx86uc0VZfZ3UpI0uBvTl3pdkpXz6FiywoqtqygeueGQ87YOGPjSO/Sh4xuh5PVYyC5g04i+7CjcDgt/4gXw0IpAEiIiI2NJSurwz5hqrm5idLSEnbvLqNsdymVlRU2dcgA/IsCxwGh/dDbsII5XzLvH7eH15R/EGnwt65y22q2zfyUwiWTqSnc2Obf73X//9kQBbO/ACA+JZ1OQ0bSY/gFdD321ICcHiltpwAgrZaQkEi3bj3o1q0HALW1NRQUbGVbwVbq6+uC3U4P4HtgLP57BSLemi+eZ9n7fwafz+5WQpIG//bzulrYMuNjNk1+m4rNy43Xb6mvYfu8r9k+72sS0rLoefLF9D/rRlI65ht/LWk9BQBpt7S0dAYPPpLBg4+krKyUbdu2ULB9Gx5P0NYQdAEmAyOBLcF6UTus/PgpVn78N7vbCFka/NvH62ph05R3WPPlCzSUFwflNZtrK1k//l9s/O5Nep58IYMuvJ20Tr2C8tryvxQAxIiOHXPp2DGXI444mo2b1rNhwzpcrqAs1u8KTMMfAiLy+OD14/+lwf8gtNWvfYqWTmHRa/dRV7rdltf3elxsmf4h22Z+Rt/TruWIy+8mLsnyWnBpg1A6B0AiQEJCAoMHHcHZZ53P4MFHEh8flF0Z3YHxQGYwXiyYNk76N4vf+qPdbYSs1LyenPrIl7rStw2aqncz6+kbmP7nq2wb/Pfm9bhYP+FVvvntSHat+N7udqKKAoAERHx8PIMGDuGsM8+nX9/+OAK/LWgg8AWQEOgXCpZdK2ey6PU/6Jn/Aeidf9uVrJ7DhLtOZfu8r+1uZR8N5cVMfewKFr/xAF53cO6uiHYKABJQ8fHxHH30cYwdc3owtmiegv8OgbBXsXVl2uxnfokveOspwore+bfd6s+fY+qjl9JYGcJXa/h8rJ/wKpMfvojmWtt2GUWNUDqtYTPQ20qB0049U+cAhDCfz8fGTetZsWIpHk/776BvhZuBFwP5AgGWlNIxf0d92c7sYL1gYoyDYzMTGJAaT7/UODolxpAS4yQ9zkmt20u920tJs4cNdS7W1bpYVNVEg8eemQkt+Gsbn9fDotfuY+Okf9vdSpukde7NqHvf0QLB/Wipr+aT662fnq9FgBI0DoeDfn370ymvM3PmzAzkwULPACsJ3wuEHgvG4J+bEMMV+amc2ymFYR0SSYpp/fuBZq+P+ZVNfFXcwHs76yhqCs5MhQb/tvF53Mx65pfsmD/e7lbarLZ4C5MeOJdxD31Gete+drcTkTQDILZwu10sXDSf7du3BeoldgJHAuE2jzgMmEUAH8+dkJXI3f0yOadTMrEG1mZ4fPBdaQNPbKhiRnmjgQ4PbNS979Ll6DEBfY1I4fN5mfvCrWyb+ZndrViSlNWJcQ9/ppmAvZiaAdAaALFFbGwcw04cwbHHHB+oBYL5wMuBKBxAicBrBOj7clBaPBNP6sK8U7pyQecUI4M/QIwDzsxL5vuTuzDj5K4ckxm4dZirP3tGiyJbafHr94f94A/QWLmLqY9eSlP1brtbiTgKAGKrPn36MfykkcTEBOSc8IuB6wNROEDuxH/MsVEJTgdPDMpm6eh8Ts1NMl3+f5ycnciCU/J57ogcktvwSKG1ytYvZMuMj43XjTSbp7zLhu/esLsNY+rLdjLr6RvwerQ7wCQFALFd167dGD3qVOLjA/LO8Rn8hwWFumzg96aL9kmJY87IrtzVN5M4Z3Ce+MU44NbeGSwYlc/ANPPnQCx750+01NcYrxspKjYv928fjTCla+ex5N8P291GRFEAkJCQnZ3D6FHjSEw0/g41HXjedNEAuBfIMFnwlJwkFo3KD+iU/MEMSotnwaiunJGXbLRuU3UZGya8arRmpHA3NzL72Zsi9rKoDd++TvFyHRZkigKAhIzMzCxOGTmGuDjjN4Vd8MNHqOqCf+uiMed1TuHbYZ3JiLP3WzwlxsmXJ3Tiym5mj3hdP+FV3M0NRmtGgpUf/ZXaXVvtbiNwfD4WvHznIa8kltZRAJCQkpmZxckjRgdiTcDf8C+yC0W/wmBvp+Ym8dHQPBID8Ay+PeKcDt46Jo8LOqcYq9lcW8mmye8YqxcJKrasYN03rwTltWJjHHTvHMvgvvEc0S+enl1jiY8Lzt+3+t2FrPjgyaC8VqRTAJCQ07FjLsOGnWx6d0Av4LcmCxoSD9xgqtjRGQl8dnwn4oP0vL+1Yhzw3nF5DM82l8HWff1PnZS4l2XvPobPG5gDtpxOGHNCEs/em83yz/KpX9STgkndWfl5Pss/y2frd92pX9STtV914+U/5nDOqGTiYgP3d3DjpLeoK9kWsPrRQgFAQlLXLvkcddSxpsveC+SZLmrRRUAnE4XSY518fHweqbGh+W2dGOPgw6F55MSbmd1pKC+meMUMI7XCXcnq2exaaf5zkZjg4OYr0tk8oTtTXuvMbVdmcES/+P2+24+NcdC/Vxw3XpLOf17oxI4p3bnvhkzSUsz/ffS6XSx778/G60ab0PxJIQL069ufHt17miyZCtxtsqAB15kq9M+jOnJYivH1E0Z1TYzlzWNyjdXbNvNTY7XC2cqPnjJec9ywJFZ+ns8Lf8ihZ9e2Hxqblx3DY7d3YP3X3bjsJ+av+d0x72tqi7cYrxtNFAAkpB133AmkpaWbLHkT/kOCQkEWMNpEodNzk7kiPzzuUj+rUzKXdDXT686FE3A11hmpFa6qCtZQunaesXpOJzx+ewcmvtKZPt2tB8rOHWP44KlcXnu0Iwnx5h4L+Hxe1k94zVi9aKQAICFtz4mBTqexT55IYgAAIABJREFURYGJhM4swDmA5Z+w8U4HLxyZY6Cd4Hl6cDYpMdZ//LibGylcPNFAR+Fr48S3jNWKi3Xw7hO53HtDJqYP6PzZBWl8+3In0lPNDTtbpn+oHQEWKABIyMvK6sCQIUeaLHk9/oN37GZka+LV3dLoE+JT/z+WnxTLjT3NzOzsWhmudz5Z53E1s22WmeN+nU54408dufyMwM0kjRqaxBfP5RmbCXA31VO4KLoDoBUKABIWDu83gMzMLFPlUvA/CrCTAxhptUiMA+7um2mgneD7Xd8MEgzsVihZNdtAN+GpZNUsY49A7vl5JleeHfjHSKOPT+L5+8zNWG2f+5WxWtFGAUDCgsPh4Jijh5oseTMGpt8t6AdYvrpyXMdk+qaG17v/PbokxnKegbMB6st2UFdSYKCj8GPq3e/QwQk8fIuxgH1IN1ycxgVjzZwLUbx8Ou6meiO1ok3bl3aK2KRjx1x69uzNtm1GVv52wv8M3q7r0oaZKHJN9zQTZWxzdbc0Piq0/g527gu3ktTByG7KsLLLwDZIpxNeejCH2CAfHPXsvdl8N7uBhiZrtzt6XM3s3riYTkMsT6hFHQUACStHHnkMhYU7cLmM3Ap2A/YFgOOsFkhwOjivs9lz9oPt9Nwk0mOd1Li9luqUrV9oqKPoc97oFI4dGPz7Irp1iuWXl6bz939XW65Vtm6BAkA76BGAhJXEhET6HNbPVLnTgG6mirXRYVYLnJCVaGQlvZ3inA5G5oTqCc3R4Y5rjN5B1Sa/uToDp4G/wrs3LLJeJAqF908PiUr9Dh9ATIyRySsncImJQu3Q22qBUR0jY+AcnWP8Bkhppd75cYw4xr6/R907x3LKcda//jWFmwx0E30UACTsJCYkcljvPqbKXWaqUBs4gR5WixyRbs81v6YNiZA/Rzg6c2SS8f3+bXXGydYDQEN5MV5Xi4FuoosCgISlw/sPxGli7hCGAj1NFGqDDoDlUa9fmK7+/7HD0yLjzxGO7Hz3v8fIY60HAJ/PS13ZDgPdRBcFAAlLyUnJ5Hc18vjeAZxpolAbGNn/1DM5MtbwdkuKJURuLo46A3rH290CA3qbCYAtdZVG6kQTBQAJWz16Wn6MvscZpgq1kuXTVhwQ9gsA93AAaSF6g2Gk69bJ/hCZnuokw8DxwDoLoO30XSeWtLS00NTUaMtrd+7UhcREI1OYo/HfERAslmcAUmKdGDhEL2QoANgjNTk0/hKZuB/A1dRgoJPoYn/8k7Czs3AH27ZupqR0F263GwCn00l2dg49e/SmZ8/epp7PH5TD4aB7955s2LDOaqkU/GsBgnWovMdyAZ+1w1NCjTvC/jzhwmvt+AVj3B7rX39HEH7mRBoFAGm1+vo6FiycS2lpyT7/z+v1UlZWSllZKevXr+HEE0eQlWX5pNtD6tmjt4kAADCc4AUAy0ffNXp8uH0+Yu1ewm1IrVsBwA5VtV7yso3dtNlu1bXWk0hcopmjhaOJIpO0Sn19HVOmTtzv4P9jNbU1TJk6kbKy0oD3lZXVwdRjgOEmirSSkYeVVa4QeftmUYvXR73FkwClfbbsNHKipiXFZR7LxwEDxCoAtJkCgBySy+Vi+vdTaGxs/TM2j8fNrNnTaWwM/PqA3FwjZ8CfYKJIKxm5vm1Tnf0/vE3YXO9C7//tsXKD/XvnV24000NiRkcjdaKJAoAc0oKFc6mrq23z72tpaWH5iiUB6Oh/5ZkJAB3xXxAUDFVAjdUiG+ojIwBsiJAgE46mL2yyuwWmLbD+JsEZF09yThcD3UQXBQA5qI2b1rNz5/Z2//7t27fR1BTYHzK5uXmmSh1hqlArbLVaYHFVs4k+bLcoQv4c4Wj8jAYam+2df/liivUnYqm5PXA4NJy1lT5jckCVlRUsW2btHbzP56OoaKehjvYvNTWN5CQjt+INMlGklSzfaTy1zJ7tl6ZFyp8jHFXXefl8sn375+cub2LdVuszQJndDjfQTfRRAJD9crtdzJ03C6/X8o41SssOvXDQqoyMTBNlLN/Q1wbrrRZYXdNCUZPbRC+2qXJ5WagZAFs9+XoVdu3C/MurVUbqdOx/vJE60SaUtgFaXgbs015iYxYsmEttreXH1ACUtWLngFVpaekU7yqyWqaXiV5aab7VAj7gvZ11/K6PkfBji48K63B5rX/f9j/rBtK7GrsmOmys/eolaoutTSYtX9/CO1/XcfU5lg+obJMZi5r4arqZw3s69g/mGt7IEUoBwPKDYo/H+rtV8T/332Hhuf+PNTQ2UFdXS2pqmrGaP5aWnm6iTDADwDwTRf69vTasA8DbO9q+uPTHHA4ngy/6LfGp4ft5aK+G8iJWffp3y3V+/1Q5pw9PIrdDcM4EaGz2cdOju43MPCSkZ5PVM5hP7yJHKD0CsBwF95xKJ+1XXl5m+bn//gT6TIC0NCMBIJjLiHdhYCHgypoWpoTpM/SFlc3MKre+QDSr56CoHPwB8o873UidknIPV99TiidIxzHc8qfdrNlsZvtft+PPwOG0/zCjcBRRAaChUZdBWNHY2MCs2TOMPPf/sdYcIGSFoQCQDgTzbtpJJoo8tj48b0H7k6G+8waPMFInHHXofQQpHfON1Jo4p5FfG3pXfjCP/6uK1z+3PvOzR/cTzzZWK9qEUgAos1qgvl4BoL08Hg+zZn8fsIt9Ar0QMCE+wUQZB5BjolArfWaiyLTdjXxbEl4Xocwqb+KrXWa+XzsfNcpInbDkcNBn3FXGyr3ycQ03PlQWsJmAh1+s5A/PVhirl5LTlbxBwTzEM7KEUgAosFqgqtLcX6xo4vP5mDd/NhUV5QF7jYaGeurrjRyAt18xMTGmLiDKMlGklaYCRt4G37JiN00GLlQJBrfPxy0ryoyc/peU1SnqB4A+Y6/CGRdvrN6rn9Yy7ufFFJeZmwmsrffy07tKeehFs7NV/c74OY6YUFrKFl5CKQBss1qgPIADWCRbvGSBpcN+WivQswCxsUZ+ECSZKNJKLuArE4U217u4f214BODH11exvNrM89+eI86P+ue/CenZ9Bx+gdGa0xc2csSFO3nts1rLNwZ+Nrmewefv5P3xZt8AxCamcNiYK43WjDahFAAsH4zS0tIc0HexkWjlquVs3rwxKK9VVhrYhYBxZt4FGXmW0AavmCr09KYqvt4V2o8Cpu9u5JH15oJKz5MvNlYrnA2++Lc4Y80uX9ld6eEXD5Yx6LwdvPppLTV1rU8CTc0+Pvy2jqGXFXLRb0rYXmx+gXb/s24gPsXI2p+oFUpzJ0aWnhcV7aRDh2wTpSLeqlXLWbNmZdBeL0xmAIIdAGYDy4CjrBbyAdcsLmHmyK4MSjM3JWzK5noXly8swdSTiuw+R2v71w9Sc7tz2Ngr2fjdm8Zrr9vq4oY/lnHb47sZc0ISpwxNZEjfeHrlx5GR6sTp9F/nW1DkZs2WFr5f2MSUeY1UtyEwtFViRg4Dzr05YPWjRSgFgBL86wB6WCmyrWArgwYdgSNC7kkPlJVBHvzBf6VwfUM9KcmBubbT0BoAO+aT/wH8y0ShSpeXn8wpZvbIrnRPCp1v79JmDz+ZU0xJs7nnyoMuuM1YrUgw5OI72T7nS5prA7MrpLHZxzczGvhmhv2zTEMu/T1xScE9uCgShdIjAICFVgvU19dRUrrLRC8RyefzsXjJgqAP/nuUBeFY4DD0LlBoqtjORjejZhaxMURu2dve6GbUrCI2Gby9MLNbf2N74CNFYkYOx1z7iN1tBFzeoJOM7nyIZqEWAKaaKLJu3RoTZSKO2+1m9uzv2bRpg209BHodQJhqBIz+5N7a4GLEzELmVdh73euy6mZO+r6QtbVm750feP6toFm+ffQaeTFdjh5rdxsBE5uYwgm/elo3/xkSap/Fr8H67qCSkmJ279ZAs7fGxkamTptIYYBv5juUYFwMFKZeB4wms9JmDyNnFfH0piojW+7a6p9baxg2o5BCwxcWZR92FD1GnG+0ZiQZdstzpOR0tbuNgDj+hidIzbP0lFj2EmoBYAewwkShJUsX6XKgH+zaVcTESd9QGQLnJNTV1Rq7ZCjCuIF7TRd1eX3cuaqccbOLWFcbnEcCW+pdnDW3mJuWlxk/m8DhcHLczx/XO8CDSEjrwMl3vkZMXLDXswZW/7NuoOfJF9ndRkQJxe8iI6ejVVZWsHGT5RtXw5rX62X58iV8P2MqTU32TgXvbfsOy2c+RarPgC8CUXhqWSNHTtvBnavKKW4KzKVZu1s83LemgsFTdzA+QCcTHjbmCrL7HB2Q2pGkw2FHMuyW5yLmjIQuR4/h6KsetLuNiBOKAeBNDFwNDLBixVKqq83cNx1u6upqmTL1O9atD731ENu3b7O7hVD2awydDvhjLV4fT2+qovekAm5aXsaCymYjdZdXt3D7yt30/G47f95QSWMATyTsdMQpAasdaboPO5fjb3gi7NdK5A0ewcl3vqYT/wIgFONhNTAM6GO1kM/no7R0Fz179iImJhT/qOZ5vV7WrV/D3LmzaGgIzbsRmpubyczMIj09w2jdzVs2mrjL4G0MHEplQR3+mwID9pDb7YNFVc28WlDDh4V1bG904/FBXmIMCc5DDxb1Hi8zypt4taCWO1bu5pH1lcyvbMYVhEduhUsmkdP3GD0HbqUOvY8gMT2b4mXTMLC8KuhyBw5j1D1vE5sQzAM6Q5/H1cyaL1+wXCdUo+EFGHoUAJCX15mRJ482tU88ZJWWlrB4yQJqaqrtbuWQ0tLS+cnpZxv9mkycNN7EOodTgckG2rGk05CT1+9aObNfsF+3W1Ish6fGkZcYQ2qMk8w4J9VuL3VuH6XNHtbXtbC9wW3rUBITn8gpd79FpyEjbewivOyY/w1znrsZj8vMrE8w9Bh+AcN+/YzRew4iRUt9NZ9c399ynVB9W7wBuBToaKJYfX0d1VWV5Od3j8gDgurr61iydCHLli+muTk8vsFbWpqJjY2lY06usZoRMgMAwBlPTTtq14rvj2msDO6uiRq3ly0NblbWtLC4qpnZFU0sqmpmRU0Lm+tdVLuCdGH8Qfg8brbP+1ozAW2Qkd+PToOHU7xiOq7GwF3KZYLD4WTwRbcz9GePa9r/AEzNAITqW2Iv8LjJgoVFO5k5azouV2gcjmJCfX0dCxfNY/yE/1BQsDUor3nDpWPp2dVILmPlymU6tOkA4hJTPCff+RoJ6TrWen88LU18/8S17Fo5w+5WwkbO4UM548nJIX1OQFJWHqP/8B5HXHZ32K9dCAehGgAA3sfwvuhdu4qYMvW7sN+GVldXy8KF/oF/y5ZNeK1e19VKN/30NF5+9EZ+es4II/V8Ph/z5s4K+69HoKTkdGXUve8Ql5RmdyshSSGg7RLSOjDqnrc5/pdPEZ+aaXc7/6PH8As4869TtNAziEI5AHiAO00Xra6uYuKk8Wzdutl06YDyer3s2FHA9O+n8M34L9myNXgDP8Bt15zBP/74cxwOB1edN9LYo5Sm5iamTJ2oWxwPIPuwoxh17zvEJiTb3UpIUghoB4eDPmOv5JxnZtF79OW2bxXM6HY4Y//4KcNvf1EzXkEWqmsA9tgADAWMLobyer0UFu2ktHQXWVkdSEwM3RWmlZUVbNy4jvkL5rB12xbq64P//O7On53D0/de899Bv2OHdOYu28Dm7WaeT3s8brZvLyA1JZWMjPa/K4mkNQBDLvndOcCx4J8JyO57DNvnfYXPY/5a1XCnNQHtE5uQTP7Qn9DjpPNoqa+ieucGCOLhaZk9BnLsdY9w3M8e09etjSJ9F8De+uA/HTAgo7TD4SA/vzsD+g8iK6tDIF6iTbxeDyWlJRQV7qSoeCcNDfbdvOV0Onjq7mu44/qz9vl/E2ct5/SfPWb8Nbt27caxxxxPUlLbv9yRtAvgpx/tehl8N+7933ZvWMT3T15Hc41mS/ZHuwOsqSvdzpZp77Nl2gc0VARmbY4zLp78Y0+j9+gr6HLUaD3nbydTuwDC5bN/C/B8oF+kQ4dsevboTZeu+QG7svbHGpsaqSjfTXn5bsordlNRUY7bbf+7vOSkBN556lYuOPX4A/6aEZc/wOwl5k9bjImJoUePXhzeb0CbzgqI9AAAUFeyjel/voqaovB6hBUsCgHW+bweSlbPpmjJZAqXTKG22NqEWHxqJp0Gj6DTkaPofsJZIbf2IBxFWwBw4L8o6MxgvWBGeiYdOmST1aEDWZkdSExMJC4unri4uFbtXXe5XHg8HtweN26XC7fbRX19PXX1ddT/8FFXV2vrO/wDycvJ4D//vJvjjzj4WUyzFq/j5CsCezxnZmYWubl55HbMIzU1jYSEBBISEve7BiEaAgBAS10Vc56/maKlRi7PjDgKAWY1VOyiYstyKreupKZwEw0VxTRW7KKl3n/eiKupHmdMLAlpWSSkdSApK4/0rn3J7NafrJ6DyewxwPZ1BpEm2gIAQB6wGIjMa65CxEnHHM77T99O9y45rfr1l//mGT4cPyfAXQVVyAcAAHw+Nk15lyVvPYi72fK6h4ijECCRzFQACOVdAD9WApwDhOb5tmHO4XBw2zVnMP2dh1o9+AO88Mefk5OlbWpB53DQZ9xVnPanr8nqOcjubtql05CTyew+ICC1tTtA5NDCKQAALAWuxdBlQeLXqWMmE9+4n2fvv5642LZN1eVkpfHcAz8LUGdyKJk9BvKTJyYy7ObnwmYLVVJWJ4bd/BxjHviIsQ9+TGaPgQF5HYUAkYMLtwAA8ClwO+F4s0UIOv3kI1n+n78y7qQh7a5xxdnDueHS0D1dLNI5HE56nXIJZ/99Jv1+8rOQvQc+PiWdwRf/lnOem02vUy4BICE9m7EPfKSZABEbhGMAAHgBuMPuJsJZdmYarz72Kya8eh+52dZv5Xv2/usPuWhQAishLYvjfvYY57+0mCGX3El8SrrdLQH+0+eGXHIn576wgCMu/f0+hxolpGdrJkDEBuG0CHB/fgM8Tfj/OYLG4XBw/UWjePKuq8jONPvsvrS8mmGX3s+WHcG9wMaw8FgE2Aquhhq2zvyUrTM+oXzjElOttYrD4SR34DB6j7qMbiee3arrXJtrypnyyCVUbV8bkJ60MFAiRTTuAjiQS4C3CNBBQZFkSL/uvPTIDQw/5vCAvcamgl2Mvvphdu4K28NqIiYA7K2mcBPbZn9O8bJpVGxZgc/rMVX6v5wxceT0O4bOR42h54gLSemY3+YaCgEih6YA8L+GAV8A5u6WjSB5ORnc+8sLuPmq04mNCfx+3E0FuxhzzcPsKA7LEBCRAWBvLXVV7Fo1i93rF1BZsJaqgtU011a2uU5SVh4Z3fqT1WMAHQecSN6g4cQlpVruTyFA5OAUAPbVGfg3MM7uRkJFXk4Gd91wHr+6/FSSk4K7MKywpIKzb/wLy9ZuC+rrGjAGmGZ3E4EMAPvTWFlC/e6dNNeU01S9m+ba/z1QyeFwkpCeTWJ6Ngnp2aTm9SQhLStg/SgEiByYAsD+OYG7gEeAOJt7sU1udgZ33XAuN11xWtAH/r3V1jdyze9f4IvJC23roR0GAWvsbiLYASAUNdeUM+XRS6kqCMyXQyFAwlU0HgTUGl7gL8BRwHR7Wwm+If2688Iff87WqS9w58/OsXXwB0hLSeKzf/yOZ++/noT4sMhjjcBWu5sQv/9uEdTuAJGAiLQAsMca/FO5VwM7be4loJIS47n2glOY/cGjrPj6KW6+8nTbB/697TlhcMkXTwR08aEhk/GHAAkRCgEigROpAQD8BwW9g/864VuIoCDgcDg4dnBvnnvgeopmvcybT9zMSSE+uA7sk8+M9x7h1cd+RX6nkD2x7q92NyD7UggQCYxIWwNwMAnAlcCNwAk299JmCfFxjDlxMOeOPY6zRx8TyoPoITU2tfDie9/xzJvjQ2m74JvA9XY3sYfWAOxLawJE/LQI0JojgZ8D5wPdbO5lv5xOB/17d2XY0f04Y+TRnH7ykaQmJ9rdllEut4ePJ8zl9U+mMW3+Krxe2053ng6cATTZ1cCPKQDsn0KAiAKAKQ7gaOBcYBRwDGDL1XZ5ORkcf0QfTjiyLyce1ZehQ/qQnho9ZxsVllTw+aQFfDtjGdPnr6a+sTkYL+sGXgR+D7QE4wVbSwHgwBQCJNopAASGE/8ecCPf+QnxcSQnxZORmkxiQjypyYl0zs2kV34uvfJz6bnnn107kpGWfOiCUcLl9rBqw3YWr97C6o072bazlNWbdrJxW7GR8vhX+o8HXgECs9HcIgWAg1MIkGimABA4k7B4mNAbf/k1115wCg6HPr2mfDxhLpfe/nerZb4HRmP/TZI9gYMezh+bkJTsjI0/4HaO+JQMzn1hvum+wopCgEQrnQMQwlKSEjT4hyYX9g/+4P++yzrYh7u5MaGlvpqDfUQ77Q4QsUYBQETClkKASPspAIhIWFMIEGkfBQARCXsKASJtpwAgIhFBIUCkbRQARCRiKASItJ4CgIhEFIUAkdZRAAgAXyhsNIsw+pxKWygEiByaAsC+LB8J29AUlGNso0p9o5Fj+kPmrH8JPIUAkYNTANiX5UGirkHjjGm19QoA0nYKASIHpgCwL8uDRG19o4k+ZC81dQ0myugLE4UUAkT2TwFgX3VWC9TUaZwxzdCsiuWvrYQnhQCRfSkA7GuX1QJFJZUm+pC97NxVYaKM5a+thC+FAJH/pQCwrxKrBdZvLTLRh+xl/RYjn1MFgCinECDy/xQA9qUAEII2bDPyOS01UUTCm0KAiJ8CwL62WC1QVVNPabmuazWluKzS1LqKzSaKSPhTCBCBWLsbCEEb8N8Z77BSZNnabZw24kgzHUW55WsLTJTxAptMFJLIsCcETHnkEqq2rzVef08IOOXut+g0ZGSbf7/X7aKyYDVVBWuoKdxIQ8UuGsqL8LQ00VJfgzM2ltiEZOJTMolLTiOtc2/SO/cmPb8vWT0HExOXYPzPJJFFAWBf9UAhkG+lyPT5axQADJk6b5WJMtvQNkD5kYT0bMY++HHIhIDa4i3sWDCB4mXT2L1xMZ6W9u1+iYlPJKffcXQaPIKux54asJkOCW8KAPu3GosBwNCgJcC0eatNlDH/010igt0hwNVYy7aZn7F5yrtUbF1p7DVLVs2iZNUsln/wF7J6DKLXKZfQ8+SLSMzIMfIaEv60BmD/FlgtsHjVFp0HYEBVTT1L1241UWq+iSISmfaEgMzuAwJSf39rApqqd7P8/T/zxU3HsfDVe4wN/vtTWbCaJf9+iP/ccjyL33iAhnItVBYFgAOxPFi4PR4mzV5hopeo9t2s5Xg8XhOlLIc6iWzBCgGFiyey+vPn+Oq2Yaz+/DlcDTUBeb39cTc3sn7Cq/zn1hNZ/OaDQX1tCT0KAPs3H/9CQEve/lIrgK1658uZJsr4gIUmCklkC1YIWP7+n3E12ncwpdftYv34f/H1HSPZNusz2/oQeykA7N9u/OsALBk/fQm7K2sNtBOdyipq+G7mMhOllgFGjhKUyPffEBAFC+caK0uY89zNzPjr9bTUa+tytFEAOLBvrRZwuT18OH6OiV6i0ntfzcLl9pgoZflrKdHlv+cEBGgmINTsXPgt395zOhWbl9vdigSRAsCBGRk0XvlgMj6f5acJUcfn8/Hqx1NMlZtoqpAhlv9C6O9U4EXTTABAXUkBEx88l+3zvra7FTkUM9//PgWAA5sFWF4hs2J9AV9NXWygnejy5ZRFrNqww0SpSmC2iUIGWd4e4mqsxet2mehFDiLQJwaGGq+rhdnP/IpNk9+xuxU5iKbq3SbKNCgAHFgz8LmJQo+9pEU2bfW4uc/Zp0CojZTWF4b4fNSVGDkhUQ4h2h4H+LweFvzrLjZNetvuVuQAancZ2RpdqwBwcB+YKLJgxSYmzwncHt9I8+2MZSxcaezY/g9NFTKoAQOzAIVLJhtoRVoj2h4H4POx8NV72D73K7s7kf0oMvO9v1sB4OCmAGUmCt315Dum9rNHNLfHw91/fddUuV3ANFPFDPIBG60W2fjdG3oMEERRNxPg8zL3hVspW6cjNEJJc20F22Z/YaLUegWAg3MBb5gotHTNVl587zsTpSLac/+ewIr1xqa2XwOMbCMIgHVWC9SVbmfdNy+b6EVaKdpmAjyuZmb+7Rc0Vekm7VCx7N3HTB3gpADQCi9iaBC5/+8fUFRaaaJURNpVVsUjL3xiqpwHeNVUsQCYZ6LI8vf/Ymo6UFop2hYGNlWXMfu5m/F5QzVLR48N377O5qnvmSo3L8ZUpQhWDZwA9LVaqLnFzY7ici45Y5j1riLQdff8g6Vrtpkq9zXwT1PFAqAJ+JXlKj4fBXO/Ij45jew+R+NwWLrFWlopNiGZ7ieeTfGyaaZWZIe0+tLtJKRlkdP3GLtbiUpeVwvL3nuMFR8+YaqkG7hZAaB1SoBrTBRas2knXfM6cOyg3ibKRYyX3pvIU68ZXXB0IxDKy+RLgV8A6ZYr+bwUL5tG4cLviE1IIiWnKzHxiZbLysH9NwQsn05TtZGlQiFt9/pF9B51CXFJqXa3EjUaKnaxdcbHzH72JoqWTjVZehbwT71daL2ZwAgThRIT4pj70WMcNaCniXJhb+WG7Zxw8X00NrWYKjkXOMlUsQB6ArjLdFGHw0liZkcSM3JwOJXx98juczRDf/EX43XnvfgbtkwP3GaTGCccPSCBkcclMqB3PD26xJKe4sTr81Fd62VroZtVG1v4flETqzcZ+x7ar54jLuSk2/5hvO6MJ6+joaLYeN1w5fW4aaoqC2SwvBH4lwJA650BjDdVrH/vriz49HHSUpJMlQxL1bUNDL3oXjZuM/rNfwbhcfzvIGAloO/DIOg0ZCRjHjA7UFduXcW395yOz2d+h09+Xiy3XpnOVWen0SW3dUFuwzYXb31Zy0sf1lBZE4BdRw4HZ/xlIlm9Bhst+59bT9S5FsHTAHQFqrQIsPUm4H9nacS6LYVc8OunaG7uGzlsAAAebElEQVSJ3m1czS0uzv/1X00P/nMIj8Ef/BdOTbC7CWm/FR89aXzwz0h18uy92Wz+tht3/Syz1YM/QL+ecTx2ewcKJnXnvhsyiY8znC19PlZ99ozZmhJsrwBVoLsA2uoODJzjvseUuSu5/DfPROX5AF6vj6t//wLT51u+dHFvPuD3JgsGwZ/sbkDap6pgjfHDmEYel8jq/+Rz25UZlgbvtBQnj93egcUfdWXgYfEGO4SdCyZQU2j5GAuxRzPw1J5/UQBom/nARyYLfjF5Ibc++npUXe7i8/m4+eFX+XiCsQmVPd7HPwMQTuZi+O+UBMf6Ca+ZupQFgJ9fmMbU17vQNTfWWM3BfeOZ/34XTh9u7lGjz+dlw3dvGqsnQfVXoHDPvygAtN3dQL3Jgi+9N5Gf3/dP3J7I32fr9ni4/p4X+ef7k0yXrgXuMV00SG7Hv91UwoSrsZaCOV8aq/fry9P518MdiQnAT+TUZCdf/aMTZ41MNlazYPYXeD3R+/gyTG0H/mcVrAJA2xUAD5gu+san07jg10/R0NhsunTIaGhs5vyb/spbn38fiPL3AUauD7TBLuAmu5uQ1tuxYALuJjPvA84bk8Lz9+UQyCMc4mIdfPR0HscMTDBSr7m2wvS2NAksD3A9P3rzqgDQPs/hfxxg1NfTFnPa9X9iV1mV6dK2Ky6rZNx1j/LN9CWBKD8H/4mN4ex94E27m5DW2bnAzNrNHl1ieeNPHXEG4SdxcqKDj/6WS1qKmRfbOd/YpigJvAeBfRKbuYdN0cUD/BxYCBjdxzd7yXqOPv8u3nnqVsYOG2KytG0mzV7BVb97ntLygMxyN+A/UCcSVlL+EsgHxtndSCRyNdZUgM9yAnW7Gp3Fy6adAlg+ZOGFP+SQlR6892GHdYvj4Zuz+O2T5ZZrFS2d2gS+WQbawuNqHo7hn6XyX+/xo6n/PbT/2JpfAS8ForDD4eCuG87lsTuuICYQDwaDwOPx8uiLn/LoPz7B6w3YIsdf4L/0J1JkANOBo2zuIxJNBk41UOdkYIbVImNOSGLKa50NtNM2bo+Pw8/ayZadRp7h9wU2GaizGdDxqOZNAM7Df7HdPsJzZAkd/wQ+CERhn8/HE698ydCL7mXesvDbcrNk9VZOuux+Hn7+40AO/p8QWYM/+BcDjsZ/8qSEJiMngt7zi0wTZdosNsbB73+WYaqckc+FBMTnwIUcYPAHBQATbgI2BKr40jVbGX75/dz0x39RUV0XqJcxpryqlhvvf5mhF93DghUm3hgc0Fr87/4jURVwOgEKl2KZ5dmZHl1iGXuCfTPePz0zleREIxPAA0wUEaN8wJPAxfgvHTsgBQDrqoBzf/hnQHi9Pv75/iT6nXo7f3rxU6prGwL1Uu1WVVPPIy98Qr9Tb+dfH00J5Lt+gAr801qRvHWuEbgC/2OmRpt7kf9l+Rzci09LCcrCvwNJT3UybpiRAHK4iSJiTDn+8ehuWrEuSgHAjPXAZfivWAyY8qpaHnjmQ3qM+jX3//0DyipqAvlyrVJaXs19f3ufHqN+zR+f+ygYsxRu/J/r8Hsu0j4v4x9wvrG7EfmvnlYLjD7e/vVuY8zMQCgAhAYf8DYwEP9V6K2iRYBmXY1/K1dQglVMjJPRJwzi6vNHcvHpJ5KcZGaP76E0t7iYOGsFb385gy8nL6TFFdDcszcfcAOR99y/tX4C3A8Mt7uRMGViEWAW/hkoS3ZO7W70xL/2mL6wkdHXW76HoxzIMdCOFgG2jw//gP8nYEFbf7MCgHm/Af4e7BftkJHK+acOZeywIYw+cRCdO2YZrV9cVsnUuauYMncVX0xeQGW10cMQW+t2/GcwRLsRwM+Ai4B0m3sJJyYCwGFYXPWelOCgflGvgB780xqFpW7yx2y3WqYFMPHOQwGgbUrxnx3yOrCivUUUAALjQeBhOxsY2CefEcf2Z8BhXenfuyv9enWmR5eOh9xS6PF4KSgqY/3WItZvKWLt5kJmLlrL2s2FB/19QXA/8JjdTYSYJGAkMAb/rEB/INvWjkKbiQAwGP8Vzu3WuWMMRdN6WGzDuvpGH6lDt5oolYA/CFihAHBwxfgXPs/Af6DPXAw8clYACJzfA08QQp/jhPg40lISSU9NJiMtmbSURABq65uorm2gpq6B2vqmULuieM8Nf3+zu5EwkQ3kAmloduDHKgCrBwEdCSyzUqB751gKJnW32IZ1bo+PuCONBIB0/HdxWKGDgPZVCdThH/wDsuBLJwEGzl/xf9FeJEQWWza3uGhucbG70ur3atD48E/7P293I2Gk/IcPCQzLz77qG0Pj5s/aeiN9+DBzOdpsAzWkjUJiYIpgL+NfsR56+/ZCXwNwCRr8JbRYTs+VNR4am+0PAUWlRhbv1hEZx3BHJQWAwPsEOAn/VYzSOkXAKcCndjci8iOWp2K9Xtiwzf7HbOu2GukhbKYTZV8KAMGxHH8I0DTXoc0GhgKL7G5EZD8a8a/AtmT20oMe0BYUs5YY6cHIIgKxhwJA8BQCo/DvDtCU2b58+Lf4jcY/AyASqtZbLfDtLPufCn4320gPATsGXQJPASC43MBDwOU29xGKLsO/4M/+uVGRg1tntcC3sxopq/SY6KVdFq9pZu0WI99qlsOQ2EcBwB6L7W4gBOlzIuFiqdUCLrePlz6w7yjvZ982do2G5c+F2EcBQESkbaaZKPLsO9VUVAf/aeC6rS7eH2/kJM8WYJaJQmIPBQARkbZZh4F1KhXVXu571vK1Am3i88Etj+3G7TGyDXE+2uIc1hQARETabqKJIq98XMNX04M3hj7zdjVT5hm7XdrI50DsowAgItJ275oo4vPBNfeWsmqj1aP0D23inEbuftrYjIMPeM9UMbGHAoCISNtNxb+117KqWi+n/7LY1Kr8/fp+URMX31GCy23sBMLZwBZTxcQeCgAiIm3nBf5tqlhRqYeTryli6nxj0/P/9c7Xdfxfe3ceZUV1J3D82wvQtNCsInQbRBQBBwEBAVeMuO8xGjRxQeOWuIwSRceMqBg33BMTk3gCGieTRE0ik4yZCElcJgaXKLgMLlGTqLiCIru23fPHbQwoQjd169V7r76fc95B+zS/+tH96tWv7v3Vvfue8jpLlkVtOLw1ZjBlwwKgRFVVVrJpt05Zp8Gm3TpRVenbSLn0bSDakn4L3/uIvU96nQtuXBRlr4CF733ExG++zTHnv8XKuHsPvAb8R8yAykbRbFWbM/0J+19vtG51HVn4x6k8+cLr/P6RF5j98As8NO9vLF6a7hKjXTrVsPPwLRk/emvGjx7A0AF96PH5Kbz7fuI7l61wSFGl5ybgtNhB+zVU882Tu3HswZ1o365tH9NLljVx88/fZ9r0xSx8L5XFhs4GbkgjsArLAiAbUQqARfddutbXmpubeXnBIuY+t4C5zy3g6b++zj/eeI9X31rMmwvbtmdH7x6daejVhb69uzJk6z4MH1jP8IH1bFnfnYqKtd823Xe/0AJAedWXsBpeTRrBe3Wv4sj9OnHAuFp2GVFDbc26P7LfW9LE/Y+u4O4/LOcXs5bFHu5f0+vA1vj4X1mwAMhGKgXA+qz6oJHX33mfhYuXs+qDRpav/JAly1cB0Lm2A7U17ejQvpoeXWrp07OODu2rWx3bAkA5N4Wwx0eqqiphi/p2bFFfTV2nSpqamnl/aRMvvdrIK29E2dq3Nb6C3f9lo/Wf8ippHdpX06++O/3qu2edilRurgK+DAxM8yAfNcFLr37IS69mtl3GA8BPszq44rN7q7BqgX2AyVknUoQmE342tVknIrXRKuDrlPcun8uAkwnP/6tMWACkrz9hl7tZwELgf4BTMs2oOJ1C+NksBh4j7Jo4Et+jKg1/AC7LOokUnYY7/5UdpwDi2wzYDdgTOABoyDadklNNuPCPBC4C3iFsvjKbUCD8I7vUpPW6GNgJGJ9xHrFNB27LOgnFZwGQXC3hpN+z5TUCmytj6gkc0fKC0Cg4u+X1OyC7PVWltTUBRwIPAoMyziWW+0nhMUcVBwuAjfMvwIGEC/6uQIds08mV/oS5yJOBRmAeoRj4DfAQ5T0Pq+L3DrAX4b34uYxzSepp4AtEXOxIxcUCoHXWHNY/EKjPNh21WHO64DzWni74HfD37FJTjr0K7E/o++mdcS4baz6hKffdrBNReiwA1q0TMA7Ym1DND842HbXSJ6cL5hM+hO8lDGUuzSgv5c/TwI6EQnSbjHNpq0cI/UvvZJ2I0mUBEFQC2/PPefyiH9bv2XWTrFP4WPe62hgLAaVhcMvrTNaeLpgN3NfyNSktfyOMHM4ExmSbSqvdTVjsx5X+ciDPBcAWhLv7vQhduz2yTadt+jcUT7r9N+/Bi68uzDqNDfnkdMFC4PeEEYJZOF2gdLwJ7AJ8i7DWRbE2CDcSHmOcin00uZGnAuCT3fojs00nmQN2LZ5ZiQN33ZZZc57POo226gF8qeUFaz9dMAt4L6O8VH4agfOBOcDNFF9fwPPAcYT8lCPFWo3GUAWMItzh7w2MBdplmlEkdZvU8MLM8+nVPfvtgAHeWrSUAYdcyfvLyqZZ+EPCh+G9hGLgMSCVbdWUO10Id9mnET6jsrQCmAZcQVjNUDmT9Rswti0Jd3TnEyrtM4A9CMP9ZfNvvfJfD2D86AFZp/GxTTq2p2NNO373UNksFFZFeM/sAZxIeB+NAroBi3B0QBtvFWFBq5mEp4sGUvgbsQ+AWwmflTOxuM2tUh8B2ITQaVsWw/qtceyBo5hx8QQqK4vrV9fc3Mwpl93FLb98OOtUCsHpAsUyhNCTcjgpbSm8hsXAj4FrcEVNUXrrrFcRLvhTgP8lfPDOIpxAZX/xB9hv50FFd/EHqKioYPeRW2edRqGsXozoDuBtwntxCuG9WTYjTSqIp4FjgD7ASYQd92Leka8iLJJ1JKH34Ey8+KtF8V1JPm31Rf8IwpBVsTXQFFRFRQWTj9udy0/fv2gKgebmZqbddh8X3HQPTU253yxsIXAPcCehh8C5VbVVF8Ljg3sAOxCmCXq28u8uIGza82fCBkUPEeb6pU8pjivIp1UAnwe+SliQoku26RSfCXsPZ8YlE+jYIdu+xuUrP2TiRT/jzlnzMs2jSC0m3H39iLDuQO6rI220HsBWQB2hF6UTYaRgKWE/jIXAi7g3htqg2AqAzsBRwOnAdhnnUvSGD6xn5vUn0Ld310yOv+Dt9zl00gwefeaVTI5fYp4n7Kp2C6GRUJIyVSwFQB9C5/4JhMpWrdTQqwt3XzeRUdsWdt+RR595hUMnzWDB295wtNFSQiFwJfB6xrlIyrGsG5Z6EPZ8/wlhtaz22aZTepYsW8Xtv/kL/eq7MXRAYfYounPWPA6dNINFxbn8b7FrT1gW9nTCbnGPAssyzUhSLmVVANQCFwI/IzS6lMUCPWupqoKhg2Df3eHvr8LK9HrBGj9q4u4/PkMzMG5kfyoq0hnYaW5u5uIf3MsZ0+7mw8aUHx3uWgcTDgKa4Z13obnsps9XL018CmHfiYdxbwJJBZTFFMD+wHeBfhkcO10NvWHMcBg9DEYPh7qW2YzX3oCzL4WX0n/65vA9h3Lb1KOorYlbU638oJETp97BT+55PGrcderbANdfCFs0hP9fsRKeehYengePzIX5f00/h8J7Gfg6YZEYSUpdIQuA3oRlJ48p4DHTVVsDQwbBrjvAuDFQv9lnf+/yFfDv18ADj6SeVuzmwII2++04Ai6fDJ3Xs9vhO4vg4bnw4KPwyDx4f0n6eRXOb4CvEfaUl6TUFKoAOAL4IZBNu3os1dWw3UAYu3240992AFS2YS2lpia4YTr858z0cmxRv2kdM68/PnFzYEGb/b58CJx1Qtt/pv/3QigI5jwBTz0HjSU/kv4uYVGYX2SdiKTylXYBUANcRVh9qjStOaw/Zvv135m21sxZcOX34MN0L1Q17au5ZcoRHL3/xi2SeOeseUy86GcsX/lh5Mw+oaoKvnESfOmA5LFWroIn5/9zuuDZF0u5f+B24FTcm11SCtIsAAYSmvyGp3iM+Lp0hh2GhQv+2BFQ3yud48ybD+deBosWpxO/xcasHFjQlf3qOsO082HU0HTiL3wXnngmTBU88EiYPigtzwATWv6UpGjSKgD2ISyF2jml+PG0q4ahg8Nd/tjtYdDWUKgldl97A86eCi+lP7d+xF7DuPWSIzfYHFjQlf36fw6unxJGWQqhqRme/WuYKnh4bhgpSHkUJpLFhM1iZmediKTykcaVbiJhvr94H+1bc1h/7PbQKcKw/sYqYHPgsG3q+a8bPrs5sOia/dJWWtMFjYQ95H+YdSKSykPMAqCCsKjPRRFjxtG1Lgwxjx4WLjx9UhrW31hNTfDd2+G2u1I/VJ+eddx93URGD+m71tfnPreAg8+azitvFmBn28P2hfNODXP/xWTRe/D402G64MFH4O2imy5oBqYCl+C+ApISilUAVADfIzQsZa99Oxg2ODTtjRkOA7cq3LB+EnffC1fdnPqwdMcO7ZhxyQQm7B3aM35+71yOv+jnrFiVcrNfu2o472tw6N7pHieGpmZ4/qWW6YInQs/GByn/fFrvJkJjrUWApI0W66p4I1l3+vfvG4bzx24PI4ZATYdM09lojz8Nk6+A99J97K6iooILT9oTgEtvmU1z2kPfXetg2r+F300pWrkq/G5W9w+8+PesM7oO+EbWSUgqXTEKgKuBcyLEaZsO7cMd/u5jw7D+pt0LnkJqCtgcWBCFbvYrhLcXwZ8fh/vmhKLggw+yyOIK4IIsDiyp9CUtAKYS1vQvjMoK2HEkHDQedhoVVuIrV8uWwwVXw58eyzqTZHYeBZefC5vUZp1JepavDL+nX8+GOY+H6YPCmQJcWsgDSioPSQqAY4HbYiWyXnWdwrzxF/crr7vIDSngyoGp2JiV/UrdK6/DL34LM++FJQXZ5K8Z+Arw00IcTAVzGDA6YYzfAvcnjDGOsH9LEg8Dv0wYQynY2AJgJPAg0DFiLp9WWwNHHAgTD8/2cbGsFWjlwGhiruxXqpavgDv/G2bcBUtTLwRWArsTPmhVHn4AnJwwxvmElViTOA+4MmGMW0j+b1EKNubWbHPChiXpXfwrK+Gog+HX0+GM4/J98Qc4ZC/47qWhka7Yda2Dm7+V74s/QG1HOO5w+NUPws8i3adQagh3WA1pHkRSeWlrAdCO8EGT3jj84K3hx9eFO8guxb+QYMGMGAK3XRuedihW/fuGHEu10z8N3brA5FPh1mthYP80j1RPODeLdwEuSUWlrQXAJcAOaSRCVRWcfly4gAzaKpVDlLyG3jDj6tBYV2x2HhVyy1OPRltsOyAUtl87Os0FkEYTmgIlaYPaUgDsAkxOJYvNesIPrwhz/XlqGNsYm9TC9ReG4eVicdi+cN2/l3enfwxVVfDVCfCjq9LbZCo8FjgureCSykdrr7ZdCFuTxr91GT0cfvqdsHKfWqeyMvRGXHhmWF0vK+2qQw4XnFZ8y/oWsyED4cfXpzVVUglMpxQ24pKUqdYWANcA/aIf/YA94MaLwmN+arssmwO71oVjH7JX4Y9dDrrWwU1TYZ/d0ojen+Td35LKXGsKgB2AE6If+fgj4OKzsr2DLQdZNAfa7BdH+3bwrXPg6C+kEf1kYPs0AksqDxsqACqAb7fi+9rmK4fCacdCRQls0FMKGnqHLvPdxqR/rB1HwPRpNvvFUlERFkuK39NRRdg0yJNM0jpt6MI+ERgb9YhHHQxnfzVqSBEWTbrmgnSbAw/bF26YAp1yvi5DGk4/No21E3YCvhw7qKTysL4CoBa4POrR9tkNJp0YNaTWkFZzoM1+6auogHNPgfE7x458FWGhIElay/oKgFOIueDPoK3CRcRh//Qdshd8/3Lo3iV5rC6d4TuX2OxXCBUVMHVSWDMgngbAITdJn/JZBUANMbf47dEtbAdb0yFaSG3AsMEw45pkzYH9+4bFa0YNjZeX1q9D+zCV071rzKiTgfYxA0oqfZ9VAJxAWFo0uYoKmHImbNo9Sji1QZLmQJv9stOrJ1xydszRsr6E3Tsl6WPrKgCqibni34QDi3Pp2rxY3Rx47Bdbd0GprAjfe+NFNvtlaccRYfvreM4njYW8JJWsdRUA+wNbRInetwHOmBgllBKorIQzJ4Zd+oYO+uzvGzoYbr4sfK9LMmfvrBNg8z6xom0F7B0rmKTSt65W8Xht+uecFOY0VRxGDYXpV8PLr8BfnoK3Foavb9YTRm4H/TbPNj+traZDeGpm0qWxIp4I/DZWMOXCHGBawhgPx0hE8X2yAOgNxBl3HDcGdhoZJZQi2/Jz4aXit9voMIX2p8diRDuYcI6/ESOYcuH+lpfK0CfHeY9n3aMCbVNd7WI/UiyTTow1JVMNHBMjkKTS98lPlaOjRN1vXMy5SynftmiIuWlQnHNcUslbswDoD2ybPGIlTDwicRhJazjhS+EJjeSGksbOnpJKzpoFwEFRIo7fKdyxSIpny8/F3Owp+qYDkkrPmgXAwVEiHhb12WVJqx22b6xIB8YKJKl0rS4A6oBdE0dr6A2jtkscRtI6jB0BfXrFiPR5oFOMQJJK1+oCYEegXeJoB+/pZj9SWior4KDxMSJ1AKLNJ0gqTasLgLFRosXfylTSmvbYKVak0bECSSpNqwuAHRJH2ryPK8lJadu6H9RvFiOSIwBSzsUrAHbzhkIqiF2Sn65YAEi5V0nY+Cd5Z5F7xkuFsUOUc6034JCdlGOVwIAokYZsEyWMpA3YbmCsSFvHCiSp9FQCWyaOUt8LundNno2kDevZHXr1jBEp+bkvqWRVEmNZ0EHeSEgFNXirGFEsAKQcizMC4MY/UmHFOef6xQgiqTRVA8k3hq+PsjqZpNZqiPIo4BYxgqisDSP5EyPzgQcj5KLIqoHkk/dxnkuW1Fpxzrm6GEFU1vYFrkwY4xYsAIpSJbBJ4ig2AEqF1a1LjCjuByDlWJwCoGNN8kwktV7HjjGiJD/3JZWsSAVAh+SZSGq92ihFtyMAUo5VAslvJTpYAEgFFWfUzREAKccq+ed+ABvPLYClwopzziU/9yWVLD8AJEnKIQsASZJyqDrrBFrtob/AVd9PFmPYYJg6KU4+Kk9TroN585PFOO9U2GlknHxKw+NAlOcS9bEomz1I61M6BcDyFfDaG8liNPSOk4vK1zvvJn+fLV8RJ5fS0Q/olnUSktrGKQBJknLIAkCSpByyAJAkKYcsACRJyiELAEmScsgCQJKkHCqdxwAlSW3RFCHGs8BdCWM8FiEPpcACQJLK01sRYsxseakMOQUgSeXpxawTUHGzAJCk8rMQmJN1EipuFgCSVH5uAhqzTkLFzQJAksrLy8C1WSeh4mcBIEnl413gEGBJ1omo+FkASFJ5eBIYAzyVdSIqDRYAklS6PgIeAE4ARgAvZJuOSonrAEhKag+gKuskcmgx8BqwIutEVJosACQlNTfrBCS1nVMAkiTlkAWAJEk5ZAEgSVIOWQBIkpRDFgCSJOWQBYAkSTlkASBJUg5ZAEiSlEMWAJIk5ZAFgCRJOWQBIElSDlkASJKUQxYAkiTlkAWAJEk5ZAEgSVIOVWedgKSS9yugc8IYRwNvJIzxPWCbhDHOBZ5IGONCYFzCGNcB9ySMIa2XBYCkpHYHuiaMURshjzHAiIQxekTIYygwPmGMOyLkIa2XUwCSJOWQBYAkSTlkASBJUg5ZAEiSlEMWAJIk5ZAFgCRJOWQBIElSDlkASJKUQxYAkiTlkAWAJEk5ZAEgSVIOWQBIkpRDFgCSJOWQBYAkSTlkASBJUg5VZ52ApJI3EWifMMabEfI4D+iWMMaTEfK4FrgjYYzHIuQhrZcFgKSkZmadQIvZWSfQYk7LSypqTgFIkpRDFgCSJOWQBYAkSTlkASBJUg5ZAEiSlEMWAJIk5ZAFgCRJOWQBIElSDlkASJKUQxYAkiTlkAWAJEk5ZAEgSVIOWQBIkpRDFgCSJOWQBYAkSTlkASBJUg5ZAEiSlEMWAJIk5ZAFgCRJOWQBIElSDlkASJKUQxYAkiTlkAWAJEk5VB0lytJlUcKs14pVyWM0NsL7S5PHUflqbEweY8Wq9N9nhTjnJJW1CqA56yQkZaYi6wQkZcMpAEmScsgCQJKkHLIAkCQphywAJEnKIQsASZJyyAJAkqQcsgCQJCmHKoEIK59IKkGe+1KOVQJvZZ2EpEy8kXUCkrJTCTyddRKSMuG5L+VYJXB31klIyoTnvpRjFUBH4Hlg84xzkVQ4C4ABwPKsE5GUjUpgBXAWbgok5UUz8HW8+Eu5VtXy53xgGbAX7g4mlbNm4Bzg1ozzkJSxqjX++yHgSWBXoHM26UhK0WvAccCMrBORlL113e3XAscChwJDgM2A6kImJSmKRuBN4ClCw9/tOOwvqcX/A1FaO1/8YPSrAAAAAElFTkSuQmCC;" parent="oP2a7q_iQrm_6OJs4VRY-21" vertex="1">
                    <mxGeometry x="26.5" y="52.5" width="115" height="115" as="geometry"/>
                </mxCell>
                <mxCell id="oP2a7q_iQrm_6OJs4VRY-8" style="edgeStyle=orthogonalEdgeStyle;rounded=0;orthogonalLoop=1;jettySize=auto;html=1;exitX=0.5;exitY=1;exitDx=0;exitDy=0;fontFamily=Verdana;fontSize=19;" parent="oP2a7q_iQrm_6OJs4VRY-21" source="oP2a7q_iQrm_6OJs4VRY-9" target="oP2a7q_iQrm_6OJs4VRY-7" edge="1">
                    <mxGeometry relative="1" as="geometry"/>
                </mxCell>
                <mxCell id="oP2a7q_iQrm_6OJs4VRY-9" value="&lt;b&gt;&lt;font face=&quot;Verdana&quot; style=&quot;font-size: 19px&quot;&gt;Administrador&lt;/font&gt;&lt;/b&gt;" style="text;html=1;strokeColor=none;fillColor=none;align=center;verticalAlign=middle;whiteSpace=wrap;rounded=0;" parent="oP2a7q_iQrm_6OJs4VRY-21" vertex="1">
                    <mxGeometry width="168" height="30" as="geometry"/>
                </mxCell>
                <mxCell id="oP2a7q_iQrm_6OJs4VRY-22" value="" style="group" parent="1" vertex="1" connectable="0">
                    <mxGeometry x="300" y="100" width="168" height="160" as="geometry"/>
                </mxCell>
                <mxCell id="oP2a7q_iQrm_6OJs4VRY-4" value="" style="shape=image;verticalLabelPosition=bottom;labelBackgroundColor=#ffffff;verticalAlign=top;aspect=fixed;imageAspect=0;image=https://cdn-icons-png.flaticon.com/512/2784/2784445.png;" parent="oP2a7q_iQrm_6OJs4VRY-22" vertex="1">
                    <mxGeometry x="28" y="48" width="112" height="112" as="geometry"/>
                </mxCell>
                <mxCell id="oP2a7q_iQrm_6OJs4VRY-10" style="edgeStyle=orthogonalEdgeStyle;rounded=0;orthogonalLoop=1;jettySize=auto;html=1;fontFamily=Verdana;fontSize=19;" parent="oP2a7q_iQrm_6OJs4VRY-22" source="oP2a7q_iQrm_6OJs4VRY-11" target="oP2a7q_iQrm_6OJs4VRY-4" edge="1">
                    <mxGeometry relative="1" as="geometry"/>
                </mxCell>
                <mxCell id="oP2a7q_iQrm_6OJs4VRY-11" value="&lt;b&gt;&lt;font face=&quot;Verdana&quot; style=&quot;font-size: 19px&quot;&gt;Docentes&lt;/font&gt;&lt;/b&gt;" style="text;html=1;strokeColor=none;fillColor=none;align=center;verticalAlign=middle;whiteSpace=wrap;rounded=0;" parent="oP2a7q_iQrm_6OJs4VRY-22" vertex="1">
                    <mxGeometry width="168" height="30" as="geometry"/>
                </mxCell>
                <mxCell id="oP2a7q_iQrm_6OJs4VRY-26" value="" style="endArrow=none;html=1;rounded=0;exitX=1;exitY=0.5;exitDx=0;exitDy=0;entryX=0;entryY=0.5;entryDx=0;entryDy=0;startArrow=none;" parent="1" source="oP2a7q_iQrm_6OJs4VRY-30" target="oP2a7q_iQrm_6OJs4VRY-18" edge="1">
                    <mxGeometry width="50" height="50" relative="1" as="geometry">
                        <mxPoint x="619" y="175" as="sourcePoint"/>
                        <mxPoint x="631" y="400" as="targetPoint"/>
                    </mxGeometry>
                </mxCell>
                <mxCell id="oP2a7q_iQrm_6OJs4VRY-27" value="" style="endArrow=none;html=1;rounded=0;exitX=0.5;exitY=0;exitDx=0;exitDy=0;startArrow=none;" parent="1" source="oP2a7q_iQrm_6OJs4VRY-28" target="oP2a7q_iQrm_6OJs4VRY-4" edge="1">
                    <mxGeometry width="50" height="50" relative="1" as="geometry">
                        <mxPoint x="500" y="340" as="sourcePoint"/>
                        <mxPoint x="550" y="290" as="targetPoint"/>
                    </mxGeometry>
                </mxCell>
                <mxCell id="oP2a7q_iQrm_6OJs4VRY-28" value="Califica" style="text;html=1;strokeColor=none;fillColor=none;align=center;verticalAlign=middle;whiteSpace=wrap;rounded=0;" parent="1" vertex="1">
                    <mxGeometry x="354" y="330" width="60" height="30" as="geometry"/>
                </mxCell>
                <mxCell id="oP2a7q_iQrm_6OJs4VRY-29" value="" style="endArrow=none;html=1;rounded=0;exitX=0.5;exitY=0;exitDx=0;exitDy=0;" parent="1" source="oP2a7q_iQrm_6OJs4VRY-13" target="oP2a7q_iQrm_6OJs4VRY-28" edge="1">
                    <mxGeometry width="50" height="50" relative="1" as="geometry">
                        <mxPoint x="384" y="420" as="sourcePoint"/>
                        <mxPoint x="384" y="260" as="targetPoint"/>
                    </mxGeometry>
                </mxCell>
                <mxCell id="oP2a7q_iQrm_6OJs4VRY-30" value="Envia" style="text;html=1;strokeColor=none;fillColor=none;align=center;verticalAlign=middle;whiteSpace=wrap;rounded=0;" parent="1" vertex="1">
                    <mxGeometry x="478" y="160" width="60" height="30" as="geometry"/>
                </mxCell>
                <mxCell id="oP2a7q_iQrm_6OJs4VRY-47" value="" style="endArrow=none;html=1;rounded=0;exitX=1;exitY=0.5;exitDx=0;exitDy=0;entryX=0;entryY=0.5;entryDx=0;entryDy=0;" parent="1" source="oP2a7q_iQrm_6OJs4VRY-4" target="oP2a7q_iQrm_6OJs4VRY-30" edge="1">
                    <mxGeometry width="50" height="50" relative="1" as="geometry">
                        <mxPoint x="440.0000000000002" y="204" as="sourcePoint"/>
                        <mxPoint x="570" y="150" as="targetPoint"/>
                    </mxGeometry>
                </mxCell>
                <mxCell id="oP2a7q_iQrm_6OJs4VRY-51" value="" style="endArrow=none;html=1;rounded=0;entryX=1;entryY=0.5;entryDx=0;entryDy=0;exitX=0.5;exitY=0;exitDx=0;exitDy=0;startArrow=none;" parent="1" source="oP2a7q_iQrm_6OJs4VRY-53" target="oP2a7q_iQrm_6OJs4VRY-4" edge="1">
                    <mxGeometry width="50" height="50" relative="1" as="geometry">
                        <mxPoint x="500" y="450" as="sourcePoint"/>
                        <mxPoint x="550" y="400" as="targetPoint"/>
                    </mxGeometry>
                </mxCell>
                <mxCell id="2" value="" style="endArrow=none;html=1;startArrow=none;" edge="1" parent="1" source="3" target="oP2a7q_iQrm_6OJs4VRY-17">
                    <mxGeometry width="50" height="50" relative="1" as="geometry">
                        <mxPoint x="850" y="170" as="sourcePoint"/>
                        <mxPoint x="900" y="120" as="targetPoint"/>
                    </mxGeometry>
                </mxCell>
                <mxCell id="3" value="Tiene" style="text;html=1;align=center;verticalAlign=middle;resizable=0;points=[];autosize=1;strokeColor=none;" vertex="1" parent="1">
                    <mxGeometry x="910" y="282.5" width="50" height="20" as="geometry"/>
                </mxCell>
                <mxCell id="4" value="" style="endArrow=none;html=1;" edge="1" parent="1" target="3">
                    <mxGeometry width="50" height="50" relative="1" as="geometry">
                        <mxPoint x="850" y="169.9999999999999" as="sourcePoint"/>
                        <mxPoint x="1018.6364757501478" y="411.97261350627355" as="targetPoint"/>
                    </mxGeometry>
                </mxCell>
            </root>
        </mxGraphModel>
    </diagram>
</mxfile>